<?xml version="1.0" encoding="UTF-8"?>
<svg xmlns="http://www.w3.org/2000/svg" viewBox="0 0 1296 648">
  <g id="Layer_1" data-name="Layer 1">
    <g>
      <path d="m300.85,311.99s72.27-12.21,82.59-81.55c-8.41,46.32-.86,72.07-67.1,103.77-66.24,31.7-15.49-22.22-15.49-22.22Z"/>
      <path d="m301.71,353.38c17.21-3.5,85.91-24.48,101.46-57.11-15.43,41.95-34.78,65.13-101.46,81.8-15.49-13.63,0-24.7,0-24.7Z"/>
      <path d="m294.83,387.76c12.47-.87,55.45,2.04,80.21-21.27-28.59,27.68-63.43,40.46-88.81,40.19-25.38-.27,8.6-18.92,8.6-18.92Z"/>
      <path d="m237.46,311.99s-72.27-12.21-82.59-81.55c8.41,46.32.86,72.07,67.1,103.77,66.24,31.7,15.49-22.22,15.49-22.22Z"/>
      <path d="m236.6,353.38c-17.21-3.5-85.91-24.48-101.46-57.11,15.43,41.95,34.78,65.13,101.46,81.8,15.49-13.63,0-24.7,0-24.7Z"/>
      <path d="m243.48,387.76c-12.47-.87-55.45,2.04-80.21-21.27,28.59,27.68,63.43,40.46,88.81,40.19,25.38-.27-8.6-18.92-8.6-18.92Z"/>
      <circle cx="270.74" cy="366.49" r="17.21"/>
      <path d="m292.18,209.43c-7.59-11.31-22.12-18.33-35.64-14.26-5.81,1.75-11,5.31-15.33,9.88-.49.08-.99.22-1.49.49-2.33,1.22-4.52,3.11-6.48,5.15-4.06,2.35-7.88,6.47-9.77,8.94-5.52,7.25-4.56,17.42,2.08,23.75.93.89,1.91,1.5,2.89,1.87-.31,4.02-.5,8.51-2.75,11.33-.5.63-.07,1.84.88,1.51,6.27-2.25,7.21-7.76,8.32-13.48,2.63-1.59,4.43-4.66,4.1-7.88,4.31-4.51,5.36-12.25,5.63-18.2.02-.34-.02-.66-.05-.98.34-.68.56-1.38.66-2.07,2.98-4.02,6.65-7.63,11.04-9.85,12.28-6.2,25.82,3.37,29.85,15.12,4.53,13.23-.45,27.57-9.69,37.57-9.23,9.99-20.28,18.99-24.9,32.23-2.95,8.44-1.61,17.78,2.22,25.7,4.08,8.42,13.76,18.58,23.97,15.33,4.79-1.53,9.05-7.13,7.03-12.37-.9-2.34-1.86-4.71-3.67-6.52-1.2-1.2-2.5-1.8-3.81-2.74-.03-.02-.04-.03-.07-.05-.06-.07-.16-.18-.35-.37-.55-.56-1.12-1.1-1.63-1.69-.05-.05-.08-.09-.12-.14-.05-.09-.12-.2-.22-.37-.41-.67-.82-1.34-1.18-2.04-.09-.19-.16-.32-.2-.4-.15-.41-.29-.82-.41-1.24-.04-.14-.24-.95-.37-1.4-.05-.47-.14-1.22-.15-1.37-.02-.78.01-1.56.06-2.34.01-.23.02-.36.01-.45.03-.15.07-.31.12-.51.33-1.46.69-2.88,1.17-4.31.03-.09.21-.5.33-.78.37-.77.76-1.53,1.17-2.27,3.43-6.19,7.82-11.16,11.98-16.73,4.48-6,7.98-12.86,10.01-20.07,3.91-13.93,3.04-31.66-5.21-43.96Z"/>
    </g>
  </g>
  <g id="Layer_2" data-name="Layer 2">
    <g>
      <path d="m602.8,362.83v-7.96h6.69c7.29-.02,9.84.73,9.84,4.04s-2.46,3.94-9.84,3.93h-6.69Zm15.69,7.27h3.06l-7.22-5.62c5.04-.46,7.1-2.03,7.1-5.58,0-3.87-2.46-5.85-11.23-5.85h-9.5v17.05h2.1v-5.47h8.58s7.11,5.47,7.11,5.47Z"/>
      <polygon points="655.44 355 674 355 674 353.06 653.35 353.06 653.35 370.11 674 370.11 674 368.18 655.44 368.18 655.44 362.28 673.32 362.28 673.32 360.49 655.44 360.49 655.44 355"/>
      <path d="m725.56,354.45c-1.49-.58-5.07-1.73-10.46-1.75-5.91,0-10.42,1.31-10.42,4.8,0,3.11,3.85,4.15,10.45,4.52,5.51.31,8.99,1.03,8.99,3.33s-3.51,3.25-8.44,3.24c-5.69-.03-9.24-1.45-10.44-2.29l-.78,1.72c.82.84,4.94,2.49,11.24,2.51,5.85.02,10.56-1.23,10.56-5.28,0-3.51-3.83-4.85-10.7-5.21-5.3-.28-8.74-.77-8.74-2.64,0-2.21,3.51-2.94,8.27-2.92,5.41.02,8.66,1.21,9.76,1.71l.69-1.74Z"/>
      <polygon points="760.69 355 779.25 355 779.25 353.06 758.6 353.06 758.6 370.11 779.25 370.11 779.25 368.18 760.69 368.18 760.69 362.28 778.57 362.28 778.57 360.49 760.69 360.49 760.69 355"/>
      <path d="m830.02,364.29h-12.53l6.26-8.34,6.26,8.34Zm1.26,1.69l3.11,4.13h2.63l-13.27-17.53-13.28,17.53h2.63l3.1-4.13h15.06Z"/>
      <path d="m872.05,362.83v-7.96h6.7c7.28-.02,9.84.73,9.84,4.04s-2.46,3.94-9.84,3.93h-6.7Zm15.69,7.27h3.07l-7.23-5.62c5.05-.46,7.1-2.03,7.1-5.58,0-3.87-2.46-5.85-11.23-5.85h-9.49v17.05h2.09v-5.47h8.59s7.1,5.47,7.1,5.47Z"/>
      <path d="m935.24,352.7c-8.57,0-13.15,3.26-13.15,8.89,0,5,4.02,8.89,13.15,8.89,5.75,0,9.41-1.3,11.74-3.15l-1.16-1.73c-2,1.56-5.28,2.89-10.52,2.89-7.69,0-11.01-2.8-11.01-6.9s3.32-6.9,11.01-6.9c5.31,0,8.51,1.3,10.56,2.83l1.12-1.7c-2.29-1.83-5.96-3.12-11.74-3.12Z"/>
      <polygon points="1003.46 353.06 1001.36 353.06 1001.36 360.6 982.31 360.6 982.31 353.06 980.22 353.06 980.22 370.11 982.31 370.11 982.31 362.49 1001.36 362.49 1001.36 370.11 1003.46 370.11 1003.46 353.06"/>
      <path d="m443.29,308.76c0,.22.07.3.3.3h50.87c3.51,0,4.64,1.19,4.64,4.72v2.31c0,3.51-1.34,4.34-4.64,4.34h-50.87c-.23,0-.3.07-.3.29v10.7c0,.22.07.29.3.29h51.4c10.25,0,16.16-5.08,16.16-15.63v-2.31c0-4.49-1.27-8.53-5.09-11.15,2.62-2.32,3.44-5.84,3.44-9.2,0-9.8-5.01-14.74-15.11-14.74h-50.8c-.23,0-.3.08-.3.3v10.17c0,.23.07.3.3.3h50.2c2.02,0,2.85.37,3.22.9.52.44.82,1.49.82,3.07,0,1.72-.22,2.54-.75,3.06-.52.37-1.27.83-3.29.83h-50.2c-.23,0-.3.07-.3.29v11.15Z"/>
      <path d="m520.13,316.92c0,9.35,5.09,14.43,14.44,14.43h45.86c.6,0,1.41-.14,2.09-.82.6-.68.83-1.49.83-2.1v-5.61c0-1.73-1.2-2.92-2.92-2.92h-44.07c-1.79,0-2.46-.37-2.99-.75-.37-.37-.75-1.2-.75-2.92v-34.34c0-.61-.15-1.42-.82-2.1-.6-.67-1.42-.82-2.1-.82h-6.59c-.67,0-1.49.22-2.17.82-.52.68-.82,1.42-.82,2.1v35.01Z"/>
      <path d="m587.24,328.66c0,.97.37,1.72,1.19,2.31.6.23,1.12.37,1.57.37h7.71c.3,0,.82-.14,1.57-.37.83-.53,1.27-1.12,1.57-1.65l4.11-6.28,7.19-11.29,11.97-18.48c.22-.22.37-.22.6,0l19.23,29.77,2.54,3.82,1.57,2.46c.23.37.68,1.12,1.57,1.65.37.23.9.37,1.49.37h7.71c.45,0,.97-.14,1.57-.37.82-.6,1.19-1.34,1.19-2.31-.07-.52-.22-1.05-.53-1.49l-29.92-46.17c-.67-1.2-1.72-2.02-3.14-2.02h-7.18c-.6,0-1.12.15-1.58.45-.82.52-1.27,1.12-1.49,1.49l-30,46.17c-.23.52-.53.97-.53,1.57Z"/>
      <path d="m681.58,278.76c-9.65,0-14.73,4.79-14.73,14.43v24.02c0,9.65,5.38,14.44,14.73,14.44h37.19c7.78,0,12.94-3.36,14.14-11.15,0-.22-.15-.29-.37-.29h-49.08c-1.87,0-2.84-.45-3.36-.98-.52-.37-.83-1.34-.83-2.77v-22.59c0-1.42.3-2.39.83-2.77.53-.53,1.49-.9,3.36-.9h49.08c.37,0,.44-.15.3-.37-1.2-7.78-6.29-11.07-14.07-11.07h-37.19Z"/>
      <path d="m744.96,278.9c-1.73,0-2.92,1.2-2.92,2.92v46.54c0,1.72,1.19,2.92,2.92,2.92h6.57c.68,0,1.51-.15,2.1-.83.68-.67.82-1.49.82-2.09v-46.54c0-.6-.14-1.42-.82-2.09-.59-.68-1.42-.83-2.1-.83h-6.57Zm44.96,48.64c.82.67,1.41,1.19,1.94,1.56l.67.6,1.65,1.35c.3.15.75.22,1.27.22h9.05c2.32,0,3.37-2.92,1.58-4.49-8.38-7.18-19.67-16.3-24.61-20.42l-5.69-4.72c-.23-.22-.15-.37.07-.52,2.02-1.2,16.91-10.55,28.06-17.51,2.24-1.42,1.2-4.72-1.34-4.72h-9.73c-.52,0-.9,0-1.05.08-1.12.22-2.02.6-2.69,1.19q-.07.08-.15.08l-32.17,19.75c-.22.15-.3.3-.07.53,4.79,3.82,9.27,7.48,13.53,11,7.11,5.92,15.49,12.8,19.68,16.02Z"/>
      <path d="m865.25,278.46c-10.24,0-16.38,4.49-16.38,15.19s6.14,15.19,16.24,15.79l31.49,1.8c2.32.07,3.37.67,3.97,1.27.6.67.9,1.79.9,3.36,0,3.29-1.42,4.04-4.64,4.04-6.59.07-12.65.07-18.63.07-9.95,0-21.25.08-26.26.08h-2.77c-.22.07-.3.15-.3.37.22,6.06,5.16,10.92,11.22,10.92h37.34c10.4,0,16.38-4.49,16.38-15.26s-6.28-15.19-16.23-15.71l-31.5-1.8c-2.32-.23-3.36-.68-3.97-1.35-.67-.67-.97-1.72-.97-3.29,0-1.72.37-2.54.9-3.06.53-.52,1.65-.98,3.74-.98h47.74c.22,0,.29-.07.29-.29v-.08c0-6.2-4.86-11.07-11.07-11.07h-37.49Z"/>
      <path d="m920.25,279.36c-.82.67-1.19,1.42-1.19,2.24,0,.68.29,1.2.52,1.57l30,46.16c.22.37.68,1.05,1.49,1.57.37.22.9.38,1.58.38h7.18c1.42,0,2.46-.68,3.14-2.02l3.89-5.91c2.32-3.59,5.46-8.31,8.83-13.7.23-.22.38-.22.52,0l8.91,13.7,3.89,5.98c.22.37.67,1.05,1.49,1.57.37.22.9.38,1.49.38h7.26c1.72,0,2.24-.75,3.14-2.02,0,.07.75-1.05,1.95-3.07,3.36-5.16,10.25-16.01,16.45-25.36,3.59-5.69,7.26-11.37,11.45-17.65.37-.37.52-.9.6-1.57,0-1.57-1.19-2.62-2.77-2.62h-7.71c-1.49,0-2.32.75-3.14,2.02l-23.57,36.44c-1.27-1.88-2.46-3.9-3.89-6.07l-8.52-13.02c-.08-.22,0-.29,0-.37l6.81-10.47,2.84-4.34c.23-.37.45-.9.52-1.57,0-.82-.37-1.57-1.19-2.24-.61-.22-1.12-.38-1.58-.38h-7.71c-.59,0-1.12.15-1.49.38-.9.52-1.34,1.27-1.57,1.64l-1.04,1.57-2.63,4.04c-.07.23-.29.23-.52,0l-2.62-4.04-.97-1.57c-.9-1.27-1.5-2.02-3.22-2.02h-7.71c-1.12,0-1.87.45-2.39,1.34-.22.68-.37,1.12-.29,1.27,0,.68.14,1.2.53,1.57l2.84,4.34,6.81,10.47c.08.08.08.23,0,.37l-8.52,13.02c-1.42,2.17-2.63,4.19-3.9,6.07l-23.56-36.44c-.83-1.27-1.57-2.02-3.14-2.02h-7.71c-.45,0-.97.15-1.57.38Z"/>
      <path d="m1016.99,328.66c0,.97.37,1.72,1.19,2.31.6.23,1.12.37,1.58.37h7.7c.29,0,.82-.14,1.57-.37.83-.53,1.27-1.12,1.57-1.65l4.11-6.28,7.18-11.29,11.98-18.48c.22-.22.37-.22.6,0l19.23,29.77,2.54,3.82,1.57,2.46c.22.37.68,1.12,1.57,1.65.37.23.9.37,1.5.37h7.7c.45,0,.97-.14,1.58-.37.82-.6,1.19-1.34,1.19-2.31-.07-.52-.22-1.05-.52-1.49l-29.93-46.17c-.68-1.2-1.72-2.02-3.14-2.02h-7.18c-.6,0-1.12.15-1.58.45-.82.52-1.27,1.12-1.49,1.49l-30.01,46.17c-.22.52-.51.97-.51,1.57Z"/>
      <path d="m1099.51,278.98c-1.73,0-2.92,1.19-2.92,2.92v46.53c0,1.72,1.19,2.92,2.92,2.92h6.58c.68,0,1.5-.14,2.1-.82.68-.68.82-1.49.82-2.1v-33.89l37.94,35.53.15.15c.53.37,1.19,1.12,2.62,1.12h8.16c.67,0,1.57-.14,2.17-.82.67-.59.82-1.42.82-2.1v-46.53c0-1.73-1.27-2.92-2.99-2.92h-6.59c-1.73,0-2.92,1.19-2.92,2.92v33.89l-37.86-35.54q-.07-.08-.14-.08c-.52-.52-1.2-1.19-2.62-1.19h-8.22Z"/>
    </g>
  </g>
</svg>