<svg xmlns="http://www.w3.org/2000/svg" xmlns:xlink="http://www.w3.org/1999/xlink" width="125" zoomAndPan="magnify" viewBox="0 0 93.75 93.749997" height="125" preserveAspectRatio="xMidYMid meet" version="1.0"><defs><clipPath id="07ef76a02a"><path d="M 28 31.25 L 50 31.25 L 50 62.75 L 28 62.75 Z M 28 31.25 " clip-rule="nonzero"/></clipPath><clipPath id="0556540299"><path d="M 9.964844 31.25 L 32 31.25 L 32 62.75 L 9.964844 62.75 Z M 9.964844 31.25 " clip-rule="nonzero"/></clipPath><clipPath id="e592f6643a"><path d="M 62 31.25 L 84.214844 31.25 L 84.214844 62.75 L 62 62.75 Z M 62 31.25 " clip-rule="nonzero"/></clipPath><clipPath id="18a29adfac"><path d="M 45 31.25 L 67 31.25 L 67 62.75 L 45 62.75 Z M 45 31.25 " clip-rule="nonzero"/></clipPath></defs><g clip-path="url(#07ef76a02a)"><path fill="#ffffff" d="M 28.0625 36.664062 L 33.421875 31.25 L 49.496094 47 L 33.421875 62.75 L 28.0625 57.335938 L 38.292969 47 Z M 28.0625 36.664062 " fill-opacity="1" fill-rule="nonzero"/></g><g clip-path="url(#0556540299)"><path fill="#ffffff" d="M 9.996094 36.664062 L 15.355469 31.25 L 31.433594 47 L 15.355469 62.75 L 9.996094 57.335938 L 20.226562 47 Z M 9.996094 36.664062 " fill-opacity="1" fill-rule="nonzero"/></g><g clip-path="url(#e592f6643a)"><path fill="#ffffff" d="M 62.75 36.664062 L 68.109375 31.25 L 84.183594 47 L 68.109375 62.75 L 62.75 57.335938 L 72.980469 47 Z M 62.75 36.664062 " fill-opacity="1" fill-rule="nonzero"/></g><g clip-path="url(#18a29adfac)"><path fill="#ffffff" d="M 45.40625 36.664062 L 50.765625 31.25 L 66.84375 47 L 50.765625 62.75 L 45.40625 57.335938 L 55.636719 47 Z M 45.40625 36.664062 " fill-opacity="1" fill-rule="nonzero"/></g></svg>