<svg xmlns="http://www.w3.org/2000/svg" xmlns:xlink="http://www.w3.org/1999/xlink" width="40" zoomAndPan="magnify" viewBox="0 0 30 30.000001" height="40" preserveAspectRatio="xMidYMid meet" version="1.0"><defs><clipPath id="a659190e89"><path d="M 0.484375 0 L 29.515625 0 L 29.515625 29.03125 L 0.484375 29.03125 Z M 0.484375 0 " clip-rule="nonzero"/></clipPath><clipPath id="d35b3ca7e2"><path d="M 11 10 L 19 10 L 19 19 L 11 19 Z M 11 10 " clip-rule="nonzero"/></clipPath><clipPath id="ba8463fe9d"><path d="M 14.980469 10.820312 C 12.9375 10.820312 11.273438 12.488281 11.273438 14.542969 C 11.273438 16.59375 12.9375 18.265625 14.980469 18.265625 C 17.027344 18.265625 18.6875 16.59375 18.6875 14.542969 C 18.6875 12.488281 17.027344 10.820312 14.980469 10.820312 Z M 14.980469 17.589844 C 13.308594 17.589844 11.949219 16.222656 11.949219 14.542969 C 11.949219 12.863281 13.308594 11.496094 14.980469 11.496094 C 16.652344 11.496094 18.015625 12.863281 18.015625 14.542969 C 18.015625 16.222656 16.652344 17.589844 14.980469 17.589844 Z M 14.980469 17.589844 " clip-rule="nonzero"/></clipPath><clipPath id="fa425daf67"><path d="M 12 12 L 18 12 L 18 17 L 12 17 Z M 12 12 " clip-rule="nonzero"/></clipPath><clipPath id="a8e81e5d82"><path d="M 16.839844 13.238281 L 15.15625 12.222656 C 15.050781 12.15625 14.914062 12.15625 14.808594 12.222656 L 13.125 13.238281 C 13.023438 13.296875 12.960938 13.40625 12.960938 13.527344 L 12.960938 15.558594 C 12.960938 15.675781 13.023438 15.785156 13.125 15.847656 L 14.808594 16.863281 C 14.863281 16.894531 14.921875 16.910156 14.980469 16.910156 C 15.042969 16.910156 15.101562 16.894531 15.15625 16.863281 L 16.839844 15.847656 C 16.941406 15.785156 17.003906 15.675781 17.003906 15.558594 L 17.003906 13.527344 C 17.003906 13.40625 16.941406 13.296875 16.839844 13.238281 Z M 14.980469 12.90625 L 16.011719 13.527344 L 14.980469 14.148438 L 13.953125 13.527344 Z M 13.632812 14.125 L 14.644531 14.734375 L 14.644531 15.976562 L 13.632812 15.367188 Z M 15.320312 15.976562 L 15.320312 14.734375 L 16.328125 14.125 L 16.328125 15.367188 Z M 15.320312 15.976562 " clip-rule="nonzero"/></clipPath><clipPath id="9b1aa64597"><path d="M 5.546875 4.382812 L 24.417969 4.382812 L 24.417969 24.703125 L 5.546875 24.703125 Z M 5.546875 4.382812 " clip-rule="nonzero"/></clipPath><clipPath id="128b2aa532"><path d="M 24.253906 11.785156 C 24.355469 11.726562 24.417969 11.613281 24.417969 11.496094 L 24.417969 9.804688 C 24.417969 9.683594 24.355469 9.574219 24.253906 9.511719 L 22.570312 8.496094 C 22.460938 8.433594 22.328125 8.433594 22.222656 8.496094 L 20.707031 9.410156 L 17.003906 7.238281 L 17.003906 5.742188 C 17.003906 5.621094 16.941406 5.511719 16.839844 5.449219 L 15.15625 4.433594 C 15.050781 4.371094 14.914062 4.371094 14.808594 4.433594 L 13.125 5.449219 C 13.023438 5.511719 12.960938 5.621094 12.960938 5.742188 L 12.960938 7.238281 L 9.253906 9.410156 L 7.742188 8.496094 C 7.636719 8.433594 7.503906 8.433594 7.394531 8.496094 L 5.710938 9.511719 C 5.609375 9.574219 5.546875 9.683594 5.546875 9.804688 L 5.546875 11.496094 C 5.546875 11.613281 5.609375 11.726562 5.710938 11.785156 L 7.230469 12.703125 L 7.230469 16.382812 L 5.710938 17.300781 C 5.609375 17.359375 5.546875 17.46875 5.546875 17.589844 L 5.546875 19.28125 C 5.546875 19.402344 5.609375 19.511719 5.710938 19.570312 L 7.394531 20.585938 C 7.449219 20.621094 7.507812 20.636719 7.570312 20.636719 C 7.628906 20.636719 7.6875 20.621094 7.742188 20.585938 L 9.253906 19.675781 L 12.960938 21.847656 L 12.960938 23.34375 C 12.960938 23.464844 13.023438 23.574219 13.125 23.632812 L 14.808594 24.648438 C 14.863281 24.683594 14.921875 24.699219 14.980469 24.699219 C 15.042969 24.699219 15.101562 24.683594 15.15625 24.648438 L 16.839844 23.632812 C 16.941406 23.574219 17.003906 23.464844 17.003906 23.34375 L 17.003906 21.847656 L 20.707031 19.675781 L 22.222656 20.585938 C 22.277344 20.621094 22.335938 20.636719 22.394531 20.636719 C 22.457031 20.636719 22.515625 20.621094 22.570312 20.585938 L 24.253906 19.570312 C 24.355469 19.511719 24.417969 19.402344 24.417969 19.28125 L 24.417969 17.589844 C 24.417969 17.46875 24.355469 17.359375 24.253906 17.300781 L 22.734375 16.382812 L 22.734375 12.703125 Z M 13.292969 7.828125 L 14.644531 8.640625 L 14.644531 9.480469 C 12.9375 9.59375 11.460938 10.5625 10.632812 11.964844 L 9.589844 11.308594 L 9.589844 9.996094 Z M 20.375 9.996094 L 20.375 11.308594 L 19.328125 11.960938 C 18.5 10.5625 17.027344 9.59375 15.320312 9.480469 L 15.320312 8.640625 L 16.667969 7.828125 Z M 22.058594 16.382812 L 20.714844 17.191406 L 19.640625 16.515625 C 19.894531 15.90625 20.035156 15.242188 20.035156 14.542969 C 20.035156 13.839844 19.894531 13.175781 19.636719 12.566406 L 20.714844 11.890625 L 22.058594 12.703125 Z M 14.980469 22.273438 L 13.953125 21.652344 L 14.980469 21.03125 L 16.011719 21.652344 Z M 14.980469 18.941406 C 12.566406 18.941406 10.601562 16.96875 10.601562 14.542969 C 10.601562 12.117188 12.566406 10.140625 14.980469 10.140625 C 17.398438 10.140625 19.363281 12.117188 19.363281 14.542969 C 19.363281 16.96875 17.398438 18.941406 14.980469 18.941406 Z M 9.25 17.191406 L 7.90625 16.382812 L 7.90625 12.703125 L 9.25 11.890625 L 10.324219 12.570312 C 10.070312 13.175781 9.925781 13.84375 9.925781 14.542969 C 9.925781 15.242188 10.070312 15.90625 10.324219 16.515625 Z M 7.90625 11.011719 L 8.917969 10.402344 L 8.917969 11.304688 L 7.90625 11.914062 Z M 21.046875 10.402344 L 22.058594 11.011719 L 22.058594 11.914062 L 21.046875 11.304688 Z M 16.328125 7.242188 L 15.320312 7.851562 L 15.320312 6.949219 L 16.328125 6.339844 Z M 14.644531 6.949219 L 14.644531 7.851562 L 13.632812 7.242188 L 13.632812 6.339844 Z M 8.597656 17.589844 L 7.570312 18.210938 L 6.539062 17.589844 L 7.570312 16.96875 Z M 9.589844 17.777344 L 10.632812 17.121094 C 11.460938 18.519531 12.9375 19.488281 14.644531 19.601562 L 14.644531 20.445312 L 13.292969 21.257812 L 9.589844 19.085938 Z M 16.667969 21.257812 L 15.320312 20.445312 L 15.320312 19.601562 C 17.027344 19.488281 18.503906 18.523438 19.332031 17.121094 L 20.375 17.777344 L 20.375 19.085938 Z M 22.394531 18.210938 L 21.367188 17.589844 L 22.394531 16.96875 L 23.425781 17.589844 Z M 22.734375 11.914062 L 22.734375 11.011719 L 23.742188 10.402344 L 23.742188 11.304688 Z M 22.394531 9.183594 L 23.425781 9.804688 L 22.394531 10.421875 L 21.367188 9.804688 Z M 14.980469 5.121094 L 16.011719 5.742188 L 14.980469 6.359375 L 13.953125 5.742188 Z M 7.570312 9.183594 L 8.597656 9.804688 L 7.570312 10.421875 L 6.539062 9.804688 Z M 6.21875 10.402344 L 7.230469 11.011719 L 7.230469 11.914062 L 6.21875 11.304688 Z M 6.21875 18.1875 L 7.230469 18.796875 L 7.230469 19.699219 L 6.21875 19.089844 Z M 7.90625 19.699219 L 7.90625 18.796875 L 8.917969 18.1875 L 8.917969 19.089844 Z M 13.632812 22.25 L 14.644531 22.859375 L 14.644531 23.761719 L 13.632812 23.152344 Z M 15.320312 23.761719 L 15.320312 22.859375 L 16.328125 22.25 L 16.328125 23.152344 Z M 21.046875 18.1875 L 22.058594 18.796875 L 22.058594 19.699219 L 21.046875 19.089844 Z M 22.734375 19.699219 L 22.734375 18.796875 L 23.742188 18.1875 L 23.742188 19.089844 Z M 22.734375 19.699219 " clip-rule="nonzero"/></clipPath></defs><g clip-path="url(#a659190e89)"><path fill="#ffffff" d="M 0.484375 0 L 29.515625 0 L 29.515625 174.195312 L 0.484375 174.195312 Z M 0.484375 0 " fill-opacity="1" fill-rule="nonzero"/><path fill="#ffffff" d="M 0.484375 0 L 29.515625 0 L 29.515625 29.03125 L 0.484375 29.03125 Z M 0.484375 0 " fill-opacity="1" fill-rule="nonzero"/><path fill="#000000" d="M 0.484375 0 L 29.515625 0 L 29.515625 29.03125 L 0.484375 29.03125 Z M 0.484375 0 " fill-opacity="1" fill-rule="nonzero"/></g><g clip-path="url(#d35b3ca7e2)"><g clip-path="url(#ba8463fe9d)"><path fill="#ffffff" d="M 11.273438 10.820312 L 11.273438 18.265625 L 18.6875 18.265625 L 18.6875 10.820312 Z M 11.273438 10.820312 " fill-opacity="1" fill-rule="nonzero"/></g></g><g clip-path="url(#fa425daf67)"><g clip-path="url(#a8e81e5d82)"><path fill="#ffffff" d="M 12.960938 12.15625 L 12.960938 16.910156 L 17.003906 16.910156 L 17.003906 12.15625 Z M 12.960938 12.15625 " fill-opacity="1" fill-rule="nonzero"/></g></g><g clip-path="url(#9b1aa64597)"><g clip-path="url(#128b2aa532)"><path fill="#ffffff" d="M 5.546875 4.382812 L 5.546875 24.699219 L 24.417969 24.699219 L 24.417969 4.382812 Z M 5.546875 4.382812 " fill-opacity="1" fill-rule="nonzero"/></g></g></svg>