<svg xmlns="http://www.w3.org/2000/svg" xmlns:xlink="http://www.w3.org/1999/xlink" width="40" zoomAndPan="magnify" viewBox="0 0 30 30.000001" height="40" preserveAspectRatio="xMidYMid meet" version="1.0"><defs><clipPath id="4d12fcd72d"><path d="M 0.484375 0 L 29.515625 0 L 29.515625 29.03125 L 0.484375 29.03125 Z M 0.484375 0 " clip-rule="nonzero"/></clipPath><clipPath id="f8096b701b"><path d="M 4.816406 4.40625 L 25 4.40625 L 25 24.726562 L 4.816406 24.726562 Z M 4.816406 4.40625 " clip-rule="nonzero"/></clipPath><clipPath id="d4b4c0a7db"><path d="M 11.683594 4.753906 C 9.945312 4.753906 8.3125 5.4375 7.082031 6.675781 C 5.855469 7.914062 5.175781 9.558594 5.175781 11.308594 C 5.175781 13.0625 5.855469 14.707031 7.082031 15.945312 C 8.3125 17.183594 9.945312 17.863281 11.683594 17.863281 C 13.421875 17.863281 15.058594 17.183594 16.285156 15.945312 C 17.515625 14.707031 18.191406 13.0625 18.191406 11.308594 C 18.191406 9.558594 17.515625 7.914062 16.285156 6.675781 C 15.058594 5.4375 13.421875 4.757812 11.683594 4.753906 Z M 10.207031 8.910156 L 9.1875 8.492188 C 9.09375 8.597656 8.957031 8.664062 8.804688 8.664062 C 8.519531 8.664062 8.285156 8.429688 8.285156 8.144531 C 8.285156 7.855469 8.519531 7.621094 8.804688 7.621094 C 9.089844 7.621094 9.320312 7.855469 9.320312 8.144531 C 9.320312 8.148438 9.320312 8.15625 9.320312 8.164062 L 10.339844 8.582031 C 10.433594 8.476562 10.574219 8.410156 10.722656 8.410156 C 11.007812 8.410156 11.242188 8.640625 11.242188 8.929688 C 11.242188 8.992188 11.230469 9.050781 11.210938 9.105469 L 12.382812 10.085938 C 12.460938 10.039062 12.550781 10.015625 12.644531 10.015625 C 12.929688 10.015625 13.164062 10.25 13.164062 10.535156 C 13.164062 10.59375 13.152344 10.644531 13.136719 10.695312 L 14.289062 11.601562 C 14.371094 11.550781 14.464844 11.523438 14.566406 11.523438 C 14.851562 11.523438 15.082031 11.757812 15.082031 12.042969 C 15.082031 12.332031 14.851562 12.566406 14.566406 12.566406 C 14.28125 12.566406 14.046875 12.332031 14.046875 12.042969 C 14.046875 11.988281 14.058594 11.933594 14.074219 11.882812 L 12.917969 10.976562 C 12.839844 11.027344 12.746094 11.058594 12.644531 11.058594 C 12.359375 11.058594 12.128906 10.824219 12.128906 10.535156 C 12.128906 10.472656 12.136719 10.414062 12.15625 10.359375 L 10.984375 9.378906 C 10.910156 9.425781 10.820312 9.449219 10.722656 9.449219 C 10.4375 9.449219 10.207031 9.21875 10.207031 8.929688 C 10.207031 8.921875 10.207031 8.917969 10.207031 8.910156 Z M 12.773438 10.640625 L 12.773438 10.636719 C 12.796875 10.609375 12.808594 10.574219 12.808594 10.535156 C 12.808594 10.445312 12.734375 10.371094 12.644531 10.371094 C 12.554688 10.371094 12.480469 10.445312 12.480469 10.535156 C 12.480469 10.628906 12.554688 10.699219 12.644531 10.699219 C 12.695312 10.699219 12.742188 10.675781 12.773438 10.640625 Z M 14.566406 11.878906 C 14.476562 11.878906 14.402344 11.953125 14.402344 12.042969 C 14.402344 12.132812 14.476562 12.207031 14.566406 12.207031 C 14.65625 12.207031 14.730469 12.132812 14.730469 12.042969 C 14.730469 11.953125 14.65625 11.878906 14.566406 11.878906 Z M 10.722656 8.765625 C 10.632812 8.765625 10.5625 8.839844 10.5625 8.929688 C 10.5625 9.019531 10.632812 9.09375 10.722656 9.09375 C 10.816406 9.09375 10.886719 9.019531 10.886719 8.929688 C 10.886719 8.839844 10.816406 8.765625 10.722656 8.765625 Z M 8.804688 7.976562 C 8.714844 7.976562 8.640625 8.050781 8.640625 8.144531 C 8.640625 8.234375 8.714844 8.308594 8.804688 8.308594 C 8.894531 8.308594 8.96875 8.234375 8.96875 8.144531 C 8.96875 8.050781 8.894531 7.976562 8.804688 7.976562 Z M 14.15625 14.644531 L 14.976562 14.644531 L 14.976562 13.074219 L 14.15625 13.074219 Z M 15.152344 15 L 13.976562 15 C 13.878906 15 13.800781 14.917969 13.800781 14.820312 L 13.800781 12.898438 C 13.800781 12.796875 13.878906 12.71875 13.976562 12.71875 L 15.152344 12.71875 C 15.25 12.71875 15.332031 12.796875 15.332031 12.898438 L 15.332031 14.820312 C 15.332031 14.917969 15.25 15 15.152344 15 Z M 12.234375 14.625 L 13.054688 14.625 L 13.054688 11.640625 L 12.234375 11.640625 Z M 13.234375 14.980469 L 12.058594 14.980469 C 11.960938 14.980469 11.878906 14.898438 11.878906 14.800781 L 11.878906 11.464844 C 11.878906 11.367188 11.960938 11.285156 12.058594 11.285156 L 13.234375 11.285156 C 13.332031 11.285156 13.410156 11.367188 13.410156 11.464844 L 13.410156 14.800781 C 13.410156 14.898438 13.332031 14.980469 13.234375 14.980469 Z M 10.3125 14.644531 L 11.136719 14.644531 L 11.136719 10.242188 L 10.3125 10.242188 Z M 11.3125 15 L 10.136719 15 C 10.039062 15 9.960938 14.917969 9.960938 14.820312 L 9.960938 10.0625 C 9.960938 9.964844 10.039062 9.886719 10.136719 9.886719 L 11.3125 9.886719 C 11.410156 9.886719 11.488281 9.964844 11.488281 10.0625 L 11.488281 14.820312 C 11.488281 14.917969 11.410156 15 11.3125 15 Z M 8.394531 14.613281 L 9.214844 14.613281 L 9.214844 9.304688 L 8.394531 9.304688 Z M 9.390625 14.96875 L 8.214844 14.96875 C 8.117188 14.96875 8.039062 14.890625 8.039062 14.792969 L 8.039062 9.125 C 8.039062 9.027344 8.117188 8.949219 8.214844 8.949219 L 9.390625 8.949219 C 9.488281 8.949219 9.570312 9.027344 9.570312 9.125 L 9.570312 14.792969 C 9.570312 14.890625 9.488281 14.96875 9.390625 14.96875 Z M 16.992188 16.910156 L 16.410156 16.320312 C 15.128906 17.546875 13.457031 18.222656 11.683594 18.222656 C 9.851562 18.222656 8.128906 17.503906 6.832031 16.195312 C 5.539062 14.890625 4.824219 13.15625 4.824219 11.308594 C 4.824219 9.464844 5.539062 7.730469 6.832031 6.421875 C 8.128906 5.117188 9.851562 4.398438 11.683594 4.398438 C 13.515625 4.398438 15.238281 5.117188 16.535156 6.421875 C 17.832031 7.730469 18.546875 9.464844 18.546875 11.308594 C 18.546875 13.097656 17.878906 14.78125 16.660156 16.070312 L 17.242188 16.65625 C 17.75 16.269531 18.480469 16.308594 18.945312 16.773438 L 24.617188 22.488281 C 25.121094 22.996094 25.121094 23.828125 24.617188 24.335938 C 24.363281 24.589844 24.03125 24.71875 23.699219 24.71875 C 23.367188 24.71875 23.035156 24.589844 22.78125 24.335938 L 17.109375 18.625 C 16.863281 18.378906 16.730469 18.050781 16.730469 17.699219 C 16.730469 17.410156 16.824219 17.132812 16.992188 16.910156 Z M 18.027344 16.75 C 17.785156 16.75 17.542969 16.839844 17.359375 17.027344 C 17.183594 17.207031 17.085938 17.445312 17.085938 17.699219 C 17.085938 17.953125 17.183594 18.191406 17.359375 18.371094 L 23.03125 24.085938 C 23.398438 24.457031 24 24.457031 24.367188 24.085938 C 24.734375 23.714844 24.734375 23.109375 24.367188 22.738281 L 18.695312 17.027344 C 18.511719 16.839844 18.269531 16.75 18.027344 16.75 Z M 11.683594 5.976562 C 10.328125 5.976562 8.96875 6.496094 7.9375 7.535156 C 6.9375 8.542969 6.386719 9.882812 6.386719 11.308594 C 6.386719 12.738281 6.9375 14.078125 7.9375 15.085938 C 8.9375 16.09375 10.269531 16.648438 11.683594 16.648438 C 13.101562 16.648438 14.429688 16.09375 15.433594 15.085938 C 16.433594 14.078125 16.984375 12.738281 16.984375 11.308594 C 16.984375 9.882812 16.433594 8.542969 15.433594 7.535156 C 14.398438 6.496094 13.042969 5.976562 11.683594 5.976562 Z M 11.683594 17.003906 C 10.175781 17.003906 8.753906 16.414062 7.6875 15.335938 C 6.621094 14.261719 6.03125 12.832031 6.03125 11.308594 C 6.03125 9.789062 6.621094 8.359375 7.6875 7.285156 C 9.890625 5.0625 13.476562 5.0625 15.683594 7.285156 C 16.75 8.359375 17.339844 9.789062 17.339844 11.308594 C 17.339844 12.832031 16.75 14.261719 15.683594 15.335938 C 14.613281 16.414062 13.195312 17.003906 11.683594 17.003906 Z M 11.683594 17.003906 " clip-rule="evenodd"/></clipPath></defs><g clip-path="url(#4d12fcd72d)"><path fill="#ffffff" d="M 0.484375 0 L 29.515625 0 L 29.515625 29.03125 L 0.484375 29.03125 Z M 0.484375 0 " fill-opacity="1" fill-rule="nonzero"/><path fill="#ffffff" d="M 0.484375 0 L 29.515625 0 L 29.515625 29.03125 L 0.484375 29.03125 Z M 0.484375 0 " fill-opacity="1" fill-rule="nonzero"/></g><g clip-path="url(#f8096b701b)"><g clip-path="url(#d4b4c0a7db)"><path fill="#b2b2b2" d="M 4.824219 4.40625 L 4.824219 24.71875 L 25.121094 24.71875 L 25.121094 4.40625 Z M 4.824219 4.40625 " fill-opacity="1" fill-rule="nonzero"/></g></g></svg>