<svg xmlns="http://www.w3.org/2000/svg" xmlns:xlink="http://www.w3.org/1999/xlink" width="40" zoomAndPan="magnify" viewBox="0 0 30 30.000001" height="40" preserveAspectRatio="xMidYMid meet" version="1.0"><defs><clipPath id="5b18337973"><path d="M 0.484375 0 L 29.515625 0 L 29.515625 29.03125 L 0.484375 29.03125 Z M 0.484375 0 " clip-rule="nonzero"/></clipPath><clipPath id="4c317f93f3"><path d="M 9 0.632812 L 11 0.632812 L 11 2 L 9 2 Z M 9 0.632812 " clip-rule="nonzero"/></clipPath><clipPath id="b5a062e74f"><path d="M 8 0.632812 L 10 0.632812 L 10 3 L 8 3 Z M 8 0.632812 " clip-rule="nonzero"/></clipPath><clipPath id="9397b62e81"><path d="M 8 0.632812 L 22.425781 0.632812 L 22.425781 14.421875 L 8 14.421875 Z M 8 0.632812 " clip-rule="nonzero"/></clipPath><clipPath id="98e82a21c4"><path d="M 5.480469 15.613281 L 24.351562 15.613281 L 24.351562 17.0625 L 5.480469 17.0625 Z M 5.480469 15.613281 " clip-rule="nonzero"/></clipPath><clipPath id="30cf489d15"><path d="M 8.925781 16.859375 L 16.90625 16.859375 L 16.90625 28.472656 L 8.925781 28.472656 Z M 8.925781 16.859375 " clip-rule="nonzero"/></clipPath><clipPath id="c2665a5b0b"><path d="M 12.527344 16.859375 L 20.511719 16.859375 L 20.511719 28.472656 L 12.527344 28.472656 Z M 12.527344 16.859375 " clip-rule="nonzero"/></clipPath></defs><g clip-path="url(#5b18337973)"><path fill="#ffffff" d="M 0.484375 0 L 29.515625 0 L 29.515625 29.03125 L 0.484375 29.03125 Z M 0.484375 0 " fill-opacity="1" fill-rule="nonzero"/><path fill="#ffffff" d="M 0.484375 0 L 29.515625 0 L 29.515625 29.03125 L 0.484375 29.03125 Z M 0.484375 0 " fill-opacity="1" fill-rule="nonzero"/></g><path fill="#a6a6a6" d="M 10.382812 3.753906 L 11.433594 4.316406 C 11.453125 4.328125 11.472656 4.332031 11.492188 4.332031 C 11.507812 4.332031 11.523438 4.328125 11.539062 4.320312 L 12.851562 3.742188 C 12.882812 3.730469 12.910156 3.699219 12.917969 3.664062 L 13.179688 2.527344 C 13.191406 2.476562 13.167969 2.425781 13.121094 2.398438 L 12.070312 1.835938 C 12.035156 1.816406 11.996094 1.816406 11.960938 1.832031 L 10.648438 2.410156 C 10.617188 2.425781 10.589844 2.453125 10.582031 2.492188 L 10.324219 3.628906 C 10.3125 3.679688 10.335938 3.734375 10.382812 3.753906 Z M 11.664062 4.015625 L 11.839844 3.257812 L 12.542969 3.632812 Z M 12.097656 2.117188 L 12.929688 2.5625 L 12.722656 3.464844 L 11.894531 3.019531 Z M 11.847656 2.144531 L 11.671875 2.902344 L 10.972656 2.527344 Z M 10.785156 2.695312 L 11.617188 3.140625 L 11.410156 4.042969 L 10.578125 3.59375 Z M 10.785156 2.695312 " fill-opacity="1" fill-rule="nonzero"/><g clip-path="url(#4c317f93f3)"><path fill="#a6a6a6" d="M 10.292969 0.855469 L 10.191406 0.640625 C 10.054688 0.703125 9.917969 0.765625 9.789062 0.832031 L 9.898438 1.039062 C 10.027344 0.972656 10.160156 0.914062 10.292969 0.855469 Z M 10.292969 0.855469 " fill-opacity="1" fill-rule="nonzero"/></g><g clip-path="url(#b5a062e74f)"><path fill="#a6a6a6" d="M 9.664062 1.164062 L 9.542969 0.964844 C 8.949219 1.292969 8.433594 1.679688 8.050781 2.09375 L 8.226562 2.253906 C 8.59375 1.855469 9.089844 1.480469 9.664062 1.164062 Z M 9.664062 1.164062 " fill-opacity="1" fill-rule="nonzero"/></g><path fill="#a6a6a6" d="M 17.917969 5.382812 L 18.046875 5.183594 L 18.453125 5.429688 L 18.328125 5.628906 Z M 17.917969 5.382812 " fill-opacity="1" fill-rule="nonzero"/><path fill="#a6a6a6" d="M 18.734375 5.871094 L 18.863281 5.675781 L 19.269531 5.921875 L 19.140625 6.121094 Z M 18.734375 5.871094 " fill-opacity="1" fill-rule="nonzero"/><path fill="#a6a6a6" d="M 17.945312 6.21875 L 18.074219 6.023438 L 18.480469 6.269531 L 18.351562 6.464844 Z M 17.945312 6.21875 " fill-opacity="1" fill-rule="nonzero"/><path fill="#a6a6a6" d="M 17.355469 6.105469 L 17.378906 6.917969 C 17.378906 6.953125 17.398438 6.992188 17.4375 7.011719 L 17.84375 7.261719 C 17.863281 7.273438 17.886719 7.277344 17.90625 7.277344 C 17.925781 7.277344 17.941406 7.273438 17.957031 7.265625 L 18.714844 6.929688 L 19.753906 7.027344 C 19.789062 7.03125 19.824219 7.019531 19.847656 6.996094 C 19.871094 6.972656 19.886719 6.941406 19.886719 6.90625 L 19.863281 6.105469 L 20.476562 5.144531 C 20.503906 5.105469 20.503906 5.054688 20.476562 5.015625 C 20.449219 4.980469 20.398438 4.960938 20.347656 4.96875 L 19.738281 5.109375 L 18.597656 4.417969 L 18.457031 3.824219 C 18.445312 3.777344 18.410156 3.742188 18.359375 3.734375 C 18.3125 3.726562 18.265625 3.75 18.238281 3.789062 L 17.621094 4.746094 L 16.867188 5.078125 C 16.835938 5.09375 16.8125 5.121094 16.800781 5.152344 C 16.789062 5.183594 16.792969 5.21875 16.8125 5.246094 Z M 17.753906 4.945312 C 17.777344 4.9375 17.792969 4.917969 17.804688 4.902344 L 18.289062 4.152344 L 18.375 4.519531 C 18.382812 4.546875 18.402344 4.574219 18.429688 4.59375 L 19.652344 5.332031 C 19.679688 5.347656 19.710938 5.351562 19.742188 5.347656 L 20.121094 5.261719 L 19.636719 6.011719 C 19.625 6.03125 19.621094 6.050781 19.621094 6.074219 L 19.640625 6.78125 L 18.707031 6.699219 C 18.683594 6.695312 18.664062 6.699219 18.644531 6.707031 L 17.917969 7.027344 L 17.621094 6.847656 L 17.59375 6.070312 C 17.59375 6.046875 17.589844 6.027344 17.578125 6.011719 L 17.085938 5.234375 Z M 17.753906 4.945312 " fill-opacity="1" fill-rule="nonzero"/><path fill="#a6a6a6" d="M 21.953125 3.96875 C 21.824219 3.804688 21.675781 3.644531 21.519531 3.492188 L 21.347656 3.652344 C 21.5 3.800781 21.636719 3.953125 21.761719 4.109375 Z M 21.953125 3.96875 " fill-opacity="1" fill-rule="nonzero"/><path fill="#a6a6a6" d="M 20.308594 2.855469 C 20.570312 3.011719 20.820312 3.191406 21.046875 3.382812 L 21.203125 3.207031 C 20.96875 3.007812 20.710938 2.824219 20.4375 2.65625 C 19.386719 2.023438 18.234375 1.726562 17.265625 1.847656 L 17.296875 2.078125 C 18.210938 1.96875 19.308594 2.25 20.308594 2.855469 Z M 20.308594 2.855469 " fill-opacity="1" fill-rule="nonzero"/><path fill="#a6a6a6" d="M 10.320312 11.355469 C 10.398438 11.519531 10.542969 11.640625 10.726562 11.679688 C 10.773438 11.691406 10.816406 11.699219 10.867188 11.699219 C 11 11.699219 11.128906 11.652344 11.238281 11.570312 L 11.507812 11.359375 C 11.546875 11.328125 11.566406 11.273438 11.546875 11.230469 L 11.316406 10.617188 L 11.933594 10.140625 L 12.496094 10.496094 C 12.539062 10.519531 12.59375 10.519531 12.636719 10.488281 L 12.90625 10.277344 C 13.050781 10.164062 13.136719 10 13.132812 9.820312 C 13.128906 9.636719 13.046875 9.472656 12.898438 9.359375 L 12.113281 8.777344 C 11.894531 8.617188 11.589844 8.617188 11.375 8.785156 L 10.082031 9.785156 C 9.867188 9.949219 9.796875 10.238281 9.910156 10.480469 Z M 10.230469 9.964844 L 11.519531 8.964844 C 11.648438 8.867188 11.832031 8.863281 11.964844 8.960938 L 12.75 9.542969 C 12.839844 9.613281 12.894531 9.710938 12.894531 9.820312 C 12.894531 9.925781 12.84375 10.027344 12.757812 10.09375 L 12.554688 10.253906 L 11.988281 9.898438 C 11.945312 9.871094 11.890625 9.875 11.847656 9.902344 L 11.097656 10.484375 C 11.058594 10.515625 11.039062 10.566406 11.058594 10.613281 L 11.289062 11.226562 L 11.085938 11.382812 C 10.996094 11.449219 10.886719 11.476562 10.777344 11.449219 C 10.667969 11.421875 10.578125 11.355469 10.53125 11.253906 L 10.121094 10.378906 C 10.058594 10.238281 10.101562 10.066406 10.230469 9.964844 Z M 10.230469 9.964844 " fill-opacity="1" fill-rule="nonzero"/><path fill="#a6a6a6" d="M 9.554688 8.214844 C 9.671875 8.121094 9.792969 8.035156 9.914062 7.953125 L 9.777344 7.765625 C 9.652344 7.847656 9.527344 7.9375 9.40625 8.03125 C 8.882812 8.4375 8.417969 8.902344 8.066406 9.378906 L 8.261719 9.515625 C 8.601562 9.054688 9.050781 8.605469 9.554688 8.214844 Z M 9.554688 8.214844 " fill-opacity="1" fill-rule="nonzero"/><g clip-path="url(#9397b62e81)"><path fill="#a6a6a6" d="M 20.957031 9.246094 L 21.957031 7.6875 C 22.320312 7.125 22.304688 6.378906 21.90625 5.597656 C 21.523438 4.832031 20.820312 4.113281 19.929688 3.574219 C 19.039062 3.035156 18.066406 2.742188 17.191406 2.742188 C 17.191406 2.742188 17.1875 2.742188 17.1875 2.742188 C 16.753906 2.742188 16.367188 2.816406 16.042969 2.953125 L 15.363281 1.496094 C 15.132812 1 14.53125 0.707031 13.671875 0.671875 C 12.84375 0.640625 11.863281 0.855469 10.910156 1.269531 C 9.957031 1.6875 9.144531 2.261719 8.621094 2.886719 C 8.078125 3.535156 7.90625 4.164062 8.140625 4.660156 L 8.933594 6.355469 C 9.164062 6.851562 9.765625 7.144531 10.621094 7.179688 C 10.675781 7.183594 10.730469 7.183594 10.789062 7.183594 C 11.582031 7.183594 12.496094 6.972656 13.386719 6.582031 C 13.585938 6.496094 13.777344 6.402344 13.964844 6.300781 C 13.996094 6.613281 14.09375 6.945312 14.265625 7.285156 C 14.351562 7.457031 14.457031 7.628906 14.574219 7.792969 L 14.5 7.703125 C 14.152344 7.277344 13.492188 7.136719 12.652344 7.3125 C 11.839844 7.480469 10.945312 7.921875 10.128906 8.550781 C 9.308594 9.183594 8.667969 9.933594 8.320312 10.664062 C 7.957031 11.421875 7.949219 12.070312 8.300781 12.496094 L 9.5 13.953125 C 9.75 14.257812 10.160156 14.414062 10.6875 14.414062 C 10.890625 14.414062 11.113281 14.390625 11.347656 14.34375 C 12.15625 14.175781 13.054688 13.734375 13.871094 13.105469 C 14.105469 12.925781 14.324219 12.730469 14.53125 12.535156 C 15.105469 13.238281 16.097656 13.828125 17.261719 14.152344 C 17.867188 14.320312 18.472656 14.402344 19.039062 14.402344 C 19.417969 14.402344 19.777344 14.367188 20.109375 14.289062 C 20.964844 14.09375 21.527344 13.667969 21.699219 13.085938 L 22.164062 11.519531 C 22.382812 10.789062 21.929688 9.945312 20.957031 9.246094 Z M 20.738281 9.144531 C 20.46875 9.558594 19.996094 9.808594 19.414062 9.886719 L 20.269531 8.554688 C 20.660156 8.523438 21.003906 8.433594 21.292969 8.28125 Z M 17.363281 7.789062 C 17.722656 7.996094 18.085938 8.164062 18.457031 8.289062 L 17.570312 9.667969 C 17.207031 9.546875 16.835938 9.382812 16.476562 9.171875 Z M 16.269531 9.050781 C 15.914062 8.824219 15.597656 8.578125 15.328125 8.3125 L 16.214844 6.933594 C 16.492188 7.199219 16.8125 7.445312 17.160156 7.667969 Z M 18.691406 8.363281 C 19.128906 8.492188 19.566406 8.558594 19.980469 8.5625 L 19.113281 9.910156 C 18.707031 9.925781 18.261719 9.871094 17.804688 9.742188 Z M 17.070312 10.15625 C 17.101562 10.027344 17.152344 9.90625 17.226562 9.796875 C 17.398438 9.863281 17.578125 9.921875 17.75 9.96875 L 17.695312 10.160156 L 18.15625 10.289062 L 18.21875 10.078125 C 18.476562 10.125 18.738281 10.148438 18.984375 10.148438 C 19.21875 10.148438 19.4375 10.128906 19.644531 10.085938 C 19.632812 10.109375 19.632812 10.132812 19.636719 10.15625 C 19.695312 10.375 19.6875 10.601562 19.625 10.820312 C 19.527344 11.160156 19.292969 11.433594 18.972656 11.597656 C 18.652344 11.761719 18.285156 11.792969 17.941406 11.683594 C 17.289062 11.46875 16.90625 10.800781 17.070312 10.15625 Z M 17.191406 2.976562 C 18.023438 2.976562 18.953125 3.257812 19.804688 3.773438 C 21.546875 4.828125 22.425781 6.527344 21.757812 7.5625 C 21.4375 8.054688 20.816406 8.328125 20.003906 8.328125 C 20.003906 8.328125 20 8.328125 20 8.328125 C 19.167969 8.328125 18.242188 8.046875 17.386719 7.53125 C 16.535156 7.015625 15.867188 6.332031 15.5 5.601562 C 15.140625 4.894531 15.121094 4.234375 15.4375 3.738281 C 15.753906 3.246094 16.375 2.976562 17.191406 2.976562 Z M 15.4375 2.21875 L 15.828125 3.058594 C 15.601562 3.1875 15.414062 3.355469 15.269531 3.558594 L 15.042969 3.066406 C 15.253906 2.773438 15.386719 2.488281 15.4375 2.21875 Z M 15.117188 3.792969 L 14.351562 4.980469 L 13.949219 4.117188 C 14.3125 3.855469 14.625 3.570312 14.875 3.273438 Z M 8.363281 4.566406 C 8.167969 4.15625 8.328125 3.609375 8.8125 3.035156 C 9.3125 2.4375 10.09375 1.886719 11.011719 1.484375 C 11.871094 1.109375 12.753906 0.90625 13.511719 0.90625 C 13.5625 0.90625 13.617188 0.90625 13.667969 0.910156 C 14.429688 0.9375 14.957031 1.179688 15.148438 1.59375 C 15.339844 2.003906 15.179688 2.550781 14.699219 3.125 C 14.195312 3.722656 13.414062 4.269531 12.496094 4.671875 C 11.578125 5.074219 10.632812 5.28125 9.84375 5.25 C 9.078125 5.222656 8.554688 4.980469 8.363281 4.566406 Z M 9.152344 6.265625 L 8.65625 5.195312 C 8.898438 5.335938 9.207031 5.425781 9.570312 5.464844 L 10.246094 6.910156 C 9.691406 6.828125 9.308594 6.601562 9.152344 6.265625 Z M 10.632812 6.949219 C 10.59375 6.949219 10.558594 6.945312 10.523438 6.941406 L 9.84375 5.484375 C 9.894531 5.484375 9.945312 5.484375 9.996094 5.484375 C 10.347656 5.484375 10.722656 5.445312 11.105469 5.367188 L 11.796875 6.847656 C 11.386719 6.925781 10.996094 6.964844 10.632812 6.949219 Z M 12.035156 6.792969 L 11.347656 5.3125 C 11.722656 5.21875 12.105469 5.09375 12.488281 4.933594 L 13.179688 6.417969 C 12.796875 6.578125 12.414062 6.703125 12.035156 6.792969 Z M 13.957031 6.035156 C 13.777344 6.140625 13.589844 6.230469 13.398438 6.320312 L 12.703125 4.832031 C 13.078125 4.660156 13.433594 4.464844 13.75 4.253906 L 14.203125 5.21875 C 14.050781 5.464844 13.96875 5.738281 13.957031 6.035156 Z M 14.417969 5.320312 L 14.972656 4.453125 C 14.960938 4.773438 15.027344 5.113281 15.171875 5.464844 L 14.316406 6.796875 C 14.132812 6.257812 14.152344 5.738281 14.417969 5.320312 Z M 14.425781 7.074219 L 15.292969 5.726562 C 15.476562 6.085938 15.730469 6.4375 16.042969 6.757812 L 15.15625 8.136719 C 14.835938 7.792969 14.589844 7.433594 14.425781 7.074219 Z M 14.753906 8.390625 L 15.507812 9.308594 C 15.746094 9.597656 15.777344 10.03125 15.605469 10.546875 L 14.582031 9.304688 C 14.710938 8.96875 14.769531 8.664062 14.753906 8.390625 Z M 8.488281 12.355469 C 8.195312 12.003906 8.214844 11.4375 8.535156 10.765625 C 8.867188 10.066406 9.488281 9.347656 10.277344 8.738281 C 11.066406 8.128906 11.929688 7.703125 12.703125 7.542969 C 12.921875 7.496094 13.128906 7.476562 13.316406 7.476562 C 13.761719 7.476562 14.105469 7.605469 14.308594 7.851562 C 14.601562 8.203125 14.582031 8.769531 14.261719 9.441406 C 14.082031 9.820312 13.816406 10.207031 13.488281 10.574219 L 13.480469 10.582031 C 13.207031 10.894531 12.878906 11.195312 12.523438 11.46875 C 11.734375 12.078125 10.871094 12.503906 10.097656 12.664062 C 9.347656 12.820312 8.777344 12.707031 8.488281 12.355469 Z M 9.6875 13.8125 L 8.929688 12.894531 C 9.09375 12.941406 9.28125 12.964844 9.484375 12.964844 C 9.609375 12.964844 9.746094 12.957031 9.886719 12.9375 L 10.90625 14.179688 C 10.347656 14.230469 9.921875 14.105469 9.6875 13.8125 Z M 11.296875 14.121094 C 11.257812 14.128906 11.222656 14.136719 11.1875 14.140625 L 10.15625 12.890625 C 10.542969 12.808594 10.945312 12.667969 11.351562 12.472656 L 12.398438 13.742188 C 12.019531 13.921875 11.648438 14.046875 11.296875 14.121094 Z M 12.613281 13.636719 L 11.570312 12.363281 C 11.910156 12.1875 12.25 11.972656 12.578125 11.722656 L 13.625 13 C 13.296875 13.246094 12.957031 13.464844 12.613281 13.636719 Z M 13.816406 12.855469 L 12.765625 11.578125 C 13.089844 11.320312 13.378906 11.046875 13.632812 10.765625 L 14.679688 12.039062 C 14.425781 12.324219 14.136719 12.597656 13.816406 12.855469 Z M 13.792969 10.585938 C 14.078125 10.242188 14.308594 9.894531 14.476562 9.546875 L 15.507812 10.800781 C 15.492188 10.832031 15.476562 10.863281 15.464844 10.898438 C 15.308594 11.21875 15.101562 11.539062 14.839844 11.855469 Z M 14.855469 12.558594 L 15.019531 12.007812 C 15.179688 11.816406 15.316406 11.625 15.4375 11.429688 C 15.683594 11.636719 15.960938 11.828125 16.269531 12 L 15.875 13.339844 C 15.476562 13.109375 15.125 12.84375 14.855469 12.558594 Z M 17.207031 13.898438 C 16.808594 13.78125 16.433594 13.632812 16.089844 13.453125 L 16.488281 12.113281 C 16.832031 12.289062 17.210938 12.4375 17.605469 12.554688 Z M 17.4375 13.964844 L 17.839844 12.621094 C 18.238281 12.726562 18.640625 12.792969 19.027344 12.824219 L 18.632812 14.164062 C 18.242188 14.136719 17.839844 14.070312 17.4375 13.964844 Z M 20.050781 14.070312 C 19.691406 14.152344 19.296875 14.1875 18.878906 14.175781 L 19.273438 12.835938 C 19.347656 12.839844 19.425781 12.84375 19.503906 12.84375 C 19.875 12.84375 20.230469 12.804688 20.554688 12.730469 L 20.167969 14.039062 C 20.128906 14.050781 20.089844 14.058594 20.050781 14.070312 Z M 21.464844 13.027344 C 21.347656 13.433594 20.984375 13.757812 20.441406 13.957031 L 20.828125 12.660156 C 21.1875 12.550781 21.488281 12.394531 21.710938 12.199219 Z M 21.929688 11.457031 C 21.785156 11.953125 21.28125 12.324219 20.515625 12.5 C 19.722656 12.683594 18.753906 12.636719 17.789062 12.363281 C 16.910156 12.121094 16.125 11.714844 15.5625 11.222656 C 15.605469 11.148438 15.644531 11.074219 15.679688 11 C 16.039062 10.242188 16.050781 9.589844 15.699219 9.164062 L 14.996094 8.316406 C 15.347656 8.683594 15.765625 9.023438 16.242188 9.3125 C 16.492188 9.460938 16.746094 9.59375 17.003906 9.703125 C 16.929688 9.828125 16.875 9.960938 16.839844 10.105469 C 16.644531 10.867188 17.097656 11.65625 17.867188 11.902344 C 18.027344 11.953125 18.191406 11.980469 18.359375 11.980469 C 18.605469 11.980469 18.855469 11.921875 19.085938 11.800781 C 19.464844 11.605469 19.738281 11.28125 19.855469 10.882812 C 19.929688 10.644531 19.9375 10.390625 19.882812 10.144531 L 19.976562 9.992188 C 20.320312 9.875 20.605469 9.6875 20.816406 9.441406 C 21.691406 10.066406 22.117188 10.832031 21.929688 11.457031 Z M 21.929688 11.457031 " fill-opacity="1" fill-rule="nonzero"/></g><path fill="#a6a6a6" d="M 18.617188 10.414062 L 18.683594 10.1875 L 19.148438 10.316406 L 19.082031 10.542969 Z M 18.617188 10.414062 " fill-opacity="1" fill-rule="nonzero"/><path fill="#a6a6a6" d="M 17.957031 10.957031 L 18.023438 10.734375 L 18.484375 10.863281 L 18.417969 11.085938 Z M 17.957031 10.957031 " fill-opacity="1" fill-rule="nonzero"/><g clip-path="url(#98e82a21c4)"><path fill="#a6a6a6" d="M 23.492188 15.613281 L 6.339844 15.613281 C 6 15.613281 5.726562 15.9375 5.726562 16.339844 C 5.726562 16.738281 6 17.0625 6.339844 17.0625 L 23.492188 17.0625 C 23.828125 17.0625 24.101562 16.738281 24.101562 16.339844 C 24.101562 15.9375 23.828125 15.613281 23.492188 15.613281 Z M 23.492188 15.613281 " fill-opacity="1" fill-rule="nonzero"/></g><g clip-path="url(#30cf489d15)"><path fill="#d9d9d9" d="M 10.085938 21.898438 C 10.136719 21.949219 10.203125 21.976562 10.277344 21.976562 C 10.351562 21.976562 10.414062 21.949219 10.46875 21.898438 L 11.894531 20.503906 L 11.894531 28.210938 C 11.894531 28.28125 11.921875 28.34375 11.972656 28.394531 C 12.023438 28.445312 12.089844 28.46875 12.164062 28.46875 L 13.644531 28.46875 C 13.71875 28.46875 13.78125 28.445312 13.832031 28.394531 C 13.886719 28.34375 13.910156 28.28125 13.910156 28.210938 L 13.910156 20.5 L 15.359375 21.898438 C 15.410156 21.957031 15.472656 21.980469 15.550781 21.976562 C 15.625 21.976562 15.6875 21.949219 15.742188 21.898438 L 16.777344 20.878906 C 16.828125 20.828125 16.851562 20.765625 16.851562 20.695312 C 16.851562 20.625 16.824219 20.5625 16.773438 20.511719 L 13.101562 16.960938 C 13.050781 16.910156 12.988281 16.886719 12.914062 16.886719 C 12.839844 16.886719 12.777344 16.910156 12.722656 16.960938 L 11.667969 17.960938 L 9.03125 20.511719 C 8.980469 20.5625 8.953125 20.625 8.953125 20.695312 C 8.953125 20.769531 8.980469 20.828125 9.03125 20.878906 Z M 10.085938 21.898438 " fill-opacity="1" fill-rule="nonzero"/></g><g clip-path="url(#c2665a5b0b)"><path fill="#a6a6a6" d="M 19.347656 23.429688 C 19.296875 23.378906 19.234375 23.351562 19.160156 23.351562 C 19.082031 23.355469 19.019531 23.378906 18.96875 23.429688 L 17.542969 24.824219 L 17.542969 17.121094 C 17.542969 17.046875 17.515625 16.988281 17.460938 16.9375 C 17.410156 16.886719 17.347656 16.859375 17.273438 16.859375 L 15.792969 16.859375 C 15.71875 16.859375 15.65625 16.886719 15.601562 16.9375 C 15.550781 16.988281 15.523438 17.046875 15.523438 17.121094 L 15.523438 24.832031 L 14.074219 23.429688 C 14.023438 23.375 13.960938 23.347656 13.882812 23.351562 C 13.808594 23.355469 13.746094 23.378906 13.695312 23.429688 L 12.660156 24.453125 C 12.609375 24.503906 12.582031 24.5625 12.582031 24.636719 C 12.582031 24.707031 12.609375 24.765625 12.660156 24.816406 L 16.332031 28.367188 C 16.382812 28.417969 16.449219 28.445312 16.519531 28.445312 C 16.59375 28.445312 16.65625 28.421875 16.710938 28.371094 L 17.765625 27.367188 L 20.402344 24.816406 C 20.457031 24.765625 20.480469 24.707031 20.480469 24.632812 C 20.480469 24.5625 20.457031 24.5 20.402344 24.449219 Z M 19.347656 23.429688 " fill-opacity="1" fill-rule="nonzero"/></g></svg>