<svg xmlns="http://www.w3.org/2000/svg" xmlns:xlink="http://www.w3.org/1999/xlink" width="40" zoomAndPan="magnify" viewBox="0 0 30 30.000001" height="40" preserveAspectRatio="xMidYMid meet" version="1.0"><defs><clipPath id="299171b83e"><path d="M 0.484375 0 L 29.515625 0 L 29.515625 29.03125 L 0.484375 29.03125 Z M 0.484375 0 " clip-rule="nonzero"/></clipPath><clipPath id="c02feae09b"><path d="M 0.484375 1.320312 L 17.902344 1.320312 L 17.902344 12.933594 L 0.484375 12.933594 Z M 0.484375 1.320312 " clip-rule="nonzero"/></clipPath><clipPath id="98c600830c"><path d="M 10.933594 12.730469 L 24 12.730469 L 24 25.792969 L 10.933594 25.792969 Z M 10.933594 12.730469 " clip-rule="nonzero"/></clipPath><clipPath id="217a6182cb"><path d="M 6.476562 5.179688 L 10.46875 5.179688 L 10.46875 10.988281 L 6.476562 10.988281 Z M 6.476562 5.179688 " clip-rule="nonzero"/></clipPath><clipPath id="10e4e5a584"><path d="M 8.277344 5.179688 L 12.269531 5.179688 L 12.269531 10.988281 L 8.277344 10.988281 Z M 8.277344 5.179688 " clip-rule="nonzero"/></clipPath></defs><g clip-path="url(#299171b83e)"><path fill="#ffffff" d="M 0.484375 0 L 29.515625 0 L 29.515625 29.03125 L 0.484375 29.03125 Z M 0.484375 0 " fill-opacity="1" fill-rule="nonzero"/><path fill="#ffffff" d="M 0.484375 0 L 29.515625 0 L 29.515625 29.03125 L 0.484375 29.03125 Z M 0.484375 0 " fill-opacity="1" fill-rule="nonzero"/></g><g clip-path="url(#c02feae09b)"><path fill="#a6a6a6" d="M 14.9375 12.933594 L 3.449219 12.933594 C 1.820312 12.933594 0.496094 11.558594 0.496094 9.863281 C 0.496094 8.292969 1.640625 6.992188 3.105469 6.8125 C 3.226562 4.539062 5.046875 2.726562 7.265625 2.726562 C 7.503906 2.726562 7.746094 2.75 7.988281 2.792969 C 8.894531 1.855469 10.128906 1.320312 11.410156 1.320312 C 12.699219 1.320312 13.914062 1.84375 14.828125 2.796875 C 15.742188 3.746094 16.246094 5.007812 16.246094 6.351562 C 16.246094 6.597656 16.230469 6.84375 16.195312 7.089844 C 17.222656 7.589844 17.890625 8.671875 17.890625 9.863281 C 17.890625 11.558594 16.566406 12.933594 14.9375 12.933594 Z M 3.4375 7.515625 C 2.199219 7.523438 1.191406 8.574219 1.191406 9.863281 C 1.191406 11.160156 2.203125 12.210938 3.449219 12.210938 L 14.9375 12.210938 C 16.183594 12.210938 17.195312 11.160156 17.195312 9.863281 C 17.195312 8.871094 16.589844 7.984375 15.6875 7.652344 C 15.523438 7.59375 15.425781 7.414062 15.464844 7.238281 C 15.519531 6.949219 15.550781 6.648438 15.550781 6.351562 C 15.550781 5.203125 15.121094 4.121094 14.335938 3.308594 C 13.554688 2.492188 12.515625 2.046875 11.410156 2.046875 C 10.253906 2.046875 9.144531 2.550781 8.363281 3.433594 C 8.277344 3.527344 8.152344 3.570312 8.03125 3.539062 C 7.773438 3.480469 7.515625 3.449219 7.265625 3.449219 C 5.351562 3.449219 3.796875 5.066406 3.796875 7.054688 C 3.796875 7.0625 3.796875 7.074219 3.796875 7.085938 C 3.800781 7.105469 3.800781 7.125 3.800781 7.148438 C 3.804688 7.246094 3.769531 7.339844 3.703125 7.410156 C 3.636719 7.476562 3.546875 7.515625 3.453125 7.515625 C 3.449219 7.515625 3.445312 7.515625 3.4375 7.515625 Z M 3.4375 7.515625 " fill-opacity="1" fill-rule="nonzero"/></g><g clip-path="url(#98c600830c)"><path fill="#a6a6a6" d="M 23.945312 16.597656 C 23.914062 16.582031 23.875 16.582031 23.839844 16.601562 L 21.898438 17.820312 L 21.898438 12.851562 C 21.898438 12.792969 21.851562 12.75 21.792969 12.746094 L 13.125 12.730469 C 13.097656 12.730469 13.070312 12.742188 13.050781 12.757812 C 13.03125 12.777344 13.023438 12.804688 13.023438 12.832031 L 13.023438 17.8125 L 11.09375 16.601562 C 11.0625 16.582031 11.023438 16.582031 10.988281 16.597656 C 10.957031 16.617188 10.933594 16.652344 10.933594 16.6875 L 10.933594 21.164062 C 10.933594 21.203125 10.957031 21.238281 10.992188 21.257812 L 13.109375 22.320312 L 13.109375 24.53125 C 13.109375 24.558594 13.117188 24.582031 13.136719 24.601562 C 13.15625 24.621094 13.183594 24.632812 13.210938 24.632812 L 15.097656 24.632812 C 15.128906 24.71875 15.179688 24.792969 15.25 24.851562 C 15.34375 24.929688 15.460938 24.96875 15.582031 24.96875 C 15.632812 24.96875 15.679688 24.960938 15.726562 24.949219 C 15.738281 25.085938 15.800781 25.21875 15.910156 25.3125 C 16.003906 25.386719 16.125 25.429688 16.242188 25.429688 C 16.324219 25.429688 16.398438 25.414062 16.46875 25.378906 C 16.492188 25.492188 16.550781 25.597656 16.644531 25.671875 C 16.738281 25.75 16.855469 25.792969 16.976562 25.792969 C 17.132812 25.792969 17.277344 25.726562 17.375 25.609375 L 17.59375 25.347656 C 17.675781 25.414062 17.808594 25.488281 17.980469 25.488281 C 17.988281 25.488281 18 25.488281 18.011719 25.488281 C 18.199219 25.476562 18.332031 25.378906 18.394531 25.320312 L 18.46875 25.246094 C 18.554688 25.160156 18.605469 25.050781 18.621094 24.933594 C 18.683594 24.960938 18.753906 24.972656 18.820312 24.972656 C 18.96875 24.972656 19.117188 24.914062 19.222656 24.804688 L 19.296875 24.730469 C 19.328125 24.699219 19.351562 24.667969 19.371094 24.632812 L 21.726562 24.632812 C 21.753906 24.632812 21.777344 24.621094 21.796875 24.601562 C 21.816406 24.582031 21.828125 24.558594 21.828125 24.53125 L 21.828125 22.320312 L 23.941406 21.253906 C 23.976562 21.238281 24 21.203125 24 21.164062 L 24 16.6875 C 24 16.652344 23.980469 16.617188 23.945312 16.597656 Z M 13.230469 12.9375 L 21.691406 12.957031 L 21.691406 17.949219 L 19.667969 19.21875 C 19.644531 19.234375 19.628906 19.257812 19.621094 19.285156 C 19.617188 19.316406 19.621094 19.34375 19.636719 19.367188 L 19.753906 19.539062 L 19.523438 19.707031 C 19.433594 19.601562 19.308594 19.527344 19.160156 19.5 L 18.347656 19.355469 C 18.183594 19.328125 18.015625 19.328125 17.851562 19.351562 L 15.460938 19.746094 L 15.179688 19.539062 L 15.296875 19.367188 C 15.3125 19.34375 15.320312 19.316406 15.3125 19.289062 C 15.308594 19.257812 15.292969 19.234375 15.269531 19.21875 L 13.230469 17.941406 Z M 19.9375 23.457031 C 19.910156 23.335938 19.847656 23.226562 19.746094 23.144531 C 19.460938 22.917969 19.144531 22.65625 18.832031 22.398438 C 18.597656 22.210938 18.367188 22.019531 18.148438 21.84375 C 18.183594 21.84375 18.21875 21.84375 18.253906 21.84375 C 18.394531 21.84375 18.535156 21.835938 18.671875 21.8125 C 19 21.757812 19.3125 21.644531 19.597656 21.472656 C 19.648438 21.441406 19.664062 21.378906 19.632812 21.328125 C 19.605469 21.28125 19.539062 21.261719 19.492188 21.292969 C 19.226562 21.453125 18.941406 21.558594 18.640625 21.605469 C 18.339844 21.65625 18.035156 21.648438 17.734375 21.582031 C 17.730469 21.582031 17.730469 21.582031 17.730469 21.582031 C 17.6875 21.566406 17.644531 21.554688 17.601562 21.550781 C 17.417969 21.515625 17.234375 21.542969 17.0625 21.621094 C 16.988281 21.65625 16.921875 21.6875 16.859375 21.714844 L 16.839844 21.722656 C 16.332031 21.941406 16.171875 21.933594 16.105469 21.933594 C 15.835938 21.925781 15.679688 21.875 15.640625 21.78125 C 15.617188 21.71875 15.640625 21.625 15.703125 21.535156 C 15.746094 21.472656 15.8125 21.414062 15.898438 21.367188 L 17.484375 20.488281 L 17.988281 20.445312 C 18.625 20.660156 19.132812 20.570312 19.394531 20.414062 C 19.496094 20.355469 19.570312 20.28125 19.613281 20.195312 L 21.039062 22.253906 C 20.902344 22.457031 20.746094 22.652344 20.578125 22.839844 C 20.382812 23.058594 20.164062 23.265625 19.9375 23.457031 Z M 13.742188 22.109375 L 13.539062 21.957031 L 15.066406 19.710938 L 15.292969 19.878906 Z M 13.316406 22.285156 L 13.421875 22.128906 L 13.695312 22.332031 C 13.867188 22.550781 14.054688 22.769531 14.246094 22.980469 C 14.394531 23.136719 14.546875 23.292969 14.707031 23.441406 L 14.550781 23.628906 C 14.464844 23.734375 14.421875 23.867188 14.433594 24.003906 C 14.445312 24.140625 14.511719 24.265625 14.617188 24.355469 C 14.652344 24.386719 14.691406 24.40625 14.734375 24.425781 L 13.316406 24.425781 Z M 15.5 23.765625 C 15.488281 23.792969 15.472656 23.820312 15.453125 23.839844 L 15.191406 24.15625 C 15.171875 24.175781 15.160156 24.191406 15.144531 24.199219 C 15.140625 24.203125 15.136719 24.207031 15.132812 24.210938 C 15.023438 24.289062 14.855469 24.285156 14.75 24.195312 C 14.6875 24.144531 14.648438 24.070312 14.640625 23.988281 C 14.632812 23.902344 14.660156 23.824219 14.710938 23.761719 L 14.921875 23.507812 C 14.925781 23.507812 14.925781 23.507812 14.925781 23.507812 C 14.925781 23.507812 14.925781 23.503906 14.925781 23.503906 L 14.976562 23.445312 C 15.035156 23.371094 15.125 23.332031 15.214844 23.332031 C 15.289062 23.332031 15.359375 23.359375 15.414062 23.40625 C 15.523438 23.492188 15.554688 23.644531 15.5 23.765625 Z M 15.382812 24.691406 C 15.328125 24.644531 15.289062 24.582031 15.277344 24.511719 C 15.265625 24.453125 15.273438 24.398438 15.292969 24.34375 C 15.3125 24.332031 15.328125 24.3125 15.347656 24.289062 L 15.613281 23.972656 C 15.636719 23.945312 15.65625 23.914062 15.671875 23.882812 C 15.78125 23.808594 15.945312 23.8125 16.050781 23.898438 C 16.152344 23.984375 16.1875 24.125 16.140625 24.25 C 16.128906 24.28125 16.109375 24.308594 16.089844 24.335938 L 15.824219 24.648438 C 15.8125 24.664062 15.800781 24.675781 15.789062 24.6875 C 15.675781 24.785156 15.496094 24.785156 15.382812 24.691406 Z M 16.042969 25.152344 C 15.945312 25.070312 15.910156 24.9375 15.949219 24.820312 C 15.960938 24.808594 15.96875 24.796875 15.980469 24.785156 L 16.246094 24.46875 C 16.277344 24.433594 16.300781 24.394531 16.316406 24.355469 C 16.425781 24.269531 16.597656 24.269531 16.707031 24.359375 C 16.804688 24.4375 16.84375 24.566406 16.808594 24.683594 C 16.808594 24.6875 16.808594 24.6875 16.804688 24.6875 C 16.792969 24.726562 16.773438 24.765625 16.75 24.796875 L 16.5 25.089844 C 16.5 25.089844 16.5 25.089844 16.5 25.09375 L 16.480469 25.113281 C 16.375 25.238281 16.171875 25.257812 16.042969 25.152344 Z M 17.214844 25.476562 C 17.109375 25.601562 16.90625 25.621094 16.777344 25.515625 C 16.6875 25.4375 16.648438 25.316406 16.675781 25.203125 L 16.90625 24.929688 C 16.945312 24.882812 16.972656 24.828125 16.992188 24.773438 L 17.003906 24.761719 C 17.109375 24.636719 17.316406 24.617188 17.441406 24.722656 C 17.566406 24.824219 17.589844 25.003906 17.496094 25.140625 C 17.492188 25.144531 17.488281 25.148438 17.484375 25.15625 Z M 19.078125 24.660156 C 18.945312 24.792969 18.722656 24.800781 18.578125 24.667969 C 18.574219 24.667969 18.570312 24.664062 18.570312 24.664062 L 17.058594 23.269531 C 17.019531 23.230469 16.953125 23.234375 16.914062 23.277344 C 16.875 23.316406 16.878906 23.382812 16.917969 23.421875 L 18.410156 24.796875 C 18.433594 24.90625 18.398438 25.019531 18.320312 25.101562 L 18.25 25.171875 C 18.21875 25.203125 18.128906 25.273438 18 25.28125 C 17.871094 25.289062 17.769531 25.226562 17.714844 25.175781 C 17.808594 24.96875 17.757812 24.714844 17.574219 24.5625 C 17.480469 24.484375 17.367188 24.445312 17.242188 24.445312 C 17.164062 24.445312 17.085938 24.460938 17.015625 24.496094 C 16.992188 24.382812 16.933594 24.277344 16.839844 24.199219 C 16.710938 24.09375 16.527344 24.0625 16.367188 24.105469 C 16.359375 23.96875 16.292969 23.832031 16.183594 23.738281 C 16.058594 23.636719 15.886719 23.605469 15.734375 23.636719 C 15.730469 23.492188 15.667969 23.34375 15.546875 23.246094 C 15.453125 23.167969 15.335938 23.125 15.214844 23.125 C 15.074219 23.125 14.941406 23.183594 14.839844 23.285156 C 14.691406 23.140625 14.542969 22.992188 14.398438 22.839844 C 14.222656 22.648438 14.054688 22.449219 13.898438 22.25 L 15.496094 19.949219 L 17.886719 19.558594 C 18.027344 19.535156 18.171875 19.535156 18.3125 19.5625 L 19.121094 19.703125 C 19.25 19.730469 19.355469 19.800781 19.410156 19.902344 C 19.410156 19.910156 19.414062 19.914062 19.417969 19.917969 C 19.417969 19.917969 19.414062 19.914062 19.414062 19.914062 C 19.441406 19.96875 19.449219 20.015625 19.441406 20.054688 C 19.433594 20.121094 19.375 20.183594 19.289062 20.238281 C 19.074219 20.363281 18.617188 20.441406 18.035156 20.242188 C 18.019531 20.238281 18.003906 20.234375 17.992188 20.234375 L 17.441406 20.285156 C 17.429688 20.285156 17.414062 20.292969 17.402344 20.296875 L 15.796875 21.183594 C 15.683594 21.25 15.59375 21.328125 15.53125 21.417969 C 15.429688 21.570312 15.398438 21.730469 15.449219 21.855469 C 15.554688 22.128906 15.949219 22.136719 16.097656 22.140625 C 16.105469 22.140625 16.117188 22.140625 16.125 22.140625 C 16.261719 22.140625 16.46875 22.109375 16.921875 21.914062 L 16.945312 21.902344 C 17.003906 21.875 17.074219 21.847656 17.152344 21.808594 C 17.28125 21.75 17.421875 21.730469 17.566406 21.753906 C 17.601562 21.761719 17.636719 21.773438 17.679688 21.78125 C 17.753906 21.808594 17.824219 21.847656 17.882812 21.894531 C 18.136719 22.097656 18.417969 22.328125 18.699219 22.558594 C 19.015625 22.820312 19.332031 23.078125 19.617188 23.308594 C 19.71875 23.390625 19.765625 23.519531 19.734375 23.648438 C 19.71875 23.722656 19.679688 23.785156 19.617188 23.839844 C 19.542969 23.917969 19.414062 23.980469 19.328125 23.996094 C 19.3125 23.976562 19.292969 23.957031 19.277344 23.941406 L 17.839844 22.617188 C 17.796875 22.578125 17.730469 22.578125 17.691406 22.621094 C 17.652344 22.664062 17.65625 22.730469 17.699219 22.769531 L 19.136719 24.097656 C 19.15625 24.113281 19.175781 24.136719 19.195312 24.164062 C 19.257812 24.257812 19.265625 24.382812 19.21875 24.488281 C 19.203125 24.523438 19.179688 24.554688 19.152344 24.585938 Z M 19.449219 24.425781 C 19.460938 24.347656 19.453125 24.265625 19.429688 24.1875 C 19.554688 24.148438 19.679688 24.070312 19.757812 23.992188 C 19.839844 23.921875 19.894531 23.832031 19.925781 23.730469 C 20.214844 23.503906 20.488281 23.253906 20.734375 22.976562 C 20.917969 22.769531 21.089844 22.550781 21.242188 22.328125 L 21.511719 22.128906 L 21.621094 22.285156 L 21.621094 24.425781 Z M 23.792969 21.097656 L 21.757812 22.121094 L 19.867188 19.339844 L 23.792969 16.875 Z M 23.792969 21.097656 " fill-opacity="1" fill-rule="nonzero"/></g><path fill="#a6a6a6" d="M 16.972656 14.414062 L 19.691406 14.414062 C 19.75 14.414062 19.796875 14.367188 19.796875 14.3125 C 19.796875 14.253906 19.75 14.207031 19.691406 14.207031 L 16.972656 14.207031 C 16.914062 14.207031 16.871094 14.253906 16.871094 14.3125 C 16.871094 14.367188 16.914062 14.414062 16.972656 14.414062 Z M 16.972656 14.414062 " fill-opacity="1" fill-rule="nonzero"/><path fill="#a6a6a6" d="M 16.601562 15.277344 L 20.3125 15.277344 C 20.367188 15.277344 20.414062 15.230469 20.414062 15.171875 C 20.414062 15.113281 20.367188 15.070312 20.3125 15.070312 L 16.601562 15.070312 C 16.542969 15.070312 16.5 15.113281 16.5 15.171875 C 16.5 15.230469 16.542969 15.277344 16.601562 15.277344 Z M 16.601562 15.277344 " fill-opacity="1" fill-rule="nonzero"/><path fill="#a6a6a6" d="M 14.746094 16.792969 C 14.691406 16.792969 14.644531 16.839844 14.644531 16.898438 C 14.644531 16.953125 14.691406 17 14.746094 17 L 20.1875 17 C 20.246094 17 20.292969 16.953125 20.292969 16.898438 C 20.292969 16.839844 20.246094 16.792969 20.1875 16.792969 Z M 14.746094 16.792969 " fill-opacity="1" fill-rule="nonzero"/><path fill="#a6a6a6" d="M 20.292969 17.882812 C 20.292969 17.824219 20.246094 17.777344 20.1875 17.777344 L 14.5 17.777344 C 14.441406 17.777344 14.398438 17.824219 14.398438 17.882812 C 14.398438 17.9375 14.441406 17.984375 14.5 17.984375 L 20.1875 17.984375 C 20.246094 17.984375 20.292969 17.9375 20.292969 17.882812 Z M 20.292969 17.882812 " fill-opacity="1" fill-rule="nonzero"/><path fill="#a6a6a6" d="M 19.199219 18.640625 L 16.230469 18.640625 C 16.175781 18.640625 16.128906 18.6875 16.128906 18.742188 C 16.128906 18.800781 16.175781 18.847656 16.230469 18.847656 L 19.199219 18.847656 C 19.253906 18.847656 19.300781 18.800781 19.300781 18.742188 C 19.300781 18.6875 19.253906 18.640625 19.199219 18.640625 Z M 19.199219 18.640625 " fill-opacity="1" fill-rule="nonzero"/><path fill="#a6a6a6" d="M 14.507812 15.632812 L 14.648438 15.863281 C 14.695312 15.941406 14.777344 15.988281 14.871094 15.988281 C 14.964844 15.988281 15.046875 15.941406 15.097656 15.863281 L 15.234375 15.636719 C 15.246094 15.613281 15.269531 15.605469 15.292969 15.609375 L 15.550781 15.675781 C 15.644531 15.695312 15.734375 15.671875 15.800781 15.605469 C 15.867188 15.539062 15.890625 15.449219 15.871094 15.355469 L 15.804688 15.097656 C 15.800781 15.078125 15.808594 15.050781 15.832031 15.039062 L 16.058594 14.902344 C 16.140625 14.855469 16.1875 14.773438 16.1875 14.679688 C 16.1875 14.585938 16.140625 14.503906 16.058594 14.457031 L 15.828125 14.320312 C 15.808594 14.304688 15.800781 14.28125 15.804688 14.261719 L 15.871094 14.003906 C 15.890625 13.914062 15.867188 13.820312 15.800781 13.753906 C 15.734375 13.6875 15.644531 13.664062 15.550781 13.683594 L 15.292969 13.75 C 15.269531 13.753906 15.246094 13.746094 15.234375 13.726562 L 15.097656 13.496094 C 15.046875 13.417969 14.964844 13.371094 14.871094 13.371094 C 14.777344 13.371094 14.695312 13.417969 14.648438 13.496094 L 14.511719 13.722656 C 14.496094 13.746094 14.472656 13.753906 14.449219 13.75 L 14.191406 13.683594 C 14.101562 13.664062 14.007812 13.6875 13.941406 13.753906 C 13.875 13.820312 13.851562 13.914062 13.871094 14.003906 L 13.9375 14.257812 C 13.945312 14.28125 13.933594 14.308594 13.914062 14.320312 C 13.835938 14.363281 13.761719 14.410156 13.683594 14.457031 C 13.605469 14.503906 13.558594 14.585938 13.558594 14.679688 C 13.558594 14.773438 13.605469 14.855469 13.683594 14.902344 C 13.761719 14.949219 13.835938 14.996094 13.914062 15.039062 C 13.933594 15.050781 13.945312 15.078125 13.9375 15.097656 L 13.871094 15.355469 C 13.851562 15.445312 13.875 15.539062 13.941406 15.605469 C 14.007812 15.671875 14.101562 15.695312 14.191406 15.675781 L 14.449219 15.609375 C 14.472656 15.605469 14.496094 15.613281 14.507812 15.632812 Z M 14.140625 15.472656 C 14.113281 15.480469 14.09375 15.464844 14.089844 15.457031 C 14.082031 15.449219 14.066406 15.433594 14.074219 15.40625 L 14.140625 15.148438 C 14.167969 15.039062 14.121094 14.921875 14.019531 14.863281 C 13.945312 14.816406 13.867188 14.769531 13.789062 14.726562 C 13.765625 14.710938 13.765625 14.6875 13.765625 14.679688 C 13.765625 14.671875 13.765625 14.648438 13.789062 14.632812 C 13.867188 14.589844 13.945312 14.542969 14.019531 14.496094 C 14.117188 14.4375 14.167969 14.324219 14.140625 14.210938 L 14.074219 13.953125 C 14.066406 13.925781 14.082031 13.90625 14.089844 13.902344 C 14.09375 13.894531 14.113281 13.878906 14.140625 13.886719 L 14.398438 13.949219 C 14.511719 13.976562 14.625 13.929688 14.6875 13.832031 L 14.824219 13.605469 C 14.839844 13.582031 14.863281 13.578125 14.871094 13.578125 C 14.878906 13.582031 14.902344 13.582031 14.917969 13.605469 L 15.054688 13.832031 C 15.117188 13.929688 15.230469 13.980469 15.34375 13.949219 L 15.601562 13.886719 C 15.628906 13.878906 15.648438 13.894531 15.65625 13.902344 C 15.660156 13.90625 15.675781 13.925781 15.667969 13.953125 L 15.601562 14.210938 C 15.574219 14.324219 15.625 14.4375 15.722656 14.496094 L 15.953125 14.632812 C 15.976562 14.648438 15.980469 14.667969 15.980469 14.679688 C 15.980469 14.691406 15.976562 14.710938 15.953125 14.726562 L 15.722656 14.863281 C 15.625 14.921875 15.574219 15.039062 15.601562 15.148438 L 15.667969 15.40625 C 15.675781 15.433594 15.664062 15.449219 15.65625 15.457031 C 15.648438 15.464844 15.628906 15.480469 15.601562 15.472656 L 15.34375 15.410156 C 15.230469 15.378906 15.117188 15.429688 15.054688 15.527344 L 14.917969 15.757812 C 14.902344 15.78125 14.882812 15.78125 14.871094 15.78125 C 14.867188 15.785156 14.839844 15.78125 14.824219 15.757812 L 14.6875 15.527344 C 14.636719 15.445312 14.554688 15.402344 14.464844 15.402344 C 14.441406 15.402344 14.421875 15.402344 14.398438 15.410156 Z M 14.140625 15.472656 " fill-opacity="1" fill-rule="nonzero"/><g clip-path="url(#217a6182cb)"><path fill="#d9d9d9" d="M 7.054688 7.703125 C 7.082031 7.726562 7.113281 7.738281 7.152344 7.738281 C 7.1875 7.738281 7.222656 7.726562 7.246094 7.703125 L 7.960938 7.003906 L 7.960938 10.855469 C 7.960938 10.945312 8.003906 10.988281 8.09375 10.988281 L 8.835938 10.988281 C 8.925781 10.988281 8.96875 10.945312 8.96875 10.855469 L 8.96875 7 L 9.691406 7.703125 C 9.71875 7.730469 9.75 7.742188 9.789062 7.738281 C 9.824219 7.738281 9.859375 7.726562 9.882812 7.699219 L 10.402344 7.191406 C 10.464844 7.128906 10.464844 7.070312 10.398438 7.007812 L 8.566406 5.234375 C 8.503906 5.171875 8.4375 5.171875 8.375 5.230469 L 7.847656 5.734375 L 6.527344 7.007812 C 6.464844 7.070312 6.464844 7.128906 6.527344 7.191406 Z M 7.054688 7.703125 " fill-opacity="1" fill-rule="nonzero"/></g><g clip-path="url(#10e4e5a584)"><path fill="#a6a6a6" d="M 11.6875 8.464844 C 11.660156 8.441406 11.628906 8.429688 11.59375 8.429688 C 11.554688 8.429688 11.523438 8.441406 11.496094 8.46875 L 10.785156 9.164062 L 10.785156 5.3125 C 10.785156 5.226562 10.738281 5.179688 10.648438 5.179688 L 9.910156 5.179688 C 9.820312 5.179688 9.773438 5.226562 9.773438 5.3125 L 9.773438 9.167969 L 9.050781 8.464844 C 9.027344 8.4375 8.992188 8.425781 8.957031 8.429688 C 8.917969 8.429688 8.886719 8.441406 8.859375 8.46875 L 8.34375 8.976562 C 8.28125 9.039062 8.28125 9.101562 8.34375 9.160156 L 10.179688 10.9375 C 10.242188 10.996094 10.304688 10.996094 10.367188 10.9375 L 10.898438 10.433594 L 12.214844 9.160156 C 12.277344 9.097656 12.277344 9.039062 12.214844 8.976562 Z M 11.6875 8.464844 " fill-opacity="1" fill-rule="nonzero"/></g></svg>