<svg xmlns="http://www.w3.org/2000/svg" xmlns:xlink="http://www.w3.org/1999/xlink" width="40" zoomAndPan="magnify" viewBox="0 0 30 30.000001" height="40" preserveAspectRatio="xMidYMid meet" version="1.0"><defs><clipPath id="2a3e1e0baf"><path d="M 0.484375 0 L 29.515625 0 L 29.515625 29.03125 L 0.484375 29.03125 Z M 0.484375 0 " clip-rule="nonzero"/></clipPath><clipPath id="8b72d66ccd"><path d="M 5.226562 4.742188 L 24.824219 4.742188 L 24.824219 24.339844 L 5.226562 24.339844 Z M 5.226562 4.742188 " clip-rule="nonzero"/></clipPath></defs><g clip-path="url(#2a3e1e0baf)"><path fill="#ffffff" d="M 0.484375 0 L 29.515625 0 L 29.515625 174.195312 L 0.484375 174.195312 Z M 0.484375 0 " fill-opacity="1" fill-rule="nonzero"/><path fill="#ffffff" d="M 0.484375 0 L 29.515625 0 L 29.515625 29.03125 L 0.484375 29.03125 Z M 0.484375 0 " fill-opacity="1" fill-rule="nonzero"/><path fill="#ffffff" d="M 0.484375 0 L 29.515625 0 L 29.515625 29.03125 L 0.484375 29.03125 Z M 0.484375 0 " fill-opacity="1" fill-rule="nonzero"/></g><g clip-path="url(#8b72d66ccd)"><path fill="#a6a6a6" d="M 14.378906 4.742188 C 9.328125 4.742188 5.226562 8.847656 5.226562 13.894531 C 5.226562 18.945312 9.328125 23.050781 14.378906 23.050781 C 15.234375 23.050781 16.074219 22.925781 16.875 22.699219 L 16.875 21.09375 C 16.253906 21.695312 15.546875 22.078125 14.796875 22.183594 L 14.796875 18.886719 L 16.875 18.886719 L 16.875 18.054688 L 14.796875 18.054688 L 14.796875 14.3125 L 16.875 14.3125 L 16.875 13.480469 L 14.796875 13.480469 L 14.796875 9.734375 L 18.695312 9.734375 C 19.066406 10.808594 19.300781 12.03125 19.355469 13.339844 L 19.789062 13.746094 L 20.199219 14.128906 L 20.394531 14.3125 L 22.6875 14.3125 C 22.652344 14.945312 22.554688 15.570312 22.378906 16.175781 L 23.054688 16.804688 C 23.367188 15.875 23.53125 14.898438 23.53125 13.894531 C 23.53125 8.847656 19.429688 4.742188 14.378906 4.742188 Z M 13.964844 5.609375 L 13.964844 8.902344 L 10.402344 8.902344 C 10.558594 8.558594 10.722656 8.234375 10.90625 7.9375 C 11.738281 6.597656 12.808594 5.769531 13.964844 5.609375 Z M 14.796875 5.609375 C 16.253906 5.808594 17.53125 7.058594 18.363281 8.902344 L 14.796875 8.902344 Z M 17.5 6.179688 C 18.914062 6.75 20.128906 7.703125 21.03125 8.902344 L 19.253906 8.902344 C 18.800781 7.808594 18.199219 6.878906 17.5 6.179688 Z M 11.226562 6.195312 C 10.851562 6.574219 10.503906 7.007812 10.199219 7.5 C 9.933594 7.929688 9.695312 8.402344 9.492188 8.902344 L 7.730469 8.902344 C 8.625 7.710938 9.828125 6.765625 11.226562 6.195312 Z M 7.179688 9.734375 L 9.1875 9.734375 C 8.820312 10.871094 8.605469 12.136719 8.566406 13.480469 L 6.066406 13.480469 C 6.136719 12.117188 6.535156 10.847656 7.179688 9.734375 Z M 10.066406 9.734375 L 13.964844 9.734375 L 13.964844 13.480469 L 9.398438 13.480469 C 9.441406 12.117188 9.675781 10.84375 10.066406 9.734375 Z M 19.5625 9.734375 L 21.585938 9.734375 C 22.230469 10.847656 22.621094 12.117188 22.6875 13.480469 L 20.191406 13.480469 C 20.152344 12.136719 19.929688 10.867188 19.5625 9.734375 Z M 6.066406 14.3125 L 8.566406 14.3125 C 8.605469 15.652344 8.820312 16.921875 9.1875 18.054688 L 7.179688 18.054688 C 6.535156 16.945312 6.136719 15.671875 6.066406 14.3125 Z M 9.398438 14.3125 L 13.964844 14.3125 L 13.964844 18.054688 L 10.066406 18.054688 C 9.675781 16.949219 9.441406 15.671875 9.398438 14.3125 Z M 18.519531 14.3125 C 18.300781 14.324219 18.125 14.503906 18.125 14.726562 L 18.125 22.738281 C 18.125 22.90625 18.226562 23.058594 18.378906 23.121094 C 18.535156 23.183594 18.714844 23.148438 18.835938 23.03125 L 20.085938 21.777344 L 21.132812 24.054688 C 21.226562 24.261719 21.476562 24.355469 21.683594 24.257812 L 23.289062 23.523438 C 23.5 23.425781 23.589844 23.179688 23.492188 22.972656 L 22.410156 20.605469 L 24.363281 20.605469 C 24.535156 20.605469 24.691406 20.5 24.75 20.339844 C 24.816406 20.183594 24.773438 20 24.648438 19.882812 L 18.824219 14.421875 C 18.742188 14.347656 18.632812 14.304688 18.519531 14.3125 Z M 18.957031 15.6875 L 23.3125 19.773438 L 21.816406 19.773438 C 21.75 19.773438 21.6875 19.785156 21.628906 19.816406 L 21.585938 19.839844 C 21.386719 19.941406 21.300781 20.179688 21.394531 20.382812 L 22.5625 22.9375 L 21.714844 23.328125 L 20.59375 20.886719 C 20.539062 20.761719 20.421875 20.675781 20.289062 20.648438 C 20.15625 20.625 20.019531 20.667969 19.921875 20.765625 L 18.957031 21.734375 Z M 7.730469 18.886719 L 9.492188 18.886719 C 9.695312 19.390625 9.933594 19.863281 10.199219 20.292969 C 10.503906 20.785156 10.851562 21.21875 11.226562 21.597656 C 9.828125 21.023438 8.625 20.078125 7.730469 18.886719 Z M 10.402344 18.886719 L 13.964844 18.886719 L 13.964844 22.183594 C 12.808594 22.019531 11.738281 21.195312 10.90625 19.855469 C 10.722656 19.558594 10.558594 19.230469 10.402344 18.886719 Z M 10.402344 18.886719 " fill-opacity="1" fill-rule="nonzero"/></g></svg>