<svg xmlns="http://www.w3.org/2000/svg" xmlns:xlink="http://www.w3.org/1999/xlink" width="40" zoomAndPan="magnify" viewBox="0 0 30 30.000001" height="40" preserveAspectRatio="xMidYMid meet" version="1.0"><defs><clipPath id="24d3c7db2b"><path d="M 0.484375 0 L 29.515625 0 L 29.515625 29.03125 L 0.484375 29.03125 Z M 0.484375 0 " clip-rule="nonzero"/></clipPath><clipPath id="c67b7ee6ca"><path d="M 10 4.066406 L 20 4.066406 L 20 9 L 10 9 Z M 10 4.066406 " clip-rule="nonzero"/></clipPath><clipPath id="8f210d0d71"><path d="M 21 20 L 25.449219 20 L 25.449219 25.113281 L 21 25.113281 Z M 21 20 " clip-rule="nonzero"/></clipPath><clipPath id="ad578c1a9f"><path d="M 12 20 L 18 20 L 18 25.113281 L 12 25.113281 Z M 12 20 " clip-rule="nonzero"/></clipPath><clipPath id="e92ddb13c0"><path d="M 4.402344 20 L 9 20 L 9 25.113281 L 4.402344 25.113281 Z M 4.402344 20 " clip-rule="nonzero"/></clipPath></defs><g clip-path="url(#24d3c7db2b)"><path fill="#ffffff" d="M 0.484375 0 L 29.515625 0 L 29.515625 29.03125 L 0.484375 29.03125 Z M 0.484375 0 " fill-opacity="1" fill-rule="nonzero"/><path fill="#000000" d="M 0.484375 0 L 29.515625 0 L 29.515625 29.03125 L 0.484375 29.03125 Z M 0.484375 0 " fill-opacity="1" fill-rule="nonzero"/></g><path fill="#ffffff" d="M 17.03125 15.289062 L 17.03125 13.886719 L 20.539062 13.886719 C 21.003906 13.886719 21.449219 13.976562 21.878906 14.15625 C 22.308594 14.332031 22.6875 14.585938 23.015625 14.914062 C 23.347656 15.246094 23.601562 15.625 23.777344 16.054688 C 23.957031 16.484375 24.046875 16.929688 24.046875 17.394531 L 24.046875 21.605469 L 22.644531 21.605469 L 22.644531 17.394531 C 22.640625 17.117188 22.589844 16.847656 22.480469 16.589844 C 22.375 16.332031 22.222656 16.105469 22.027344 15.90625 C 21.828125 15.710938 21.601562 15.558594 21.34375 15.453125 C 21.085938 15.34375 20.816406 15.289062 20.539062 15.289062 Z M 17.03125 15.289062 " fill-opacity="1" fill-rule="nonzero"/><path fill="#ffffff" d="M 5.585938 21.605469 L 5.585938 17.394531 C 5.585938 16.929688 5.675781 16.484375 5.851562 16.054688 C 6.03125 15.625 6.285156 15.246094 6.613281 14.914062 C 6.941406 14.585938 7.320312 14.332031 7.75 14.15625 C 8.179688 13.976562 8.628906 13.886719 9.09375 13.886719 L 12.820312 13.886719 L 12.820312 15.289062 L 9.09375 15.289062 C 8.8125 15.289062 8.546875 15.34375 8.289062 15.453125 C 8.03125 15.558594 7.800781 15.710938 7.605469 15.90625 C 7.40625 16.105469 7.253906 16.332031 7.148438 16.589844 C 7.042969 16.847656 6.988281 17.117188 6.988281 17.394531 L 6.988281 21.605469 Z M 5.585938 21.605469 " fill-opacity="1" fill-rule="nonzero"/><path fill="#ffffff" d="M 15.625 8.273438 L 15.625 12.484375 L 14.222656 12.484375 L 14.222656 8.273438 Z M 15.625 8.273438 " fill-opacity="1" fill-rule="nonzero"/><path fill="#ffffff" d="M 15.625 16.695312 L 15.625 21.605469 L 14.222656 21.605469 L 14.222656 16.695312 Z M 15.625 16.695312 " fill-opacity="1" fill-rule="nonzero"/><g clip-path="url(#c67b7ee6ca)"><path fill="#ffffff" d="M 19.136719 4.765625 L 19.136719 8.273438 C 19.136719 8.46875 19.066406 8.632812 18.929688 8.769531 C 18.792969 8.90625 18.625 8.976562 18.433594 8.976562 L 11.417969 8.976562 C 11.222656 8.976562 11.058594 8.90625 10.921875 8.769531 C 10.785156 8.632812 10.714844 8.46875 10.714844 8.273438 L 10.714844 4.765625 C 10.714844 4.574219 10.785156 4.40625 10.921875 4.269531 C 11.058594 4.132812 11.222656 4.066406 11.417969 4.066406 L 18.433594 4.066406 C 18.625 4.066406 18.792969 4.132812 18.929688 4.269531 C 19.066406 4.40625 19.136719 4.574219 19.136719 4.765625 Z M 19.136719 4.765625 " fill-opacity="1" fill-rule="nonzero"/></g><path fill="#ffffff" d="M 14.925781 17.394531 C 14.554688 17.394531 14.195312 17.324219 13.851562 17.183594 C 13.507812 17.039062 13.203125 16.835938 12.941406 16.574219 C 12.675781 16.308594 12.476562 16.007812 12.332031 15.664062 C 12.191406 15.320312 12.117188 14.960938 12.117188 14.589844 C 12.117188 14.214844 12.191406 13.859375 12.332031 13.515625 C 12.476562 13.171875 12.675781 12.867188 12.941406 12.605469 C 13.203125 12.339844 13.507812 12.136719 13.851562 11.996094 C 14.195312 11.851562 14.554688 11.78125 14.925781 11.78125 C 15.296875 11.78125 15.65625 11.851562 16 11.996094 C 16.34375 12.136719 16.648438 12.339844 16.910156 12.605469 C 17.171875 12.867188 17.375 13.171875 17.519531 13.515625 C 17.660156 13.859375 17.730469 14.214844 17.730469 14.589844 C 17.730469 14.960938 17.660156 15.320312 17.519531 15.664062 C 17.375 16.007812 17.171875 16.308594 16.910156 16.574219 C 16.648438 16.835938 16.34375 17.039062 16 17.183594 C 15.65625 17.324219 15.296875 17.394531 14.925781 17.394531 Z M 14.925781 17.394531 " fill-opacity="1" fill-rule="nonzero"/><g clip-path="url(#8f210d0d71)"><path fill="#ffffff" d="M 25.449219 21.605469 L 25.449219 24.410156 C 25.449219 24.605469 25.378906 24.769531 25.242188 24.90625 C 25.105469 25.042969 24.941406 25.113281 24.746094 25.113281 L 21.941406 25.113281 C 21.746094 25.113281 21.582031 25.042969 21.445312 24.90625 C 21.308594 24.769531 21.238281 24.605469 21.238281 24.410156 L 21.238281 21.605469 C 21.238281 21.410156 21.308594 21.246094 21.445312 21.109375 C 21.582031 20.972656 21.746094 20.902344 21.941406 20.902344 L 24.746094 20.902344 C 24.941406 20.902344 25.105469 20.972656 25.242188 21.109375 C 25.378906 21.246094 25.449219 21.410156 25.449219 21.605469 Z M 25.449219 21.605469 " fill-opacity="1" fill-rule="nonzero"/></g><g clip-path="url(#ad578c1a9f)"><path fill="#ffffff" d="M 17.03125 21.605469 L 17.03125 24.410156 C 17.03125 24.605469 16.960938 24.769531 16.824219 24.90625 C 16.6875 25.042969 16.523438 25.113281 16.328125 25.113281 L 13.523438 25.113281 C 13.328125 25.113281 13.164062 25.042969 13.027344 24.90625 C 12.890625 24.769531 12.820312 24.605469 12.820312 24.410156 L 12.820312 21.605469 C 12.820312 21.410156 12.890625 21.246094 13.027344 21.109375 C 13.164062 20.972656 13.328125 20.902344 13.523438 20.902344 L 16.328125 20.902344 C 16.523438 20.902344 16.6875 20.972656 16.824219 21.109375 C 16.960938 21.246094 17.03125 21.410156 17.03125 21.605469 Z M 17.03125 21.605469 " fill-opacity="1" fill-rule="nonzero"/></g><g clip-path="url(#e92ddb13c0)"><path fill="#ffffff" d="M 8.609375 21.605469 L 8.609375 24.410156 C 8.609375 24.605469 8.542969 24.769531 8.40625 24.90625 C 8.269531 25.042969 8.101562 25.113281 7.910156 25.113281 L 5.101562 25.113281 C 4.910156 25.113281 4.742188 25.042969 4.605469 24.90625 C 4.46875 24.769531 4.402344 24.605469 4.402344 24.410156 L 4.402344 21.605469 C 4.402344 21.410156 4.46875 21.246094 4.605469 21.109375 C 4.742188 20.972656 4.910156 20.902344 5.101562 20.902344 L 7.910156 20.902344 C 8.101562 20.902344 8.269531 20.972656 8.40625 21.109375 C 8.542969 21.246094 8.609375 21.410156 8.609375 21.605469 Z M 8.609375 21.605469 " fill-opacity="1" fill-rule="nonzero"/></g></svg>