<svg xmlns="http://www.w3.org/2000/svg" xmlns:xlink="http://www.w3.org/1999/xlink" width="40" zoomAndPan="magnify" viewBox="0 0 30 30.000001" height="40" preserveAspectRatio="xMidYMid meet" version="1.0"><defs><clipPath id="b9d9a18f8d"><path d="M 0.484375 0 L 29.515625 0 L 29.515625 29.03125 L 0.484375 29.03125 Z M 0.484375 0 " clip-rule="nonzero"/></clipPath><clipPath id="dd03371590"><path d="M 4.332031 4.855469 L 25.378906 4.855469 L 25.378906 24.453125 L 4.332031 24.453125 Z M 4.332031 4.855469 " clip-rule="nonzero"/></clipPath></defs><g clip-path="url(#b9d9a18f8d)"><path fill="#ffffff" d="M 0.484375 0 L 29.515625 0 L 29.515625 29.03125 L 0.484375 29.03125 Z M 0.484375 0 " fill-opacity="1" fill-rule="nonzero"/><path fill="#000000" d="M 0.484375 0 L 29.515625 0 L 29.515625 29.03125 L 0.484375 29.03125 Z M 0.484375 0 " fill-opacity="1" fill-rule="nonzero"/></g><g clip-path="url(#dd03371590)"><path fill="#ffffff" d="M 19.867188 6.921875 L 15.355469 6.921875 L 15.355469 5.378906 C 15.355469 5.234375 15.308594 5.113281 15.210938 5.011719 C 15.113281 4.914062 14.992188 4.863281 14.855469 4.863281 C 14.714844 4.863281 14.597656 4.914062 14.5 5.011719 C 14.402344 5.113281 14.355469 5.234375 14.355469 5.378906 L 14.355469 6.921875 L 9.84375 6.921875 C 9.511719 6.925781 9.191406 6.988281 8.882812 7.121094 C 8.578125 7.25 8.308594 7.4375 8.070312 7.679688 C 7.835938 7.921875 7.65625 8.199219 7.527344 8.515625 C 7.402344 8.832031 7.335938 9.160156 7.335938 9.5 L 7.335938 18.777344 C 7.335938 19.117188 7.402344 19.445312 7.527344 19.761719 C 7.65625 20.078125 7.835938 20.355469 8.070312 20.597656 C 8.308594 20.839844 8.578125 21.027344 8.882812 21.15625 C 9.191406 21.289062 9.511719 21.351562 9.84375 21.355469 L 12.582031 21.355469 L 14.4375 24.214844 C 14.484375 24.289062 14.542969 24.34375 14.617188 24.382812 C 14.691406 24.425781 14.769531 24.445312 14.855469 24.445312 C 14.9375 24.445312 15.015625 24.425781 15.089844 24.382812 C 15.164062 24.34375 15.226562 24.289062 15.273438 24.214844 L 17.128906 21.355469 L 19.867188 21.355469 C 20.199219 21.351562 20.519531 21.289062 20.824219 21.15625 C 21.132812 21.027344 21.402344 20.839844 21.636719 20.597656 C 21.871094 20.355469 22.054688 20.078125 22.179688 19.761719 C 22.308594 19.445312 22.371094 19.117188 22.371094 18.777344 L 22.371094 9.5 C 22.371094 9.160156 22.308594 8.832031 22.179688 8.515625 C 22.054688 8.199219 21.871094 7.921875 21.636719 7.679688 C 21.402344 7.4375 21.132812 7.25 20.824219 7.121094 C 20.519531 6.988281 20.199219 6.925781 19.867188 6.921875 Z M 21.371094 18.777344 C 21.371094 18.980469 21.332031 19.179688 21.253906 19.367188 C 21.179688 19.558594 21.070312 19.722656 20.929688 19.871094 C 20.789062 20.015625 20.625 20.125 20.441406 20.203125 C 20.257812 20.285156 20.066406 20.324219 19.867188 20.324219 L 16.859375 20.324219 C 16.679688 20.324219 16.542969 20.398438 16.441406 20.550781 L 14.855469 23 L 13.265625 20.550781 C 13.167969 20.398438 13.027344 20.324219 12.851562 20.324219 L 9.84375 20.324219 C 9.644531 20.324219 9.453125 20.285156 9.269531 20.203125 C 9.085938 20.125 8.921875 20.015625 8.78125 19.871094 C 8.640625 19.722656 8.53125 19.558594 8.453125 19.367188 C 8.378906 19.179688 8.339844 18.980469 8.339844 18.777344 L 8.339844 17.230469 L 21.371094 17.230469 Z M 21.371094 16.199219 L 8.339844 16.199219 L 8.339844 9.5 C 8.339844 9.296875 8.378906 9.097656 8.453125 8.910156 C 8.53125 8.71875 8.640625 8.550781 8.78125 8.40625 C 8.921875 8.261719 9.085938 8.152344 9.269531 8.074219 C 9.453125 7.992188 9.644531 7.953125 9.84375 7.953125 L 19.867188 7.953125 C 20.066406 7.953125 20.257812 7.992188 20.441406 8.074219 C 20.625 8.152344 20.789062 8.261719 20.929688 8.40625 C 21.070312 8.550781 21.179688 8.71875 21.253906 8.910156 C 21.332031 9.097656 21.371094 9.296875 21.371094 9.5 Z M 12.851562 12.59375 C 12.851562 12.730469 12.824219 12.859375 12.773438 12.988281 C 12.722656 13.113281 12.652344 13.226562 12.558594 13.320312 C 12.460938 13.417969 12.355469 13.492188 12.230469 13.542969 C 12.109375 13.597656 11.980469 13.625 11.847656 13.625 C 11.714844 13.625 11.585938 13.597656 11.464844 13.542969 C 11.339844 13.492188 11.234375 13.417969 11.140625 13.320312 C 11.046875 13.226562 10.972656 13.113281 10.921875 12.988281 C 10.871094 12.859375 10.84375 12.730469 10.84375 12.59375 C 10.84375 12.457031 10.871094 12.324219 10.921875 12.199219 C 10.972656 12.070312 11.046875 11.960938 11.140625 11.863281 C 11.234375 11.765625 11.339844 11.691406 11.464844 11.640625 C 11.585938 11.589844 11.714844 11.5625 11.847656 11.5625 C 11.980469 11.5625 12.109375 11.589844 12.230469 11.640625 C 12.355469 11.691406 12.460938 11.765625 12.558594 11.863281 C 12.652344 11.960938 12.722656 12.070312 12.773438 12.199219 C 12.824219 12.324219 12.851562 12.457031 12.851562 12.59375 Z M 18.863281 12.59375 C 18.863281 12.730469 18.839844 12.859375 18.789062 12.988281 C 18.738281 13.113281 18.664062 13.226562 18.570312 13.320312 C 18.476562 13.417969 18.367188 13.492188 18.246094 13.542969 C 18.121094 13.597656 17.996094 13.625 17.863281 13.625 C 17.730469 13.625 17.601562 13.597656 17.476562 13.542969 C 17.355469 13.492188 17.246094 13.417969 17.152344 13.320312 C 17.058594 13.226562 16.988281 13.113281 16.9375 12.988281 C 16.886719 12.859375 16.859375 12.730469 16.859375 12.59375 C 16.859375 12.457031 16.886719 12.324219 16.9375 12.199219 C 16.988281 12.070312 17.058594 11.960938 17.152344 11.863281 C 17.246094 11.765625 17.355469 11.691406 17.476562 11.640625 C 17.601562 11.589844 17.730469 11.5625 17.863281 11.5625 C 17.996094 11.5625 18.121094 11.589844 18.246094 11.640625 C 18.367188 11.691406 18.476562 11.765625 18.570312 11.863281 C 18.664062 11.960938 18.738281 12.070312 18.789062 12.199219 C 18.839844 12.324219 18.863281 12.457031 18.863281 12.59375 Z M 5.332031 10.53125 L 5.332031 14.652344 C 5.332031 14.796875 5.285156 14.917969 5.1875 15.019531 C 5.089844 15.117188 4.96875 15.167969 4.832031 15.167969 C 4.695312 15.167969 4.574219 15.117188 4.476562 15.019531 C 4.378906 14.917969 4.332031 14.796875 4.332031 14.652344 L 4.332031 10.53125 C 4.332031 10.390625 4.378906 10.265625 4.476562 10.167969 C 4.574219 10.066406 4.695312 10.015625 4.832031 10.015625 C 4.96875 10.015625 5.089844 10.066406 5.1875 10.167969 C 5.285156 10.265625 5.332031 10.390625 5.332031 10.53125 Z M 25.378906 10.53125 L 25.378906 14.652344 C 25.378906 14.796875 25.332031 14.917969 25.230469 15.019531 C 25.132812 15.117188 25.015625 15.167969 24.878906 15.167969 C 24.738281 15.167969 24.621094 15.117188 24.523438 15.019531 C 24.425781 14.917969 24.375 14.796875 24.375 14.652344 L 24.375 10.53125 C 24.375 10.390625 24.425781 10.265625 24.523438 10.167969 C 24.621094 10.066406 24.738281 10.015625 24.878906 10.015625 C 25.015625 10.015625 25.132812 10.066406 25.230469 10.167969 C 25.332031 10.265625 25.378906 10.390625 25.378906 10.53125 Z M 25.378906 10.53125 " fill-opacity="1" fill-rule="nonzero"/></g></svg>