<svg width="253" height="166" viewBox="0 0 253 166" fill="none" xmlns="http://www.w3.org/2000/svg">
<path d="M124.139 156.374L97.1529 164.871L70.167 156.374L97.1529 147.878L124.139 156.374ZM124.139 126.612L97.1529 135.108L70.167 126.612L97.1529 118.066L124.139 126.612Z" fill="black" stroke="white" stroke-width="0.765533" stroke-linejoin="round"/>
<path d="M97.1529 165.607L70.167 157.111V126.612L97.1529 135.108V165.558V165.607ZM97.1529 165.607L124.139 157.111V126.612L97.1529 135.108V165.558V165.607ZM122.002 56.5775L95.0165 65.074L68.0306 56.5775L95.0165 48.0811L122.002 56.5775Z" fill="black"/>
<path d="M97.1529 165.607L70.167 157.111V126.612L97.1529 135.108M97.1529 165.607V165.558V135.108M97.1529 165.607L124.139 157.111V126.612L97.1529 135.108M122.002 56.5775L95.0165 65.074L68.0306 56.5775L95.0165 48.0811L122.002 56.5775Z" stroke="white" stroke-width="0.765533" stroke-linejoin="round"/>
<path d="M95.0165 95.5726L68.0306 87.0761V56.5773L95.0165 65.0737V95.5726ZM95.0165 95.5726L122.002 87.0761V56.5773L95.0165 65.0737V95.5726ZM122.002 26.0785L95.0165 34.5749L68.0306 26.0785L95.0165 17.582L122.002 26.0294V26.0785Z" fill="black"/>
<path d="M95.0165 95.5726L68.0306 87.0761V56.5773L95.0165 65.0737M95.0165 95.5726V65.0737M95.0165 95.5726L122.002 87.0761V56.5773L95.0165 65.0737M122.002 26.0785L95.0165 34.5749L68.0306 26.0785L95.0165 17.582L122.002 26.0294V26.0785Z" stroke="white" stroke-width="0.765533" stroke-linejoin="round"/>
<path d="M95.0165 65.0741L68.0306 56.5776V26.1279L95.0165 34.5753V65.0741ZM95.0165 65.0741L122.002 56.5776V26.1279L95.0165 34.5753V65.0741Z" fill="black"/>
<path d="M95.0165 65.0741L68.0306 56.5776V26.1279L95.0165 34.5753M95.0165 65.0741V34.5753M95.0165 65.0741L122.002 56.5776V26.1279L95.0165 34.5753" stroke="white" stroke-width="0.765533" stroke-linejoin="round"/>
<path d="M148.988 34.5751L122.002 43.0715L95.0165 34.5751L122.002 26.0786L148.988 34.5751ZM122.002 73.6194L95.0165 65.0739V34.6242L122.002 43.0715V73.6686V73.6194Z" fill="black"/>
<path d="M122.002 43.0715L148.988 34.5751L122.002 26.0786L95.0165 34.5751L122.002 43.0715ZM122.002 43.0715L95.0165 34.6242V65.0739L122.002 73.6194V73.6686V43.0715Z" stroke="white" stroke-width="0.765533" stroke-linejoin="round"/>
<path d="M122.002 73.6193L148.988 65.0737V34.624L122.002 43.1205V73.5702V73.6193ZM95.0165 65.0737L68.0307 73.5702L41.0448 65.0737L68.0307 56.5773L95.0165 65.0737Z" fill="black" stroke="white" stroke-width="0.765533" stroke-linejoin="round"/>
<path d="M68.0307 104.118L41.0448 95.5728V65.123L68.0307 73.5704V104.118ZM68.0307 104.118L95.0165 95.5728V65.123L68.0307 73.6195V104.069V104.118Z" fill="black"/>
<path d="M68.0307 104.118L41.0448 95.5728V65.123L68.0307 73.5704V104.118ZM68.0307 104.118L95.0165 95.5728V65.123L68.0307 73.6195V104.069V104.118Z" stroke="white" stroke-width="0.765533" stroke-linejoin="round"/>
<path d="M68.0306 73.5702L41.0448 82.0666L14.0589 73.5702L41.0448 65.0737L68.0306 73.5702Z" fill="black" stroke="white" stroke-width="0.765533" stroke-linejoin="round"/>
<path d="M41.0448 112.566L14.0589 104.118V73.6686L41.0448 82.0178V112.517V112.566ZM41.0448 112.566L68.0307 104.069V73.6195L41.0448 82.0178V112.517V112.566ZM54.5377 9.0858L27.5519 17.5823L0.56601 9.0858L27.5519 0.589355L54.5377 9.0858Z" fill="black"/>
<path d="M41.0448 112.566L14.0589 104.118V73.6686L41.0448 82.0178M41.0448 112.566V112.517V82.0178M41.0448 112.566L68.0307 104.069V73.6195L41.0448 82.0178M54.5377 9.08581L27.5519 17.5823L0.56601 9.08581L27.5519 0.589355L54.5377 9.08581Z" stroke="white" stroke-width="0.765533" stroke-linejoin="round"/>
<path d="M27.5519 48.1303L0.56601 39.5356V9.08594L27.5519 17.5824V48.1303ZM27.5519 48.1303L54.5377 39.5848V9.08594L27.5519 17.5824V48.1303ZM252.434 66.3019L225.448 74.7984L198.462 66.3019L225.448 57.8055L252.434 66.3019Z" fill="black"/>
<path d="M27.5519 48.1303L0.56601 39.5356V9.08594L27.5519 17.5824M27.5519 48.1303V17.5824M27.5519 48.1303L54.5377 39.5848V9.08594L27.5519 17.5824M252.434 66.3019L225.448 74.7984L198.462 66.3019L225.448 57.8055L252.434 66.3019Z" stroke="white" stroke-width="0.765533" stroke-linejoin="round"/>
<path d="M225.448 105.297L198.462 96.8008V66.3511L225.448 74.7984V105.297ZM225.448 105.297L252.434 96.8008V66.3511L225.448 74.7984V105.297Z" fill="black"/>
<path d="M225.448 105.297L198.462 96.8008V66.3511L225.448 74.7984M225.448 105.297V74.7984M225.448 105.297L252.434 96.8008V66.3511L225.448 74.7984" stroke="white" stroke-width="0.765533" stroke-linejoin="round"/>
<path d="M225.448 74.8473L198.462 83.3438L171.476 74.8473L198.462 66.3018L225.448 74.8473Z" fill="black" stroke="white" stroke-width="0.765533" stroke-linejoin="round"/>
<path d="M198.462 113.842L171.476 105.346V74.8472L198.462 83.3436V113.793V113.842ZM198.462 113.842L225.448 105.346V74.8472L198.462 83.3436V113.793V113.842Z" fill="black"/>
<path d="M198.462 113.842L171.476 105.346V74.8472L198.462 83.3436M198.462 113.842V113.793V83.3436M198.462 113.842L225.448 105.346V74.8472L198.462 83.3436" stroke="white" stroke-width="0.765533" stroke-linejoin="round"/>
<path d="M198.462 83.3436L171.476 91.8401L144.491 83.3436L171.476 74.8472L198.462 83.3436ZM171.476 122.29L144.491 113.842V83.3436L171.476 91.8401V122.29Z" fill="black"/>
<path d="M171.476 91.8401L198.462 83.3436L171.476 74.8472L144.491 83.3436M171.476 91.8401L144.491 83.3436M171.476 91.8401V122.29L144.491 113.842V83.3436" stroke="white" stroke-width="0.765533" stroke-linejoin="round"/>
<path d="M171.476 122.339L198.462 113.842V83.3436L171.476 91.84V122.339ZM225.448 44.3483L198.462 52.8447L171.476 44.3483L198.462 35.8027L225.448 44.3483ZM198.462 83.3436L171.476 74.8471V44.3483L198.462 52.8447V83.2944V83.3436ZM198.462 83.3436L225.448 74.8471V44.3483L198.462 52.8447V83.2944V83.3436Z" fill="black"/>
<path d="M198.462 83.3436V113.842L171.476 122.339V91.84L198.462 83.3436ZM198.462 83.3436L171.476 74.8471V44.3483M198.462 83.3436V83.2944V52.8447M198.462 83.3436L225.448 74.8471V44.3483M225.448 44.3483L198.462 52.8447M225.448 44.3483L198.462 35.8027L171.476 44.3483M198.462 52.8447L171.476 44.3483" stroke="white" stroke-width="0.765533" stroke-linejoin="round"/>
</svg>
