<svg width="295" height="311" viewBox="0 0 295 311" fill="none" xmlns="http://www.w3.org/2000/svg">
<g clip-path="url(#clip0_43_613)">
<path d="M144.789 232.677L108.097 245.319L71.405 232.677L108.097 220.034L144.789 232.677ZM144.789 188.392L108.097 201.034L71.405 188.392L108.097 175.677L144.789 188.392Z" fill="black" stroke="white" stroke-width="0.765533" stroke-linejoin="round"/>
<path d="M108.097 246.416L71.405 233.773V188.392L108.097 201.035V246.342V246.416ZM108.097 246.416L144.789 233.773V188.392L108.097 201.035V246.342V246.416ZM141.885 84.1848L105.192 96.8271L68.5002 84.1848L105.192 71.5425L141.885 84.1848Z" fill="black"/>
<path d="M108.097 246.416L71.405 233.773V188.392L108.097 201.035M108.097 246.416V246.342V201.035M108.097 246.416L144.789 233.773V188.392L108.097 201.035M141.885 84.1848L105.192 96.8271L68.5002 84.1848L105.192 71.5425L141.885 84.1848Z" stroke="white" stroke-width="0.765533" stroke-linejoin="round"/>
<path d="M105.192 142.208L68.5002 129.565V84.1847L105.192 96.827V142.208ZM105.192 142.208L141.885 129.565V84.1847L105.192 96.827V142.208ZM141.885 38.8039L105.192 51.4462L68.5002 38.8039L105.192 26.1616L141.885 38.7309V38.8039Z" fill="black"/>
<path d="M105.192 142.208L68.5002 129.565V84.1847L105.192 96.827M105.192 142.208V96.827M105.192 142.208L141.885 129.565V84.1847L105.192 96.827M141.885 38.8039L105.192 51.4462L68.5002 38.8039L105.192 26.1616L141.885 38.7309V38.8039Z" stroke="white" stroke-width="0.765533" stroke-linejoin="round"/>
<path d="M105.192 96.827L68.5002 84.1846V38.877L105.192 51.4462V96.827ZM105.192 96.827L141.885 84.1846V38.877L105.192 51.4462V96.827Z" fill="black"/>
<path d="M105.192 96.827L68.5002 84.1846V38.877L105.192 51.4462M105.192 96.827V51.4462M105.192 96.827L141.885 84.1846V38.877L105.192 51.4462" stroke="white" stroke-width="0.765533" stroke-linejoin="round"/>
<path d="M178.577 51.446L141.885 64.0883L105.192 51.446L141.885 38.8037L178.577 51.446ZM141.885 109.542L105.192 96.8268V51.5191L141.885 64.0883V109.615V109.542Z" fill="black"/>
<path d="M141.885 64.0883L178.577 51.446L141.885 38.8037L105.192 51.446L141.885 64.0883ZM141.885 64.0883L105.192 51.5191V96.8268L141.885 109.542V109.615V64.0883Z" stroke="white" stroke-width="0.765533" stroke-linejoin="round"/>
<path d="M141.885 109.542L178.577 96.8267V51.519L141.885 64.1614V109.469V109.542ZM105.192 96.8267L68.5002 109.469L31.8079 96.8267L68.5002 84.1844L105.192 96.8267Z" fill="black" stroke="white" stroke-width="0.765533" stroke-linejoin="round"/>
<path d="M68.5002 154.923L31.8079 142.208V96.8999L68.5002 109.469V154.923ZM68.5002 154.923L105.192 142.208V96.8999L68.5002 109.542V154.85V154.923Z" fill="black"/>
<path d="M68.5002 154.923L31.8079 142.208V96.8999L68.5002 109.469V154.923ZM68.5002 154.923L105.192 142.208V96.8999L68.5002 109.542V154.85V154.923Z" stroke="white" stroke-width="0.765533" stroke-linejoin="round"/>
<path d="M68.5002 109.469L31.808 122.112L-4.88428 109.469L31.808 96.8271L68.5002 109.469Z" fill="black" stroke="white" stroke-width="0.765533" stroke-linejoin="round"/>
<path d="M31.8079 167.492L-4.88429 154.923V109.615L31.8079 122.038V167.419V167.492ZM31.8079 167.492L68.5002 154.85V109.542L31.8079 122.038V167.419V167.492ZM50.1541 13.5193L13.4618 26.1616L-23.2304 13.5193L13.4618 0.876953L50.1541 13.5193Z" fill="black"/>
<path d="M31.8079 167.492L-4.88429 154.923V109.615L31.8079 122.038M31.8079 167.492V167.419V122.038M31.8079 167.492L68.5002 154.85V109.542L31.8079 122.038M50.1541 13.5193L13.4618 26.1616L-23.2304 13.5193L13.4618 0.876953L50.1541 13.5193Z" stroke="white" stroke-width="0.765533" stroke-linejoin="round"/>
<path d="M13.4618 71.6152L-23.2304 58.8267V13.519L13.4618 26.1614V71.6152ZM13.4618 71.6152L50.1541 58.8998V13.519L13.4618 26.1614V71.6152ZM319.23 98.6537L282.538 111.296L245.846 98.6537L282.538 86.0114L319.23 98.6537Z" fill="black"/>
<path d="M13.4618 71.6152L-23.2304 58.8267V13.519L13.4618 26.1614M13.4618 71.6152V26.1614M13.4618 71.6152L50.1541 58.8998V13.519L13.4618 26.1614M319.23 98.6537L282.538 111.296L245.846 98.6537L282.538 86.0114L319.23 98.6537Z" stroke="white" stroke-width="0.765533" stroke-linejoin="round"/>
<path d="M282.538 156.677L245.846 144.035V98.7271L282.538 111.296V156.677ZM282.538 156.677L319.23 144.035V98.7271L282.538 111.296V156.677Z" fill="black"/>
<path d="M282.538 156.677L245.846 144.035V98.7271L282.538 111.296M282.538 156.677V111.296M282.538 156.677L319.23 144.035V98.7271L282.538 111.296" stroke="white" stroke-width="0.765533" stroke-linejoin="round"/>
<path d="M282.538 111.369L245.846 124.011L209.154 111.369L245.846 98.6538L282.538 111.369Z" fill="black" stroke="white" stroke-width="0.765533" stroke-linejoin="round"/>
<path d="M245.846 169.392L209.154 156.75V111.369L245.846 124.011V169.319V169.392ZM245.846 169.392L282.538 156.75V111.369L245.846 124.011V169.319V169.392Z" fill="black"/>
<path d="M245.846 169.392L209.154 156.75V111.369L245.846 124.011M245.846 169.392V169.319V124.011M245.846 169.392L282.538 156.75V111.369L245.846 124.011" stroke="white" stroke-width="0.765533" stroke-linejoin="round"/>
<path d="M245.846 124.011L209.154 136.654L172.461 124.011L209.154 111.369L245.846 124.011ZM209.154 181.961L172.461 169.392V124.011L209.154 136.654V181.961Z" fill="black"/>
<path d="M209.154 136.654L245.846 124.011L209.154 111.369L172.461 124.011M209.154 136.654L172.461 124.011M209.154 136.654V181.961L172.461 169.392V124.011" stroke="white" stroke-width="0.765533" stroke-linejoin="round"/>
<path d="M209.154 182.035L245.846 169.392V124.011L209.154 136.654V182.035ZM282.538 65.9883L245.846 78.6306L209.154 65.9883L245.846 53.2729L282.538 65.9883ZM245.846 124.011L209.154 111.369V65.9883L245.846 78.6306V123.938V124.011ZM245.846 124.011L282.538 111.369V65.9883L245.846 78.6306V123.938V124.011Z" fill="black"/>
<path d="M245.846 124.011V169.392L209.154 182.035V136.654L245.846 124.011ZM245.846 124.011L209.154 111.369V65.9883M245.846 124.011V123.938V78.6306M245.846 124.011L282.538 111.369V65.9883M282.538 65.9883L245.846 78.6306M282.538 65.9883L245.846 53.2729L209.154 65.9883M245.846 78.6306L209.154 65.9883" stroke="white" stroke-width="0.765533" stroke-linejoin="round"/>
<path d="M148 311.009L184.746 301.288V266.393L148 276.114V311.009ZM221.491 221.777L184.746 231.498L148 221.777L184.746 212L221.491 221.777ZM184.746 266.393L148 256.672V221.777L184.746 231.498V266.337V266.393ZM184.746 266.393L221.491 256.672V221.777L184.746 231.498V266.337V266.393Z" fill="black"/>
<path d="M184.746 266.393V301.288L148 311.009V276.114L184.746 266.393ZM184.746 266.393L148 256.672V221.777M184.746 266.393V266.337V231.498M184.746 266.393L221.491 256.672V221.777M221.491 221.777L184.746 231.498M221.491 221.777L184.746 212L148 221.777M184.746 231.498L148 221.777" stroke="white" stroke-width="0.765533" stroke-linejoin="round"/>
</g>
<defs>
<clipPath id="clip0_43_613">
<rect width="295" height="311" fill="white"/>
</clipPath>
</defs>
</svg>
