<svg xmlns="http://www.w3.org/2000/svg" xmlns:xlink="http://www.w3.org/1999/xlink" width="40" zoomAndPan="magnify" viewBox="0 0 30 30.000001" height="40" preserveAspectRatio="xMidYMid meet" version="1.0"><defs><clipPath id="a1bb96c4fd"><path d="M 0.484375 0 L 29.515625 0 L 29.515625 29.03125 L 0.484375 29.03125 Z M 0.484375 0 " clip-rule="nonzero"/></clipPath><clipPath id="0853db14ca"><path d="M 7.433594 6.804688 L 22.675781 6.804688 L 22.675781 16 L 7.433594 16 Z M 7.433594 6.804688 " clip-rule="nonzero"/></clipPath><clipPath id="3c5f853040"><path d="M 8 13 L 22 13 L 22 22.046875 L 8 22.046875 Z M 8 13 " clip-rule="nonzero"/></clipPath><clipPath id="6cb7f13be3"><path d="M 16.273438 16.816406 L 23.53125 16.816406 L 23.53125 24.074219 L 16.273438 24.074219 Z M 16.273438 16.816406 " clip-rule="nonzero"/></clipPath></defs><g clip-path="url(#a1bb96c4fd)"><path fill="#ffffff" d="M 0.484375 0 L 29.515625 0 L 29.515625 29.03125 L 0.484375 29.03125 Z M 0.484375 0 " fill-opacity="1" fill-rule="nonzero"/><path fill="#ffffff" d="M 0.484375 0 L 29.515625 0 L 29.515625 29.03125 L 0.484375 29.03125 Z M 0.484375 0 " fill-opacity="1" fill-rule="nonzero"/></g><g clip-path="url(#0853db14ca)"><path fill="#a6a6a6" d="M 9.074219 12.960938 C 8.871094 12.289062 8.710938 11.582031 8.605469 10.867188 C 9.109375 10.792969 9.691406 10.636719 10.339844 10.398438 C 11.046875 10.140625 11.84375 9.78125 12.707031 9.335938 C 13.734375 8.804688 14.625 8.265625 15.054688 8 C 15.054688 8 15.054688 8.003906 15.054688 8.003906 C 15.054688 8.003906 15.058594 8 15.058594 8 C 15.484375 8.265625 16.375 8.804688 17.40625 9.335938 C 18.269531 9.78125 19.066406 10.140625 19.773438 10.398438 C 20.421875 10.636719 21.003906 10.792969 21.507812 10.867188 C 21.402344 11.582031 21.242188 12.289062 21.035156 12.960938 C 20.8125 13.691406 20.527344 14.402344 20.191406 15.082031 C 22.128906 13.023438 22.675781 9.941406 22.675781 9.941406 L 22.101562 9.933594 C 21.1875 9.921875 19.738281 9.421875 17.917969 8.480469 C 16.503906 7.75 15.367188 7.015625 15.355469 7.007812 L 15.058594 6.8125 L 15.054688 6.8125 L 14.753906 7.007812 C 14.742188 7.015625 13.605469 7.75 12.195312 8.480469 C 10.371094 9.421875 8.925781 9.921875 8.011719 9.933594 L 7.433594 9.941406 C 7.433594 9.941406 7.984375 13.023438 9.917969 15.082031 C 9.582031 14.402344 9.296875 13.691406 9.074219 12.960938 " fill-opacity="1" fill-rule="nonzero"/></g><g clip-path="url(#3c5f853040)"><path fill="#a6a6a6" d="M 15.058594 20.828125 C 15.058594 20.828125 15.054688 20.828125 15.054688 20.828125 C 11.75 18.753906 8.933594 14.582031 8.390625 13.785156 C 8.578125 14.300781 8.785156 14.808594 9.019531 15.296875 C 9.660156 16.648438 10.488281 17.90625 11.472656 19.039062 C 12.355469 20.046875 13.203125 20.769531 13.761719 21.195312 C 14.375 21.664062 14.78125 21.890625 14.796875 21.902344 L 15.054688 22.046875 L 15.054688 22.042969 L 15.058594 22.046875 L 15.3125 21.902344 C 15.332031 21.890625 15.738281 21.664062 16.351562 21.195312 C 16.90625 20.769531 17.757812 20.046875 18.636719 19.039062 C 19.625 17.90625 20.449219 16.648438 21.09375 15.296875 C 21.324219 14.808594 21.535156 14.300781 21.71875 13.785156 C 21.179688 14.582031 18.359375 18.753906 15.058594 20.828125 " fill-opacity="1" fill-rule="nonzero"/></g><g clip-path="url(#6cb7f13be3)"><path fill="#d9d9d9" d="M 22.78125 20.492188 C 22.78125 20.457031 22.808594 20.414062 22.839844 20.398438 L 23.472656 20.082031 C 23.503906 20.066406 23.523438 20.027344 23.519531 19.992188 L 23.375 19.316406 C 23.363281 19.285156 23.328125 19.253906 23.292969 19.253906 L 22.574219 19.207031 C 22.539062 19.203125 22.5 19.175781 22.484375 19.144531 L 22.382812 18.964844 C 22.367188 18.933594 22.367188 18.886719 22.386719 18.855469 L 22.75 18.242188 C 22.765625 18.210938 22.761719 18.167969 22.738281 18.140625 L 22.25 17.640625 C 22.222656 17.617188 22.179688 17.609375 22.148438 17.628906 L 21.523438 17.976562 C 21.492188 17.992188 21.441406 17.992188 21.414062 17.972656 L 21.242188 17.878906 C 21.214844 17.859375 21.1875 17.820312 21.183594 17.785156 L 21.160156 17.066406 C 21.160156 17.03125 21.128906 16.992188 21.097656 16.984375 L 20.417969 16.820312 C 20.386719 16.816406 20.34375 16.835938 20.328125 16.867188 L 19.992188 17.492188 C 19.972656 17.523438 19.945312 17.550781 19.929688 17.546875 L 19.914062 17.546875 C 19.816406 17.546875 19.6875 17.558594 19.6875 17.558594 C 19.652344 17.5625 19.609375 17.539062 19.585938 17.511719 L 19.175781 16.917969 C 19.15625 16.886719 19.113281 16.871094 19.078125 16.882812 L 18.433594 17.101562 C 18.398438 17.113281 18.375 17.152344 18.378906 17.1875 L 18.433594 17.894531 C 18.4375 17.929688 18.414062 17.972656 18.386719 17.992188 L 18.179688 18.132812 C 18.152344 18.15625 18.101562 18.160156 18.070312 18.148438 L 17.40625 17.871094 C 17.371094 17.859375 17.328125 17.867188 17.304688 17.894531 L 16.886719 18.410156 C 16.867188 18.4375 16.867188 18.484375 16.890625 18.511719 L 17.316406 19.074219 C 17.335938 19.101562 17.339844 19.148438 17.328125 19.183594 L 17.210938 19.460938 C 17.199219 19.492188 17.160156 19.523438 17.125 19.53125 L 16.417969 19.65625 C 16.386719 19.664062 16.351562 19.699219 16.347656 19.730469 C 16.347656 19.730469 16.277344 20.167969 16.277344 20.429688 C 16.277344 20.429688 16.304688 20.441406 16.335938 20.453125 L 16.996094 20.695312 C 17.03125 20.707031 17.0625 20.746094 17.066406 20.78125 L 17.128906 21.117188 C 17.136719 21.152344 17.121094 21.199219 17.09375 21.222656 L 16.574219 21.710938 C 16.546875 21.734375 16.539062 21.78125 16.550781 21.8125 L 16.835938 22.367188 C 16.855469 22.394531 16.898438 22.414062 16.929688 22.40625 L 17.621094 22.253906 C 17.652344 22.246094 17.699219 22.257812 17.722656 22.285156 L 17.976562 22.550781 C 18 22.574219 18.015625 22.621094 18.007812 22.65625 L 17.832031 23.34375 C 17.824219 23.378906 17.839844 23.421875 17.871094 23.441406 L 18.40625 23.742188 C 18.4375 23.757812 18.484375 23.75 18.507812 23.726562 L 19.003906 23.21875 C 19.03125 23.195312 19.078125 23.183594 19.109375 23.191406 L 19.464844 23.269531 C 19.5 23.277344 19.535156 23.308594 19.546875 23.339844 L 19.769531 24.011719 C 19.78125 24.042969 19.816406 24.070312 19.851562 24.074219 C 19.851562 24.074219 19.871094 24.074219 19.914062 24.074219 C 20.125 24.074219 20.476562 24.027344 20.476562 24.027344 C 20.511719 24.023438 20.546875 23.992188 20.550781 23.957031 L 20.699219 23.253906 C 20.707031 23.222656 20.738281 23.183594 20.773438 23.171875 L 21.085938 23.054688 C 21.117188 23.042969 21.164062 23.046875 21.191406 23.070312 L 21.738281 23.511719 C 21.765625 23.535156 21.8125 23.535156 21.839844 23.515625 L 22.351562 23.125 C 22.378906 23.101562 22.390625 23.058594 22.378906 23.023438 L 22.125 22.351562 C 22.109375 22.320312 22.117188 22.269531 22.140625 22.242188 L 22.308594 22.011719 C 22.328125 21.980469 22.375 21.960938 22.40625 21.964844 L 23.105469 22.039062 C 23.140625 22.042969 23.179688 22.019531 23.195312 21.988281 L 23.425781 21.359375 C 23.433594 21.328125 23.417969 21.28125 23.390625 21.261719 L 22.8125 20.832031 C 22.785156 20.8125 22.761719 20.765625 22.765625 20.730469 Z M 19.902344 22.566406 C 18.734375 22.566406 17.785156 21.613281 17.785156 20.441406 C 17.785156 19.269531 18.734375 18.316406 19.902344 18.316406 C 21.074219 18.316406 22.023438 19.269531 22.023438 20.441406 C 22.023438 21.613281 21.074219 22.566406 19.902344 22.566406 Z M 19.902344 22.566406 " fill-opacity="1" fill-rule="nonzero"/></g></svg>