<?xml version="1.0" encoding="UTF-8"?><svg xmlns="http://www.w3.org/2000/svg" xmlns:xlink="http://www.w3.org/1999/xlink" viewBox="0 0 576 508.24"><defs><style>.cls-1{fill:url(#linear-gradient-2);}.cls-2{fill:url(#linear-gradient-15);}.cls-3{fill:#0f031b;}.cls-4{fill:url(#linear-gradient-14);}.cls-5{fill:url(#linear-gradient-6);}.cls-6{fill:url(#linear-gradient-11);}.cls-7{fill:url(#linear-gradient-10);}.cls-8{fill:url(#linear-gradient-16);}.cls-9{fill:url(#linear-gradient-5);}.cls-10{fill:#854ed5;font-family:Arial-BoldMT, Arial;font-size:21.92px;font-weight:700;}.cls-11{fill:url(#linear-gradient-7);}.cls-12{fill:url(#linear-gradient-9);}.cls-13{fill:url(#linear-gradient-3);}.cls-14{fill:url(#linear-gradient);}.cls-15{fill:url(#linear-gradient-4);}.cls-16{fill:url(#linear-gradient-8);}.cls-17{fill:url(#linear-gradient-12);}.cls-18{fill:url(#linear-gradient-13);}</style><linearGradient id="linear-gradient" x1="397.89" y1="211.29" x2="397.89" y2="94.01" gradientTransform="translate(257.21 -249.63) rotate(49.73)" gradientUnits="userSpaceOnUse"><stop offset="0" stop-color="#1a0827"/><stop offset=".44" stop-color="#6f357c"/><stop offset="1" stop-color="#10031d"/></linearGradient><linearGradient id="linear-gradient-2" x1="397.87" y1="68.3" x2="397.87" y2="-60.4" gradientTransform="translate(112.21 87.55) rotate(44.68) scale(1 -1)" xlink:href="#linear-gradient"/><linearGradient id="linear-gradient-3" x1="533.64" y1="211.29" x2="533.64" y2="94.01" gradientTransform="translate(691.99 381.25) rotate(-139.71) scale(1 -1)" xlink:href="#linear-gradient"/><linearGradient id="linear-gradient-4" x1="533.62" y1="68.3" x2="533.62" y2="-60.4" gradientTransform="translate(558.26 747.08) rotate(-134.62)" xlink:href="#linear-gradient"/><linearGradient id="linear-gradient-5" x1="471.65" y1="292.58" x2="471.65" y2="222.75" gradientUnits="userSpaceOnUse"><stop offset=".02" stop-color="#6e32e3"/><stop offset="1" stop-color="#b260f7"/></linearGradient><linearGradient id="linear-gradient-6" x1="471.56" y1="315.92" x2="471.56" y2="173.88" gradientUnits="userSpaceOnUse"><stop offset=".01" stop-color="#0f031c"/><stop offset="1" stop-color="#cb7ef1"/></linearGradient><linearGradient id="linear-gradient-7" x1="112.67" x2="112.67" xlink:href="#linear-gradient-5"/><linearGradient id="linear-gradient-8" x1="112.58" x2="112.58" xlink:href="#linear-gradient-6"/><linearGradient id="linear-gradient-9" x1="292.74" y1="150.24" x2="292.74" y2="80.41" xlink:href="#linear-gradient-5"/><linearGradient id="linear-gradient-10" x1="292.65" y1="173.58" x2="292.65" y2="31.54" xlink:href="#linear-gradient-6"/><linearGradient id="linear-gradient-11" x1="292.74" y1="457.93" x2="292.74" y2="388.09" xlink:href="#linear-gradient-5"/><linearGradient id="linear-gradient-12" x1="292.65" y1="481.26" x2="292.65" y2="339.22" xlink:href="#linear-gradient-6"/><linearGradient id="linear-gradient-13" x1="471.32" y1="258.21" x2="471.32" y2="195.39" gradientUnits="userSpaceOnUse"><stop offset=".02" stop-color="#eaa9ed"/><stop offset="1" stop-color="#10031d"/></linearGradient><linearGradient id="linear-gradient-14" x1="112.34" x2="112.34" xlink:href="#linear-gradient-13"/><linearGradient id="linear-gradient-15" x1="292.4" y1="115.87" x2="292.4" y2="53.04" xlink:href="#linear-gradient-13"/><linearGradient id="linear-gradient-16" x1="292.4" y1="423.55" x2="292.4" y2="360.73" xlink:href="#linear-gradient-13"/></defs><g id="Layer_4"><rect class="cls-3" width="576" height="508.24"/></g><g id="Layer_5"><rect class="cls-14" x="396.9" y="63.1" width="1.99" height="179.1" transform="translate(24.24 357.61) rotate(-49.73)"/><rect class="cls-1" x="307.27" y="363.52" width="181.2" height="1.99" transform="translate(-141.34 385.13) rotate(-44.68)"/><rect class="cls-13" x="96.66" y="151.65" width="179.1" height="1.99" transform="translate(-54.54 156.61) rotate(-40.29)"/><rect class="cls-15" x="185.24" y="273.92" width="1.99" height="181.2" transform="translate(-204.03 241.01) rotate(-45.38)"/></g><g id="Layer_2"><polygon class="cls-9" points="500.43 272.85 471.65 292.58 442.87 272.85 442.87 232.26 471.65 222.75 500.43 232.26 500.43 272.85"/><path class="cls-5" d="M520.6,271.77c-1.12,0-2.21,.12-3.27,.31v-47.88c0-1.86-1.2-3.51-2.96-4.09l-34.82-11.4c6.16-2.95,10.42-9.23,10.42-16.51,0-10.12-8.2-18.32-18.32-18.32s-18.32,8.2-18.32,18.32c0,7.29,4.26,13.56,10.42,16.51l-34.76,11.38c-1.8,.59-3.02,2.27-3.02,4.16v47.85c-1.12-.21-2.27-.34-3.45-.34-10.12,0-18.32,8.2-18.32,18.32s8.2,18.32,18.32,18.32c8.56,0,15.73-5.88,17.74-13.81l31.39,21.32,31.24-21.21c2.05,7.88,9.19,13.71,17.71,13.71,10.12,0,18.32-8.2,18.32-18.32s-8.2-18.32-18.32-18.32Zm-49.29,29.1l-35.61-24.41v-50.23l35.61-11.77,35.61,11.77v50.23l-35.61,24.41Z"/><polygon class="cls-11" points="141.45 272.85 112.67 292.58 83.89 272.85 83.89 232.26 112.67 222.75 141.45 232.26 141.45 272.85"/><path class="cls-16" d="M161.62,271.77c-1.12,0-2.21,.12-3.27,.31v-47.88c0-1.86-1.2-3.51-2.96-4.09l-34.82-11.4c6.16-2.95,10.42-9.23,10.42-16.51,0-10.12-8.2-18.32-18.32-18.32s-18.32,8.2-18.32,18.32c0,7.29,4.26,13.56,10.42,16.51l-34.76,11.38c-1.8,.59-3.02,2.27-3.02,4.16v47.85c-1.12-.21-2.27-.34-3.45-.34-10.12,0-18.32,8.2-18.32,18.32s8.2,18.32,18.32,18.32c8.56,0,15.73-5.88,17.74-13.81l31.39,21.32,31.24-21.21c2.05,7.88,9.19,13.71,17.71,13.71,10.12,0,18.32-8.2,18.32-18.32s-8.2-18.32-18.32-18.32Zm-49.29,29.1l-35.61-24.41v-50.23l35.61-11.77,35.61,11.77v50.23l-35.61,24.41Z"/><polygon class="cls-12" points="321.52 130.51 292.74 150.24 263.96 130.51 263.96 89.92 292.74 80.41 321.52 89.92 321.52 130.51"/><path class="cls-7" d="M341.69,129.43c-1.12,0-2.21,.12-3.27,.31v-47.88c0-1.86-1.2-3.51-2.96-4.09l-34.82-11.4c6.16-2.95,10.42-9.23,10.42-16.51,0-10.12-8.2-18.32-18.32-18.32s-18.32,8.2-18.32,18.32c0,7.29,4.26,13.56,10.42,16.51l-34.76,11.38c-1.8,.59-3.02,2.27-3.02,4.16v47.85c-1.12-.21-2.27-.34-3.45-.34-10.12,0-18.32,8.2-18.32,18.32s8.2,18.32,18.32,18.32c8.56,0,15.73-5.88,17.74-13.81l31.39,21.32,31.24-21.21c2.05,7.88,9.19,13.71,17.71,13.71,10.12,0,18.32-8.2,18.32-18.32s-8.2-18.32-18.32-18.32Zm-49.29,29.1l-35.61-24.41v-50.23l35.61-11.77,35.61,11.77v50.23l-35.61,24.41Z"/><polygon class="cls-6" points="321.52 438.2 292.74 457.93 263.96 438.2 263.96 397.6 292.74 388.09 321.52 397.6 321.52 438.2"/><path class="cls-17" d="M341.69,437.11c-1.12,0-2.21,.12-3.27,.31v-47.88c0-1.86-1.2-3.51-2.96-4.09l-34.82-11.4c6.16-2.95,10.42-9.23,10.42-16.51,0-10.12-8.2-18.32-18.32-18.32s-18.32,8.2-18.32,18.32c0,7.29,4.26,13.56,10.42,16.51l-34.76,11.38c-1.8,.59-3.02,2.27-3.02,4.16v47.85c-1.12-.21-2.27-.34-3.45-.34-10.12,0-18.32,8.2-18.32,18.32s8.2,18.32,18.32,18.32c8.56,0,15.73-5.88,17.74-13.81l31.39,21.32,31.24-21.21c2.05,7.88,9.19,13.71,17.71,13.71,10.12,0,18.32-8.2,18.32-18.32s-8.2-18.32-18.32-18.32Zm-49.29,29.1l-35.61-24.41v-50.23l35.61-11.77,35.61,11.77v50.23l-35.61,24.41Z"/></g><g id="Layer_3"><path class="cls-18" d="M471.32,258.21c-53.78,0-95.9-13.92-95.9-31.68,0-15.53,32.06-28.33,77.97-31.14l.18,2.98c-42.85,2.62-75.16,14.73-75.16,28.16,0,15.55,42.55,28.69,92.91,28.69s92.91-13.14,92.91-28.69c0-13.32-32-25.4-74.44-28.11l.19-2.98c45.47,2.9,77.24,15.69,77.24,31.1,0,17.77-42.13,31.68-95.9,31.68Z"/><path class="cls-4" d="M112.34,258.21c-53.78,0-95.9-13.92-95.9-31.68,0-15.53,32.06-28.33,77.97-31.14l.18,2.98c-42.85,2.62-75.16,14.73-75.16,28.16,0,15.55,42.55,28.69,92.91,28.69s92.91-13.14,92.91-28.69c0-13.32-32-25.4-74.44-28.11l.19-2.98c45.47,2.9,77.23,15.69,77.23,31.1,0,17.77-42.13,31.68-95.9,31.68Z"/><path class="cls-2" d="M292.4,115.87c-53.78,0-95.9-13.92-95.9-31.68,0-15.53,32.06-28.33,77.97-31.14l.18,2.98c-42.85,2.62-75.16,14.73-75.16,28.16,0,15.55,42.55,28.69,92.91,28.69s92.91-13.14,92.91-28.69c0-13.32-32-25.4-74.43-28.11l.19-2.98c45.47,2.9,77.23,15.69,77.23,31.1,0,17.77-42.13,31.68-95.9,31.68Z"/><path class="cls-8" d="M292.4,423.55c-53.78,0-95.9-13.92-95.9-31.68,0-15.53,32.06-28.33,77.97-31.14l.18,2.99c-42.85,2.62-75.16,14.72-75.16,28.16,0,15.55,42.55,28.69,92.91,28.69s92.91-13.14,92.91-28.69c0-13.32-32-25.4-74.43-28.11l.19-2.98c45.47,2.9,77.23,15.69,77.23,31.1,0,17.77-42.13,31.68-95.9,31.68Z"/></g><g id="Layer_6"><text class="cls-10" transform="translate(225.28 244.9)"><tspan x="0" y="0">Collect Data</tspan></text></g></svg>