<svg xmlns="http://www.w3.org/2000/svg" xmlns:xlink="http://www.w3.org/1999/xlink" width="500" zoomAndPan="magnify" viewBox="0 0 375 374.999991" height="500" preserveAspectRatio="xMidYMid meet" version="1.0"><defs><clipPath id="7f3050791d"><path d="M 128 111.429688 L 247 111.429688 L 247 263.679688 L 128 263.679688 Z M 128 111.429688 " clip-rule="nonzero"/></clipPath></defs><g clip-path="url(#7f3050791d)"><path fill="#363435" d="M 177.855469 161.511719 C 175.917969 159.960938 174.519531 157.40625 172.066406 156.859375 C 168.636719 156.097656 165.148438 158.136719 161.691406 158.773438 C 163.601562 160.996094 165.242188 163.492188 167.425781 165.4375 C 169.757812 167.535156 172.761719 166.835938 175.671875 165.253906 C 174.398438 167.871094 173.734375 170.730469 173.367188 173.742188 C 175.550781 169.027344 178.3125 165.070312 181.316406 161.484375 C 180.253906 159.445312 178.917969 157.496094 177.3125 155.671875 C 177.707031 157.648438 177.917969 159.597656 177.855469 161.511719 Z M 170.304688 163.855469 C 168.972656 163.429688 167.574219 161.269531 166.574219 160.417969 C 167.910156 160.417969 169.972656 159.503906 171.367188 159.929688 C 172.703125 160.355469 173.824219 162.03125 174.792969 162.914062 C 173.609375 163.09375 171.671875 164.28125 170.304688 163.855469 Z M 245.277344 152.355469 C 224.683594 140.003906 205.363281 126.40625 187.351562 111.5 C 169.335938 126.40625 150.015625 140.003906 129.421875 152.355469 C 139.644531 166.378906 137.519531 173.132812 131.210938 187.402344 C 123.601562 204.558594 130.273438 220.5 144.101562 231.269531 C 158.296875 242.34375 173.609375 248.851562 187.351562 263.605469 C 201.058594 248.851562 216.40625 242.34375 230.597656 231.300781 C 244.429688 220.53125 251.101562 204.589844 243.488281 187.433594 C 237.179688 173.132812 235.054688 166.378906 245.277344 152.355469 Z M 207.671875 188.953125 C 208.761719 195.097656 204.457031 198.992188 199.875 197.167969 C 196.996094 196.042969 194.933594 193.484375 192.414062 191.691406 C 190.6875 190.472656 188.925781 189.042969 188.804688 186.429688 C 188.382812 177.941406 196.175781 174.136719 193.628906 182.230469 C 200.179688 178.246094 202.300781 175.78125 196.296875 174.714844 C 193.234375 174.167969 192.839844 171.886719 187.351562 171.886719 C 181.859375 171.886719 181.496094 174.167969 178.402344 174.714844 C 172.398438 175.78125 174.519531 178.246094 181.070312 182.230469 C 178.554688 174.136719 186.320312 177.941406 185.894531 186.429688 C 185.773438 189.015625 184.042969 190.472656 182.285156 191.691406 C 179.769531 193.484375 177.675781 196.042969 174.824219 197.167969 C 170.214844 198.992188 165.9375 195.097656 167.03125 188.953125 C 167.820312 184.449219 169.882812 180.40625 171.730469 176.480469 C 169.667969 177.484375 167.878906 178.730469 166.363281 180.253906 C 163.785156 178.121094 161.238281 175.964844 158.660156 173.863281 C 155.625 171.398438 156.839844 167.050781 159.386719 162.058594 C 155.503906 156.464844 157.6875 152.171875 170.398438 152.144531 C 169.152344 151.167969 167.847656 150.289062 166.300781 149.679688 C 172.824219 137.722656 178.828125 142.011719 187.410156 154.179688 C 195.992188 142.011719 201.96875 137.722656 208.488281 149.679688 C 206.910156 150.289062 205.609375 151.140625 204.394531 152.144531 C 217.101562 152.171875 219.285156 156.492188 215.402344 162.058594 C 217.921875 167.050781 219.132812 171.398438 216.132812 173.863281 C 213.554688 175.964844 211.007812 178.121094 208.429688 180.253906 C 206.910156 178.730469 205.152344 177.484375 203.058594 176.480469 C 204.820312 180.40625 206.882812 184.449219 207.671875 188.953125 Z M 195.203125 212.5 C 194.902344 210.703125 194.144531 209.09375 192.597656 207.8125 C 192.71875 212.105469 190.414062 215.238281 187.320312 218.003906 C 184.257812 215.238281 181.953125 212.132812 182.074219 207.8125 C 180.527344 209.09375 179.769531 210.703125 179.464844 212.5 C 172.09375 208.664062 173.882812 203.128906 187.351562 195.464844 C 200.816406 203.128906 202.605469 208.664062 195.203125 212.5 Z M 212.734375 149.222656 C 212.007812 147.703125 211.25 146.242188 210.339844 144.8125 C 218.648438 151.261719 228.65625 154.910156 238.089844 156.097656 C 235.84375 160.082031 234.691406 163.703125 234.296875 167.050781 C 228.261719 164.796875 222.320312 162.515625 221.316406 156.371094 C 220.4375 151.078125 216.648438 150.074219 212.734375 149.222656 Z M 210.1875 134.46875 C 217.191406 139.609375 224.320312 144.628906 231.570312 149.558594 C 223.894531 147.730469 217.070312 143.777344 209.976562 140.550781 C 203.242188 137.449219 196.8125 136.355469 190.382812 143.839844 C 194.933594 135.683594 202.179688 134.195312 210.1875 134.46875 Z M 203.695312 129.660156 C 196.175781 131.546875 191.777344 136.324219 188.925781 142.53125 C 190.140625 135.625 192.597656 129.480469 196.144531 123.972656 C 198.664062 125.890625 201.148438 127.777344 203.695312 129.660156 Z M 187.351562 117.035156 C 189.289062 118.589844 191.230469 120.109375 193.171875 121.628906 C 190.292969 127.289062 188.472656 133.34375 187.320312 139.671875 C 186.167969 133.375 184.378906 127.320312 181.496094 121.628906 C 183.46875 120.109375 185.410156 118.589844 187.351562 117.035156 Z M 178.523438 123.941406 C 182.101562 129.449219 184.558594 135.625 185.742188 142.5 C 182.863281 136.324219 178.492188 131.515625 170.972656 129.632812 C 173.550781 127.777344 176.039062 125.890625 178.523438 123.941406 Z M 164.511719 134.46875 C 172.519531 134.195312 179.796875 135.683594 184.316406 143.867188 C 177.886719 136.355469 171.457031 137.480469 164.726562 140.582031 C 157.628906 143.839844 150.804688 147.761719 143.132812 149.585938 C 150.347656 144.628906 157.507812 139.609375 164.511719 134.46875 Z M 164.359375 144.8125 C 163.453125 146.242188 162.691406 147.703125 161.964844 149.222656 C 158.054688 150.074219 154.261719 151.078125 153.382812 156.371094 C 152.382812 162.515625 146.40625 164.796875 140.402344 167.050781 C 139.976562 163.703125 138.855469 160.082031 136.609375 156.097656 C 146.042969 154.910156 156.050781 151.261719 164.359375 144.8125 Z M 140.402344 172.617188 C 144.890625 170.457031 149.105469 167.808594 152.925781 164.554688 C 150.773438 182.167969 140.097656 185.574219 133.273438 195.066406 C 134.914062 187.582031 139.523438 180.800781 140.402344 172.617188 Z M 136.824219 199.265625 C 142.496094 191.144531 150.472656 185.820312 154.230469 175.203125 C 161.144531 181.5 161.269531 187.21875 152.988281 197.472656 C 146.226562 205.867188 141.949219 216.210938 145.316406 225.945312 C 137.246094 218.128906 130.394531 208.484375 136.824219 199.265625 Z M 166.847656 240.363281 C 154.960938 234.554688 149.957031 227.496094 150.410156 216.847656 C 150.835938 206.203125 160.570312 197.320312 162.875 188.375 C 162.8125 191.78125 163.359375 195.066406 164.9375 198.566406 C 167.332031 203.921875 167.453125 209.820312 165.757812 215.753906 C 163.328125 224.121094 163.480469 232.273438 166.847656 240.363281 Z M 170.457031 210.886719 C 174.492188 225.304688 183.378906 238.507812 185.195312 254.085938 C 174.460938 242.007812 163.601562 230.023438 170.457031 210.886719 Z M 187.351562 245.414062 C 185.5625 234.644531 182.40625 225.0625 177.855469 216.667969 C 181.164062 218.855469 184.4375 221.140625 187.351562 223.96875 C 190.230469 221.140625 193.507812 218.855469 196.8125 216.667969 C 192.292969 225.0625 189.140625 234.644531 187.351562 245.414062 Z M 189.503906 254.085938 C 191.324219 238.507812 200.210938 225.304688 204.242188 210.886719 C 211.097656 230.023438 200.238281 242.007812 189.503906 254.085938 Z M 207.851562 240.363281 C 211.21875 232.242188 211.371094 224.121094 208.945312 215.753906 C 207.214844 209.820312 207.367188 203.921875 209.761719 198.566406 C 211.339844 195.066406 211.886719 191.78125 211.824219 188.375 C 214.160156 197.320312 223.863281 206.203125 224.289062 216.847656 C 224.746094 227.496094 219.710938 234.554688 207.851562 240.363281 Z M 229.386719 225.945312 C 232.722656 216.210938 228.476562 205.867188 221.710938 197.472656 C 213.460938 187.1875 213.582031 181.46875 220.46875 175.203125 C 224.199219 185.851562 232.207031 191.144531 237.875 199.265625 C 244.304688 208.484375 237.453125 218.128906 229.386719 225.945312 Z M 221.742188 164.585938 C 225.5625 167.839844 229.777344 170.488281 234.269531 172.648438 C 235.148438 180.832031 239.789062 187.613281 241.363281 195.097656 C 234.570312 185.605469 223.894531 182.167969 221.742188 164.585938 Z M 202.636719 156.859375 C 200.179688 157.375 198.785156 159.960938 196.84375 161.511719 C 196.78125 159.597656 196.996094 157.648438 197.386719 155.703125 C 195.78125 157.558594 194.445312 159.476562 193.386719 161.511719 C 196.386719 165.132812 199.148438 169.058594 201.332031 173.773438 C 200.96875 170.761719 200.300781 167.902344 199.027344 165.285156 C 201.9375 166.867188 204.972656 167.566406 207.277344 165.46875 C 209.429688 163.492188 211.097656 161.027344 213.007812 158.804688 C 209.550781 158.136719 206.0625 156.097656 202.636719 156.859375 Z M 204.394531 163.855469 C 203 164.28125 201.058594 163.09375 199.875 162.941406 C 200.847656 162.058594 201.96875 160.355469 203.300781 159.960938 C 204.699219 159.535156 206.761719 160.449219 208.09375 160.449219 C 207.15625 161.269531 205.757812 163.429688 204.394531 163.855469 Z M 204.394531 163.855469 " fill-opacity="1" fill-rule="evenodd"/></g></svg>