<svg xmlns="http://www.w3.org/2000/svg" xmlns:xlink="http://www.w3.org/1999/xlink" width="1250" zoomAndPan="magnify" viewBox="0 0 937.5 374.999991" height="500" preserveAspectRatio="xMidYMid meet" version="1.0"><defs><g/><clipPath id="ff1702d4d3"><path d="M 0 0.101562 L 937 0.101562 L 937 374.898438 L 0 374.898438 Z M 0 0.101562 " clip-rule="nonzero"/></clipPath><clipPath id="1b96a2d901"><path d="M 409 82.535156 L 528 82.535156 L 528 234.785156 L 409 234.785156 Z M 409 82.535156 " clip-rule="nonzero"/></clipPath></defs><g clip-path="url(#ff1702d4d3)"><path fill="#ffffff" d="M 0 0.101562 L 937.5 0.101562 L 937.5 1522.601562 L 0 1522.601562 Z M 0 0.101562 " fill-opacity="1" fill-rule="nonzero"/><path fill="#ffffff" d="M 0 0.101562 L 937.5 0.101562 L 937.5 375.101562 L 0 375.101562 Z M 0 0.101562 " fill-opacity="1" fill-rule="nonzero"/><path fill="#c89d2e" d="M 0 0.101562 L 937.5 0.101562 L 937.5 375.101562 L 0 375.101562 Z M 0 0.101562 " fill-opacity="1" fill-rule="nonzero"/></g><g clip-path="url(#1b96a2d901)"><path fill="#000000" d="M 459.105469 132.617188 C 457.167969 131.066406 455.769531 128.511719 453.316406 127.964844 C 449.886719 127.203125 446.398438 129.242188 442.941406 129.878906 C 444.851562 132.101562 446.492188 134.597656 448.675781 136.542969 C 451.007812 138.640625 454.011719 137.941406 456.921875 136.359375 C 455.648438 138.976562 454.984375 141.835938 454.617188 144.847656 C 456.800781 140.132812 459.5625 136.179688 462.566406 132.589844 C 461.503906 130.550781 460.167969 128.601562 458.5625 126.777344 C 458.957031 128.753906 459.167969 130.703125 459.105469 132.617188 Z M 451.554688 134.960938 C 450.222656 134.535156 448.824219 132.375 447.824219 131.523438 C 449.160156 131.523438 451.222656 130.609375 452.617188 131.035156 C 453.953125 131.460938 455.074219 133.136719 456.042969 134.019531 C 454.859375 134.199219 452.921875 135.386719 451.554688 134.960938 Z M 526.527344 123.460938 C 505.933594 111.109375 486.613281 97.511719 468.601562 82.605469 C 450.585938 97.511719 431.265625 111.109375 410.671875 123.460938 C 420.894531 137.484375 418.769531 144.238281 412.460938 158.507812 C 404.851562 175.664062 411.523438 191.605469 425.351562 202.375 C 439.546875 213.449219 454.859375 219.957031 468.601562 234.710938 C 482.308594 219.957031 497.65625 213.449219 511.847656 202.40625 C 525.679688 191.636719 532.351562 175.695312 524.738281 158.539062 C 518.429688 144.238281 516.304688 137.484375 526.527344 123.460938 Z M 488.917969 160.058594 C 490.011719 166.203125 485.707031 170.097656 481.125 168.273438 C 478.246094 167.148438 476.183594 164.589844 473.664062 162.796875 C 471.9375 161.578125 470.175781 160.148438 470.054688 157.535156 C 469.632812 149.046875 477.425781 145.242188 474.878906 153.335938 C 481.429688 149.351562 483.550781 146.886719 477.546875 145.820312 C 474.484375 145.273438 474.089844 142.992188 468.601562 142.992188 C 463.109375 142.992188 462.746094 145.273438 459.652344 145.820312 C 453.648438 146.886719 455.769531 149.351562 462.320312 153.335938 C 459.804688 145.242188 467.570312 149.046875 467.144531 157.535156 C 467.023438 160.121094 465.292969 161.578125 463.535156 162.796875 C 461.019531 164.589844 458.925781 167.148438 456.074219 168.273438 C 451.464844 170.097656 447.1875 166.203125 448.28125 160.058594 C 449.070312 155.554688 451.132812 151.511719 452.980469 147.585938 C 450.917969 148.589844 449.128906 149.835938 447.613281 151.359375 C 445.035156 149.230469 442.488281 147.070312 439.910156 144.96875 C 436.875 142.503906 438.089844 138.15625 440.636719 133.167969 C 436.753906 127.570312 438.9375 123.277344 451.644531 123.25 C 450.402344 122.273438 449.097656 121.394531 447.550781 120.785156 C 454.074219 108.828125 460.078125 113.117188 468.660156 125.285156 C 477.242188 113.117188 483.21875 108.828125 489.738281 120.785156 C 488.160156 121.394531 486.859375 122.246094 485.644531 123.25 C 498.351562 123.277344 500.535156 127.597656 496.652344 133.167969 C 499.171875 138.15625 500.382812 142.503906 497.382812 144.96875 C 494.804688 147.070312 492.257812 149.230469 489.679688 151.359375 C 488.160156 149.835938 486.402344 148.589844 484.308594 147.585938 C 486.070312 151.511719 488.132812 155.554688 488.917969 160.058594 Z M 476.453125 183.605469 C 476.152344 181.808594 475.394531 180.199219 473.847656 178.921875 C 473.96875 183.210938 471.664062 186.34375 468.570312 189.109375 C 465.507812 186.34375 463.203125 183.238281 463.324219 178.921875 C 461.777344 180.199219 461.019531 181.808594 460.714844 183.605469 C 453.34375 179.773438 455.132812 174.234375 468.601562 166.570312 C 482.066406 174.234375 483.855469 179.773438 476.453125 183.605469 Z M 493.984375 120.328125 C 493.257812 118.808594 492.5 117.347656 491.589844 115.917969 C 499.898438 122.367188 509.90625 126.015625 519.339844 127.203125 C 517.09375 131.1875 515.941406 134.808594 515.546875 138.15625 C 509.511719 135.902344 503.570312 133.621094 502.566406 127.476562 C 501.6875 122.183594 497.898438 121.179688 493.984375 120.328125 Z M 491.4375 105.574219 C 498.441406 110.714844 505.570312 115.734375 512.820312 120.664062 C 505.144531 118.835938 498.320312 114.882812 491.226562 111.660156 C 484.492188 108.554688 478.0625 107.460938 471.632812 114.945312 C 476.183594 106.789062 483.429688 105.300781 491.4375 105.574219 Z M 484.945312 100.765625 C 477.425781 102.652344 473.027344 107.429688 470.175781 113.636719 C 471.390625 106.730469 473.847656 100.585938 477.394531 95.078125 C 479.914062 96.996094 482.398438 98.882812 484.945312 100.765625 Z M 468.601562 88.144531 C 470.539062 89.695312 472.480469 91.214844 474.421875 92.734375 C 471.542969 98.394531 469.722656 104.449219 468.570312 110.777344 C 467.417969 104.480469 465.628906 98.425781 462.746094 92.734375 C 464.71875 91.214844 466.660156 89.695312 468.601562 88.144531 Z M 459.773438 95.046875 C 463.351562 100.554688 465.808594 106.730469 466.992188 113.605469 C 464.113281 107.429688 459.742188 102.625 452.222656 100.738281 C 454.800781 98.882812 457.289062 96.996094 459.773438 95.046875 Z M 445.761719 105.574219 C 453.769531 105.300781 461.046875 106.789062 465.566406 114.972656 C 459.136719 107.460938 452.707031 108.585938 445.976562 111.6875 C 438.878906 114.945312 432.054688 118.867188 424.382812 120.695312 C 431.597656 115.734375 438.757812 110.714844 445.761719 105.574219 Z M 445.609375 115.917969 C 444.703125 117.347656 443.941406 118.808594 443.214844 120.328125 C 439.304688 121.179688 435.511719 122.183594 434.632812 127.476562 C 433.632812 133.621094 427.65625 135.902344 421.652344 138.15625 C 421.226562 134.808594 420.105469 131.1875 417.859375 127.203125 C 427.292969 126.015625 437.300781 122.367188 445.609375 115.917969 Z M 421.652344 143.722656 C 426.140625 141.5625 430.355469 138.914062 434.175781 135.660156 C 432.023438 153.273438 421.347656 156.683594 414.523438 166.171875 C 416.164062 158.691406 420.773438 151.90625 421.652344 143.722656 Z M 418.074219 170.371094 C 423.746094 162.25 431.722656 156.925781 435.480469 146.308594 C 442.394531 152.605469 442.519531 158.324219 434.238281 168.578125 C 427.476562 176.972656 423.199219 187.316406 426.566406 197.050781 C 418.496094 189.234375 411.644531 179.589844 418.074219 170.371094 Z M 448.097656 211.472656 C 436.210938 205.660156 431.207031 198.601562 431.660156 187.957031 C 432.085938 177.308594 441.820312 168.425781 444.125 159.480469 C 444.0625 162.886719 444.609375 166.171875 446.1875 169.671875 C 448.582031 175.027344 448.703125 180.929688 447.007812 186.859375 C 444.578125 195.226562 444.730469 203.378906 448.097656 211.472656 Z M 451.707031 181.992188 C 455.742188 196.414062 464.628906 209.613281 466.445312 225.191406 C 455.710938 213.113281 444.851562 201.128906 451.707031 181.992188 Z M 468.601562 216.519531 C 466.8125 205.75 463.65625 196.167969 459.105469 187.773438 C 462.414062 189.964844 465.6875 192.246094 468.601562 195.074219 C 471.480469 192.246094 474.757812 189.964844 478.0625 187.773438 C 473.542969 196.167969 470.390625 205.75 468.601562 216.519531 Z M 470.753906 225.191406 C 472.574219 209.613281 481.460938 196.414062 485.492188 181.992188 C 492.347656 201.128906 481.488281 213.113281 470.753906 225.191406 Z M 489.101562 211.472656 C 492.46875 203.347656 492.621094 195.226562 490.195312 186.859375 C 488.464844 180.929688 488.617188 175.027344 491.011719 169.671875 C 492.589844 166.171875 493.136719 162.886719 493.074219 159.480469 C 495.410156 168.425781 505.113281 177.308594 505.539062 187.957031 C 505.996094 198.601562 500.960938 205.660156 489.101562 211.472656 Z M 510.636719 197.050781 C 513.972656 187.316406 509.726562 176.972656 502.960938 168.578125 C 494.710938 158.292969 494.832031 152.574219 501.71875 146.308594 C 505.449219 156.957031 513.457031 162.25 519.125 170.371094 C 525.554688 179.589844 518.703125 189.234375 510.636719 197.050781 Z M 502.992188 135.691406 C 506.8125 138.945312 511.027344 141.59375 515.519531 143.753906 C 516.398438 151.9375 521.039062 158.71875 522.613281 166.203125 C 515.820312 156.710938 505.144531 153.273438 502.992188 135.691406 Z M 483.886719 127.964844 C 481.429688 128.480469 480.035156 131.066406 478.09375 132.617188 C 478.03125 130.703125 478.246094 128.753906 478.636719 126.808594 C 477.03125 128.664062 475.695312 130.582031 474.636719 132.617188 C 477.636719 136.238281 480.398438 140.164062 482.582031 144.878906 C 482.21875 141.867188 481.550781 139.007812 480.277344 136.390625 C 483.1875 137.972656 486.21875 138.671875 488.527344 136.574219 C 490.679688 134.597656 492.347656 132.132812 494.257812 129.910156 C 490.800781 129.242188 487.3125 127.203125 483.886719 127.964844 Z M 485.644531 134.960938 C 484.25 135.386719 482.308594 134.199219 481.125 134.046875 C 482.097656 133.167969 483.21875 131.460938 484.550781 131.066406 C 485.949219 130.640625 488.011719 131.554688 489.34375 131.554688 C 488.40625 132.375 487.007812 134.535156 485.644531 134.960938 Z M 485.644531 134.960938 " fill-opacity="1" fill-rule="evenodd"/></g><g fill="#ffffff" fill-opacity="1"><g transform="translate(424.729026, 288.964601)"><g><path d="M 5.96875 0 L 3.734375 -7.90625 L 3.65625 -7.90625 C 3.757812 -6.5625 3.8125 -5.515625 3.8125 -4.765625 L 3.8125 0 L 1.1875 0 L 1.1875 -10.984375 L 5.140625 -10.984375 L 7.4375 -3.1875 L 7.5 -3.1875 L 9.734375 -10.984375 L 13.703125 -10.984375 L 13.703125 0 L 10.96875 0 L 10.96875 -4.8125 C 10.96875 -5.0625 10.972656 -5.335938 10.984375 -5.640625 C 10.992188 -5.953125 11.023438 -6.703125 11.078125 -7.890625 L 11.015625 -7.890625 L 8.796875 0 Z M 5.96875 0 "/></g></g></g><g fill="#ffffff" fill-opacity="1"><g transform="translate(448.83137, 288.964601)"><g><path d="M 7.703125 0 L 1.1875 0 L 1.1875 -10.984375 L 7.703125 -10.984375 L 7.703125 -8.609375 L 4.15625 -8.609375 L 4.15625 -6.875 L 7.453125 -6.875 L 7.453125 -4.5 L 4.15625 -4.5 L 4.15625 -2.421875 L 7.703125 -2.421875 Z M 7.703125 0 "/></g></g></g><g fill="#ffffff" fill-opacity="1"><g transform="translate(466.502549, 288.964601)"><g><path d="M 10.515625 -5.71875 C 10.515625 -3.882812 10.007812 -2.472656 9 -1.484375 C 7.988281 -0.492188 6.566406 0 4.734375 0 L 1.1875 0 L 1.1875 -10.984375 L 4.984375 -10.984375 C 6.753906 -10.984375 8.117188 -10.53125 9.078125 -9.625 C 10.035156 -8.726562 10.515625 -7.425781 10.515625 -5.71875 Z M 7.4375 -5.625 C 7.4375 -6.625 7.234375 -7.367188 6.828125 -7.859375 C 6.429688 -8.347656 5.828125 -8.59375 5.015625 -8.59375 L 4.15625 -8.59375 L 4.15625 -2.4375 L 4.8125 -2.4375 C 5.71875 -2.4375 6.378906 -2.695312 6.796875 -3.21875 C 7.222656 -3.738281 7.4375 -4.539062 7.4375 -5.625 Z M 7.4375 -5.625 "/></g></g></g><g fill="#ffffff" fill-opacity="1"><g transform="translate(487.021179, 288.964601)"><g><path d="M 1.1875 0 L 1.1875 -10.984375 L 4.171875 -10.984375 L 4.171875 0 Z M 1.1875 0 "/></g></g></g><g fill="#ffffff" fill-opacity="1"><g transform="translate(501.604498, 288.964601)"><g><path d="M 7.921875 0 L 7.390625 -2.0625 L 3.8125 -2.0625 L 3.265625 0 L 0 0 L 3.578125 -11.03125 L 7.546875 -11.03125 L 11.171875 0 Z M 6.765625 -4.5 L 6.296875 -6.296875 C 6.179688 -6.703125 6.046875 -7.222656 5.890625 -7.859375 C 5.734375 -8.492188 5.628906 -8.945312 5.578125 -9.21875 C 5.535156 -8.96875 5.445312 -8.546875 5.3125 -7.953125 C 5.1875 -7.367188 4.894531 -6.21875 4.4375 -4.5 Z M 6.765625 -4.5 "/></g></g></g><g fill="#ffffff" fill-opacity="1"><g transform="translate(386.795435, 266.228553)"><g><path d="M 1.1875 0 L 1.1875 -10.984375 L 4.15625 -10.984375 L 4.15625 -2.390625 L 8.390625 -2.390625 L 8.390625 0 Z M 1.1875 0 "/></g></g></g><g fill="#ffffff" fill-opacity="1"><g transform="translate(404.977501, 266.228553)"><g><path d="M 1.1875 0 L 1.1875 -10.984375 L 4.171875 -10.984375 L 4.171875 0 Z M 1.1875 0 "/></g></g></g><g fill="#ffffff" fill-opacity="1"><g transform="translate(419.560823, 266.228553)"><g><path d="M 11.46875 -5.515625 C 11.46875 -3.660156 11.015625 -2.25 10.109375 -1.28125 C 9.203125 -0.320312 7.875 0.15625 6.125 0.15625 C 4.40625 0.15625 3.082031 -0.328125 2.15625 -1.296875 C 1.238281 -2.265625 0.78125 -3.675781 0.78125 -5.53125 C 0.78125 -7.351562 1.238281 -8.742188 2.15625 -9.703125 C 3.070312 -10.671875 4.398438 -11.15625 6.140625 -11.15625 C 7.890625 -11.15625 9.210938 -10.675781 10.109375 -9.71875 C 11.015625 -8.757812 11.46875 -7.359375 11.46875 -5.515625 Z M 3.90625 -5.515625 C 3.90625 -3.390625 4.644531 -2.328125 6.125 -2.328125 C 6.875 -2.328125 7.429688 -2.582031 7.796875 -3.09375 C 8.160156 -3.613281 8.34375 -4.421875 8.34375 -5.515625 C 8.34375 -6.609375 8.15625 -7.414062 7.78125 -7.9375 C 7.414062 -8.457031 6.867188 -8.71875 6.140625 -8.71875 C 4.648438 -8.71875 3.90625 -7.648438 3.90625 -5.515625 Z M 3.90625 -5.515625 "/></g></g></g><g fill="#ffffff" fill-opacity="1"><g transform="translate(441.048631, 266.228553)"><g><path d="M 11.640625 0 L 7.75 0 L 3.75 -7.734375 L 3.671875 -7.734375 C 3.765625 -6.523438 3.8125 -5.597656 3.8125 -4.953125 L 3.8125 0 L 1.1875 0 L 1.1875 -10.984375 L 5.0625 -10.984375 L 9.0625 -3.359375 L 9.109375 -3.359375 C 9.035156 -4.460938 9 -5.347656 9 -6.015625 L 9 -10.984375 L 11.640625 -10.984375 Z M 11.640625 0 "/></g></g></g><g fill="#ffffff" fill-opacity="1"><g transform="translate(463.107425, 266.228553)"><g><path d="M 8.375 -3.34375 C 8.375 -2.65625 8.195312 -2.046875 7.84375 -1.515625 C 7.5 -0.992188 7 -0.582031 6.34375 -0.28125 C 5.695312 0.0078125 4.9375 0.15625 4.0625 0.15625 C 3.332031 0.15625 2.71875 0.101562 2.21875 0 C 1.726562 -0.101562 1.210938 -0.285156 0.671875 -0.546875 L 0.671875 -3.1875 C 1.242188 -2.894531 1.832031 -2.664062 2.4375 -2.5 C 3.050781 -2.34375 3.613281 -2.265625 4.125 -2.265625 C 4.5625 -2.265625 4.882812 -2.335938 5.09375 -2.484375 C 5.300781 -2.640625 5.40625 -2.835938 5.40625 -3.078125 C 5.40625 -3.234375 5.363281 -3.363281 5.28125 -3.46875 C 5.195312 -3.582031 5.0625 -3.695312 4.875 -3.8125 C 4.695312 -3.925781 4.210938 -4.164062 3.421875 -4.53125 C 2.703125 -4.851562 2.160156 -5.164062 1.796875 -5.46875 C 1.441406 -5.769531 1.175781 -6.117188 1 -6.515625 C 0.832031 -6.910156 0.75 -7.378906 0.75 -7.921875 C 0.75 -8.941406 1.113281 -9.734375 1.84375 -10.296875 C 2.582031 -10.859375 3.597656 -11.140625 4.890625 -11.140625 C 6.023438 -11.140625 7.1875 -10.878906 8.375 -10.359375 L 7.46875 -8.0625 C 6.4375 -8.53125 5.546875 -8.765625 4.796875 -8.765625 C 4.410156 -8.765625 4.128906 -8.695312 3.953125 -8.5625 C 3.785156 -8.425781 3.703125 -8.257812 3.703125 -8.0625 C 3.703125 -7.84375 3.8125 -7.648438 4.03125 -7.484375 C 4.25 -7.316406 4.851562 -7.003906 5.84375 -6.546875 C 6.789062 -6.128906 7.445312 -5.675781 7.8125 -5.1875 C 8.1875 -4.695312 8.375 -4.082031 8.375 -3.34375 Z M 8.375 -3.34375 "/></g></g></g><g fill="#ffffff" fill-opacity="1"><g transform="translate(481.214357, 266.228553)"><g><path d="M 10.609375 0 L 7.625 0 L 7.625 -4.484375 L 4.171875 -4.484375 L 4.171875 0 L 1.1875 0 L 1.1875 -10.984375 L 4.171875 -10.984375 L 4.171875 -6.90625 L 7.625 -6.90625 L 7.625 -10.984375 L 10.609375 -10.984375 Z M 10.609375 0 "/></g></g></g><g fill="#ffffff" fill-opacity="1"><g transform="translate(502.228843, 266.228553)"><g><path d="M 7.921875 0 L 7.390625 -2.0625 L 3.8125 -2.0625 L 3.265625 0 L 0 0 L 3.578125 -11.03125 L 7.546875 -11.03125 L 11.171875 0 Z M 6.765625 -4.5 L 6.296875 -6.296875 C 6.179688 -6.703125 6.046875 -7.222656 5.890625 -7.859375 C 5.734375 -8.492188 5.628906 -8.945312 5.578125 -9.21875 C 5.535156 -8.96875 5.445312 -8.546875 5.3125 -7.953125 C 5.1875 -7.367188 4.894531 -6.21875 4.4375 -4.5 Z M 6.765625 -4.5 "/></g></g></g><g fill="#ffffff" fill-opacity="1"><g transform="translate(522.627259, 266.228553)"><g><path d="M 4.15625 -4 L 4.15625 0 L 1.1875 0 L 1.1875 -10.984375 L 4.78125 -10.984375 C 7.769531 -10.984375 9.265625 -9.898438 9.265625 -7.734375 C 9.265625 -6.460938 8.644531 -5.476562 7.40625 -4.78125 L 10.609375 0 L 7.234375 0 L 4.90625 -4 Z M 4.15625 -6.234375 L 4.71875 -6.234375 C 5.75 -6.234375 6.265625 -6.691406 6.265625 -7.609375 C 6.265625 -8.359375 5.753906 -8.734375 4.734375 -8.734375 L 4.15625 -8.734375 Z M 4.15625 -6.234375 "/></g></g></g><g fill="#ffffff" fill-opacity="1"><g transform="translate(542.266853, 266.228553)"><g><path d="M 7.703125 0 L 1.1875 0 L 1.1875 -10.984375 L 7.703125 -10.984375 L 7.703125 -8.609375 L 4.15625 -8.609375 L 4.15625 -6.875 L 7.453125 -6.875 L 7.453125 -4.5 L 4.15625 -4.5 L 4.15625 -2.421875 L 7.703125 -2.421875 Z M 7.703125 0 "/></g></g></g></svg>