<?xml version="1.0" encoding="UTF-8"?><svg id="Layer_12" xmlns="http://www.w3.org/2000/svg" xmlns:xlink="http://www.w3.org/1999/xlink" viewBox="0 0 396 396"><defs><style>.cls-1{fill:#fff;}.cls-2{fill:#00001b;filter:url(#outer-glow-1);stroke:#fff;stroke-miterlimit:10;stroke-width:6px;}</style><filter id="outer-glow-1" filterUnits="userSpaceOnUse"><feOffset dx="0" dy="0"/><feGaussianBlur result="blur" stdDeviation="18"/><feFlood flood-color="#0f0ff7" flood-opacity=".75"/><feComposite in2="blur" operator="in"/><feComposite in="SourceGraphic"/></filter></defs><circle class="cls-2" cx="197.91" cy="197.99" r="140.87"/><rect class="cls-1" x="176.41" y="233.3" width="43.01" height="17.23"/><circle class="cls-1" cx="197.91" cy="250.52" r="14.43"/><path class="cls-1" d="M197.91,152.2c-21.58,0-39.08,17.49-39.08,39.08,0,14.29,7.7,26.76,19.15,33.57h15.44v-13.4c-5.78-1.68-10.04-6.96-10.04-13.28v-4.4h8.52v4.4c0,2.96,2.41,5.37,5.37,5.37h.82c2.96,0,5.37-2.41,5.37-5.37v-4.4h8.52v4.4c0,6.31-4.26,11.59-10.04,13.28v13.4h15.89c11.45-6.81,19.15-19.28,19.15-33.57,0-21.58-17.49-39.08-39.08-39.08Z"/><rect class="cls-1" x="194.18" y="133.87" width="7.47" height="12.43" rx=".98" ry=".98"/><rect class="cls-1" x="167.7" y="140.08" width="7.47" height="12.43" rx=".98" ry=".98" transform="translate(-50.18 105.32) rotate(-30)"/><rect class="cls-1" x="148.65" y="159.14" width="7.47" height="12.43" rx=".98" ry=".98" transform="translate(-67 214.65) rotate(-60)"/><rect class="cls-1" x="142.44" y="185.07" width="7.47" height="12.43" rx=".98" ry=".98" transform="translate(-45.11 337.46) rotate(-90)"/><rect class="cls-1" x="220.18" y="140.08" width="7.47" height="12.43" rx=".98" ry=".98" transform="translate(344.67 384.95) rotate(-150)"/><rect class="cls-1" x="239.23" y="159.14" width="7.47" height="12.43" rx=".98" ry=".98" transform="translate(221.25 458.44) rotate(-120)"/><rect class="cls-1" x="245.44" y="185.07" width="7.47" height="12.43" rx=".98" ry=".98" transform="translate(57.89 440.46) rotate(-90)"/></svg>