<svg xmlns="http://www.w3.org/2000/svg" xmlns:xlink="http://www.w3.org/1999/xlink" width="1250" zoomAndPan="magnify" viewBox="0 0 937.5 374.999991" height="500" preserveAspectRatio="xMidYMid meet" version="1.0"><defs><g/><clipPath id="36d3e5ff0f"><path d="M 0 0.101562 L 937 0.101562 L 937 374.898438 L 0 374.898438 Z M 0 0.101562 " clip-rule="nonzero"/></clipPath></defs><g clip-path="url(#36d3e5ff0f)"><path fill="#ffffff" d="M 0 0.101562 L 937.5 0.101562 L 937.5 375.101562 L 0 375.101562 Z M 0 0.101562 " fill-opacity="1" fill-rule="nonzero"/><path fill="#000000" d="M 0 0.101562 L 937.5 0.101562 L 937.5 375.101562 L 0 375.101562 Z M 0 0.101562 " fill-opacity="1" fill-rule="nonzero"/></g><g fill="#ffffff" fill-opacity="1"><g transform="translate(329.653078, 202.201437)"><g><path d="M 32.6875 -11.671875 C 32.6875 -11.085938 32.613281 -10.03125 32.46875 -8.5 C 32.320312 -6.96875 31.8125 -5.398438 30.9375 -3.796875 C 30.0625 -2.191406 28.671875 -0.769531 26.765625 0.46875 C 24.867188 1.707031 22.171875 2.328125 18.671875 2.328125 C 15.171875 2.328125 12.472656 1.707031 10.578125 0.46875 C 8.679688 -0.769531 7.296875 -2.191406 6.421875 -3.796875 C 5.546875 -5.398438 5.035156 -6.96875 4.890625 -8.5 C 4.742188 -10.03125 4.671875 -11.085938 4.671875 -11.671875 L 4.671875 -114.390625 C 4.671875 -114.773438 4.691406 -115.359375 4.734375 -116.140625 C 4.785156 -116.921875 4.929688 -117.785156 5.171875 -118.734375 C 5.421875 -119.679688 5.835938 -120.648438 6.421875 -121.640625 C 7.003906 -122.640625 7.804688 -123.550781 8.828125 -124.375 C 9.847656 -125.207031 11.160156 -125.878906 12.765625 -126.390625 C 14.367188 -126.898438 16.335938 -127.15625 18.671875 -127.15625 C 21.003906 -127.15625 22.972656 -126.898438 24.578125 -126.390625 C 26.191406 -125.878906 27.507812 -125.207031 28.53125 -124.375 C 29.550781 -123.550781 30.351562 -122.640625 30.9375 -121.640625 C 31.519531 -120.648438 31.929688 -119.679688 32.171875 -118.734375 C 32.410156 -117.785156 32.554688 -116.921875 32.609375 -116.140625 C 32.660156 -115.359375 32.6875 -114.773438 32.6875 -114.390625 Z M 14 -11.671875 C 14 -11.085938 14.023438 -10.394531 14.078125 -9.59375 C 14.128906 -8.789062 14.300781 -8.023438 14.59375 -7.296875 C 14.882812 -6.566406 15.34375 -5.945312 15.96875 -5.4375 C 16.601562 -4.925781 17.503906 -4.671875 18.671875 -4.671875 C 19.835938 -4.671875 20.738281 -4.925781 21.375 -5.4375 C 22.007812 -5.945312 22.472656 -6.566406 22.765625 -7.296875 C 23.054688 -8.023438 23.222656 -8.789062 23.265625 -9.59375 C 23.316406 -10.394531 23.34375 -11.085938 23.34375 -11.671875 L 23.34375 -114.390625 C 23.34375 -114.972656 23.316406 -115.601562 23.265625 -116.28125 C 23.222656 -116.96875 23.054688 -117.585938 22.765625 -118.140625 C 22.472656 -118.703125 22.007812 -119.175781 21.375 -119.5625 C 20.738281 -119.957031 19.835938 -120.15625 18.671875 -120.15625 C 17.503906 -120.15625 16.601562 -119.957031 15.96875 -119.5625 C 15.34375 -119.175781 14.882812 -118.703125 14.59375 -118.140625 C 14.300781 -117.585938 14.128906 -116.96875 14.078125 -116.28125 C 14.023438 -115.601562 14 -114.972656 14 -114.390625 Z M 14 -11.671875 "/></g></g></g><g fill="#ffffff" fill-opacity="1"><g transform="translate(382.841521, 202.201437)"><g><path d="M 32.6875 -74.703125 C 32.6875 -71.203125 32.101562 -68.769531 30.9375 -67.40625 C 29.769531 -66.039062 28.015625 -65.359375 25.671875 -65.359375 C 26.847656 -65.359375 27.875 -65.09375 28.75 -64.5625 C 29.625 -64.03125 30.351562 -63.328125 30.9375 -62.453125 C 31.519531 -61.578125 31.957031 -60.578125 32.25 -59.453125 C 32.539062 -58.335938 32.6875 -57.195312 32.6875 -56.03125 L 32.6875 0 L 23.34375 0 L 23.34375 -58.359375 C 23.34375 -59.523438 23.070312 -60.425781 22.53125 -61.0625 C 22 -61.695312 21.296875 -62.160156 20.421875 -62.453125 C 19.546875 -62.742188 18.546875 -62.910156 17.421875 -62.953125 C 16.304688 -63.003906 15.164062 -63.03125 14 -63.03125 L 14 0 L 4.671875 0 L 4.671875 -126.0625 L 14 -126.0625 C 16.34375 -126.0625 18.628906 -126 20.859375 -125.875 C 23.097656 -125.757812 25.09375 -125.335938 26.84375 -124.609375 C 28.59375 -123.878906 30.003906 -122.722656 31.078125 -121.140625 C 32.148438 -119.554688 32.6875 -117.304688 32.6875 -114.390625 Z M 23.34375 -114.390625 C 23.34375 -115.554688 23.179688 -116.453125 22.859375 -117.078125 C 22.546875 -117.710938 22.023438 -118.175781 21.296875 -118.46875 C 20.566406 -118.757812 19.609375 -118.929688 18.421875 -118.984375 C 17.234375 -119.035156 15.757812 -119.0625 14 -119.0625 L 14 -67.703125 C 15.164062 -67.703125 16.304688 -67.722656 17.421875 -67.765625 C 18.546875 -67.816406 19.546875 -67.988281 20.421875 -68.28125 C 21.296875 -68.570312 22 -69.035156 22.53125 -69.671875 C 23.070312 -70.304688 23.34375 -71.207031 23.34375 -72.375 Z M 23.34375 -114.390625 "/></g></g></g><g fill="#ffffff" fill-opacity="1"><g transform="translate(436.029964, 202.201437)"><g><path d="M 15.171875 -126.0625 L 15.171875 0 L 5.84375 0 L 5.84375 -126.0625 Z M 15.171875 -126.0625 "/></g></g></g><g fill="#ffffff" fill-opacity="1"><g transform="translate(472.877329, 202.201437)"><g><path d="M 32.6875 -74.703125 L 23.34375 -74.703125 L 23.34375 -114.390625 C 23.34375 -114.972656 23.316406 -115.601562 23.265625 -116.28125 C 23.222656 -116.96875 23.054688 -117.585938 22.765625 -118.140625 C 22.472656 -118.703125 22.007812 -119.175781 21.375 -119.5625 C 20.738281 -119.957031 19.835938 -120.15625 18.671875 -120.15625 C 17.503906 -120.15625 16.601562 -119.957031 15.96875 -119.5625 C 15.34375 -119.175781 14.882812 -118.703125 14.59375 -118.140625 C 14.300781 -117.585938 14.128906 -116.96875 14.078125 -116.28125 C 14.023438 -115.601562 14 -114.972656 14 -114.390625 L 14 -11.671875 C 14 -11.085938 14.023438 -10.394531 14.078125 -9.59375 C 14.128906 -8.789062 14.300781 -8.023438 14.59375 -7.296875 C 14.882812 -6.566406 15.34375 -5.945312 15.96875 -5.4375 C 16.601562 -4.925781 17.503906 -4.671875 18.671875 -4.671875 C 19.835938 -4.671875 20.738281 -4.925781 21.375 -5.4375 C 22.007812 -5.945312 22.472656 -6.566406 22.765625 -7.296875 C 23.054688 -8.023438 23.222656 -8.789062 23.265625 -9.59375 C 23.316406 -10.394531 23.34375 -11.085938 23.34375 -11.671875 L 23.34375 -58.359375 L 21.015625 -58.359375 L 21.015625 -65.359375 L 32.6875 -65.359375 L 32.6875 -11.671875 C 32.6875 -11.085938 32.613281 -10.03125 32.46875 -8.5 C 32.320312 -6.96875 31.8125 -5.398438 30.9375 -3.796875 C 30.0625 -2.191406 28.671875 -0.769531 26.765625 0.46875 C 24.867188 1.707031 22.171875 2.328125 18.671875 2.328125 C 15.171875 2.328125 12.472656 1.707031 10.578125 0.46875 C 8.679688 -0.769531 7.296875 -2.191406 6.421875 -3.796875 C 5.546875 -5.398438 5.035156 -6.96875 4.890625 -8.5 C 4.742188 -10.03125 4.671875 -11.085938 4.671875 -11.671875 L 4.671875 -114.390625 C 4.671875 -114.773438 4.691406 -115.359375 4.734375 -116.140625 C 4.785156 -116.921875 4.929688 -117.785156 5.171875 -118.734375 C 5.421875 -119.679688 5.835938 -120.648438 6.421875 -121.640625 C 7.003906 -122.640625 7.804688 -123.550781 8.828125 -124.375 C 9.847656 -125.207031 11.160156 -125.878906 12.765625 -126.390625 C 14.367188 -126.898438 16.335938 -127.15625 18.671875 -127.15625 C 21.003906 -127.15625 22.972656 -126.898438 24.578125 -126.390625 C 26.191406 -125.878906 27.507812 -125.207031 28.53125 -124.375 C 29.550781 -123.550781 30.351562 -122.640625 30.9375 -121.640625 C 31.519531 -120.648438 31.929688 -119.679688 32.171875 -118.734375 C 32.410156 -117.785156 32.554688 -116.921875 32.609375 -116.140625 C 32.660156 -115.359375 32.6875 -114.773438 32.6875 -114.390625 Z M 32.6875 -74.703125 "/></g></g></g><g fill="#ffffff" fill-opacity="1"><g transform="translate(526.065772, 202.201437)"><g><path d="M 15.171875 -126.0625 L 15.171875 0 L 5.84375 0 L 5.84375 -126.0625 Z M 15.171875 -126.0625 "/></g></g></g><g fill="#ffffff" fill-opacity="1"><g transform="translate(562.913137, 202.201437)"><g><path d="M 32.6875 0 L 23.34375 0 L 11.671875 -93.375 L 11.671875 0 L 4.671875 0 L 4.671875 -126.0625 L 14 -126.0625 L 25.671875 -32.6875 L 25.671875 -126.0625 L 32.6875 -126.0625 Z M 32.6875 0 "/></g></g></g><g fill="#ffffff" fill-opacity="1"><g transform="translate(616.10158, 202.201437)"><g><path d="M 21.015625 -30.71875 C 21.015625 -35.875 20.742188 -40.296875 20.203125 -43.984375 C 19.671875 -47.679688 18.96875 -50.90625 18.09375 -53.65625 C 17.21875 -56.40625 16.21875 -58.800781 15.09375 -60.84375 C 13.976562 -62.882812 12.835938 -64.800781 11.671875 -66.59375 C 10.503906 -68.394531 9.359375 -70.195312 8.234375 -72 C 7.117188 -73.800781 6.125 -75.84375 5.25 -78.125 C 4.375 -80.414062 3.664062 -83.054688 3.125 -86.046875 C 2.59375 -89.035156 2.328125 -92.625 2.328125 -96.8125 L 2.328125 -114.390625 C 2.328125 -115.554688 2.507812 -116.878906 2.875 -118.359375 C 3.238281 -119.847656 3.929688 -121.234375 4.953125 -122.515625 C 5.984375 -123.804688 7.410156 -124.898438 9.234375 -125.796875 C 11.054688 -126.703125 13.425781 -127.15625 16.34375 -127.15625 C 19.257812 -127.15625 21.628906 -126.703125 23.453125 -125.796875 C 25.273438 -124.898438 26.695312 -123.804688 27.71875 -122.515625 C 28.738281 -121.234375 29.429688 -119.847656 29.796875 -118.359375 C 30.160156 -116.878906 30.34375 -115.554688 30.34375 -114.390625 L 30.34375 -81.703125 L 21.015625 -81.703125 L 21.015625 -114.390625 C 21.015625 -115.554688 20.878906 -116.515625 20.609375 -117.265625 C 20.335938 -118.023438 19.984375 -118.609375 19.546875 -119.015625 C 19.109375 -119.429688 18.609375 -119.722656 18.046875 -119.890625 C 17.492188 -120.066406 16.925781 -120.15625 16.34375 -120.15625 C 15.757812 -120.15625 15.1875 -120.066406 14.625 -119.890625 C 14.0625 -119.722656 13.5625 -119.429688 13.125 -119.015625 C 12.6875 -118.609375 12.332031 -118.023438 12.0625 -117.265625 C 11.800781 -116.515625 11.671875 -115.554688 11.671875 -114.390625 L 11.671875 -100.15625 C 11.671875 -94.664062 12.128906 -90.070312 13.046875 -86.375 C 13.972656 -82.675781 15.128906 -79.453125 16.515625 -76.703125 C 17.910156 -73.960938 19.410156 -71.472656 21.015625 -69.234375 C 22.617188 -66.992188 24.113281 -64.570312 25.5 -61.96875 C 26.882812 -59.363281 28.035156 -56.347656 28.953125 -52.921875 C 29.878906 -49.492188 30.34375 -45.226562 30.34375 -40.125 L 30.34375 -11.671875 C 30.34375 -11.085938 30.269531 -10.03125 30.125 -8.5 C 29.976562 -6.96875 29.46875 -5.398438 28.59375 -3.796875 C 27.71875 -2.191406 26.332031 -0.769531 24.4375 0.46875 C 22.539062 1.707031 19.84375 2.328125 16.34375 2.328125 C 12.84375 2.328125 10.144531 1.707031 8.25 0.46875 C 6.351562 -0.769531 4.960938 -2.191406 4.078125 -3.796875 C 3.203125 -5.398438 2.691406 -6.96875 2.546875 -8.5 C 2.398438 -10.03125 2.328125 -11.085938 2.328125 -11.671875 L 2.328125 -53.6875 L 11.671875 -53.6875 L 11.671875 -11.671875 C 11.671875 -11.085938 11.691406 -10.394531 11.734375 -9.59375 C 11.785156 -8.789062 11.957031 -8.023438 12.25 -7.296875 C 12.539062 -6.566406 13.003906 -5.945312 13.640625 -5.4375 C 14.273438 -4.925781 15.175781 -4.671875 16.34375 -4.671875 C 17.507812 -4.671875 18.40625 -4.925781 19.03125 -5.4375 C 19.664062 -5.945312 20.128906 -6.566406 20.421875 -7.296875 C 20.710938 -8.023438 20.882812 -8.789062 20.9375 -9.59375 C 20.988281 -10.394531 21.015625 -11.085938 21.015625 -11.671875 Z M 21.015625 -30.71875 "/></g></g></g></svg>