<?xml version="1.0" encoding="UTF-8"?><svg id="Layer_10" xmlns="http://www.w3.org/2000/svg" xmlns:xlink="http://www.w3.org/1999/xlink" viewBox="0 0 394.8 394.8"><defs><style>.cls-1{fill:#fff;}.cls-2{fill:#005eff;filter:url(#outer-glow-1);}</style><filter id="outer-glow-1" filterUnits="userSpaceOnUse"><feOffset dx="0" dy="0"/><feGaussianBlur result="blur" stdDeviation="18"/><feFlood flood-color="#0043ff" flood-opacity=".75"/><feComposite in2="blur" operator="in"/><feComposite in="SourceGraphic"/></filter></defs><circle class="cls-2" cx="197.82" cy="198.02" r="142.62"/><path class="cls-1" d="M163.44,255.61h71.21c1.93,0,3.49,1.56,3.49,3.49v14.73h-78.35v-14.57c0-2.02,1.64-3.65,3.65-3.65Z"/><path class="cls-1" d="M209.74,231.7h-21.29c-2.41,0-4.59,1.44-5.54,3.66l-5.01,11.72h42.65l-4.91-11.48c-1.01-2.36-3.33-3.89-5.9-3.89Z"/><path class="cls-1" d="M222.34,204.32h52.66v2.54c0,13.71-11.13,24.84-24.84,24.84h-3.51c-13.41,0-24.3-10.89-24.3-24.3v-3.08h0Z"/><path class="cls-1" d="M123.69,204.32h52.66v3.11c0,13.39-10.87,24.27-24.27,24.27h-4.46c-13.21,0-23.93-10.72-23.93-23.93v-3.45h0Z"/><rect class="cls-1" x="195.8" y="122.18" width="7.16" height="111.84"/><g><path class="cls-1" d="M273.59,212.52l-19.32-54.53h-11.19l-19.32,54.53h49.83Zm-10.24-7.23h-29.36l14.68-41.43,14.68,41.43Z"/><path class="cls-1" d="M125.1,212.52h49.83l-19.32-54.53h-11.19l-19.32,54.53Zm10.24-7.23l14.68-41.43,14.68,41.43h-29.36Z"/><polygon class="cls-1" points="152.88 150.27 155.61 157.98 243.08 157.98 245.81 150.27 152.88 150.27"/><polygon class="cls-1" points="133.22 150.27 133.22 157.98 144.43 157.98 147.16 150.27 133.22 150.27"/><polygon class="cls-1" points="264.95 157.98 264.95 150.27 251.53 150.27 254.26 157.98 264.95 157.98"/><polygon class="cls-1" points="251.53 150.27 245.81 150.27 243.08 157.98 254.26 157.98 251.53 150.27"/><polygon class="cls-1" points="147.16 150.27 144.43 157.98 155.61 157.98 152.88 150.27 147.16 150.27"/></g><circle class="cls-1" cx="199.39" cy="154.13" r="11.53"/></svg>