<?xml version="1.0" encoding="UTF-8"?><svg id="Layer_5" xmlns="http://www.w3.org/2000/svg" xmlns:xlink="http://www.w3.org/1999/xlink" viewBox="0 0 394.8 394.8"><defs><style>.cls-1{fill:#fff;}.cls-2{fill:#005eff;filter:url(#outer-glow-1);}</style><filter id="outer-glow-1" filterUnits="userSpaceOnUse"><feOffset dx="0" dy="0"/><feGaussianBlur result="blur" stdDeviation="18"/><feFlood flood-color="#0043ff" flood-opacity=".75"/><feComposite in2="blur" operator="in"/><feComposite in="SourceGraphic"/></filter></defs><circle class="cls-2" cx="197.73" cy="198.03" r="142.68"/><path class="cls-1" d="M144.81,203.25c.99-8.99,4.54-17.19,9.91-23.89l-21.36-21.36c-10.73,12.26-17.6,27.97-18.75,45.25h30.2Z"/><path class="cls-1" d="M161.97,172.1c6.7-5.37,14.9-8.92,23.89-9.91v-30.2c-17.28,1.14-32.99,8.02-45.25,18.75l21.36,21.36Z"/><path class="cls-1" d="M196.12,132v30.2c8.99,.99,17.19,4.54,23.89,9.91l21.36-21.36c-12.26-10.73-27.97-17.6-45.25-18.75Z"/><path class="cls-1" d="M157.73,240.91c-6.59-6.15-11.93-18.41-12.92-27.4h-30.2c1.14,17.28,11.33,38.39,22.76,49.52l20.36-22.12Z"/><path class="cls-1" d="M227.27,179.35c5.37,6.7,8.92,14.9,9.91,23.89h30.2c-1.14-17.28-8.02-32.99-18.75-45.25l-21.36,21.36Z"/><circle class="cls-1" cx="191.13" cy="209.01" r="13.99"/><circle class="cls-1" cx="226.61" cy="244.21" r="5.68"/><polygon class="cls-1" points="230.41 240 222.4 248.01 183.08 220.45 201.79 199.97 230.41 240"/><path class="cls-1" d="M237.18,213.5c-.8,7.28-2.04,11.11-4.3,15.15,11.01,7.55,11.44,17.46,3.62,27.27l7.18,10.29c11.42-11.62,22.55-35.42,23.7-52.7h-30.2Z"/></svg>