<?xml version="1.0" encoding="UTF-8"?><svg id="Layer_7" xmlns="http://www.w3.org/2000/svg" xmlns:xlink="http://www.w3.org/1999/xlink" viewBox="0 0 394.8 394.8"><defs><style>.cls-1{fill:#fff;}.cls-2{fill:#005eff;filter:url(#outer-glow-1);}</style><filter id="outer-glow-1" filterUnits="userSpaceOnUse"><feOffset dx="0" dy="0"/><feGaussianBlur result="blur" stdDeviation="18"/><feFlood flood-color="#0043ff" flood-opacity=".75"/><feComposite in2="blur" operator="in"/><feComposite in="SourceGraphic"/></filter></defs><circle class="cls-2" cx="197.78" cy="197.95" r="142.63"/><circle class="cls-1" cx="193.73" cy="167.8" r="17.84"/><path class="cls-1" d="M241.72,178.52c1.05-4.71-7.49-9.96-7.92-14.52-.45-4.72,6.91-11.48,5.07-15.74-1.87-4.3-11.85-3.56-14.95-7.08-3.07-3.49-1.06-13.31-5.14-15.72-3.94-2.33-11.55,4.12-16.26,3.07-4.71-1.05-8.85-10.13-13.4-9.7-4.72,.45-7.09,10.19-11.35,12.04-4.3,1.87-13.02-3.06-16.54,.04-3.49,3.07,.29,12.32-2.12,16.4-2.33,3.94-12.3,5.05-13.35,9.76s7.49,9.96,7.92,14.52c.45,4.72-6.91,11.48-5.07,15.74,1.87,4.3,11.85,3.56,14.95,7.08,3.07,3.49,1.06,13.31,5.14,15.72,3.94,2.33,11.55-4.12,16.26-3.07,4.71,1.05,8.85,10.13,13.4,9.7,4.72-.45,7.09-10.19,11.35-12.04,4.3-1.87,13.02,3.06,16.54-.04,3.49-3.07-.29-12.32,2.12-16.4,2.33-3.94,12.3-5.05,13.35-9.76Zm-54.36,17.75c-15.73-3.52-25.63-19.12-22.11-34.84,3.52-15.73,19.12-25.63,34.84-22.11,15.73,3.52,25.63,19.12,22.11,34.84-3.52,15.73-19.12,25.63-34.84,22.11Z"/><path class="cls-1" d="M164.54,216.78c-1.98,10.54-5.95,21.44-10.9,32.52-.13,.38,.29,.72,.63,.51,7.71-3.28,14.5-7.03,19.78-11.59,2.85,8.24,6.77,16.05,11.39,23.58,3.77-14.23,7.76-27.21,12.33-36.81-4.01-3.04-8.36-5.47-13.02-7.35-5.48-1.04-12.53-1.15-20.23-.87Z"/><path class="cls-1" d="M218.06,209.89l-15.3,32.15c4.79,8.71,8.54,19.88,11.75,32.37,4.34-9.02,7.94-17.58,9.42-24.83,5.76,4.63,13.48,8.55,21.84,12.23-8.35-14.54-13.49-36.69-19.79-50.86-3.07-.67-6.43-1.05-7.93-1.05Z"/></svg>