<?xml version="1.0" encoding="UTF-8"?><svg id="Layer_14" xmlns="http://www.w3.org/2000/svg" xmlns:xlink="http://www.w3.org/1999/xlink" viewBox="0 0 396.96 396.96"><defs><style>.cls-1{fill:#fff;}.cls-2{fill:#00001b;filter:url(#outer-glow-1);stroke:#fff;stroke-miterlimit:10;stroke-width:7px;}</style><filter id="outer-glow-1" filterUnits="userSpaceOnUse"><feOffset dx="0" dy="0"/><feGaussianBlur result="blur" stdDeviation="18"/><feFlood flood-color="#0f0ff7" flood-opacity=".75"/><feComposite in2="blur" operator="in"/><feComposite in="SourceGraphic"/></filter></defs><circle class="cls-2" cx="198.48" cy="198.48" r="140.87"/><path class="cls-1" d="M142.68,210.96h26.99c1.37,0,2.49,1.12,2.49,2.49v34.8h-31.93v-34.83c0-1.35,1.1-2.45,2.45-2.45Z"/><path class="cls-1" d="M184.97,188.57h26.99c1.37,0,2.49,1.12,2.49,2.49v57.19h-31.93v-57.23c0-1.35,1.1-2.45,2.45-2.45Z"/><path class="cls-1" d="M230.12,165.96h26.99c1.37,0,2.49,1.12,2.49,2.49v79.8h-31.93v-79.84c0-1.35,1.1-2.45,2.45-2.45Z"/><rect class="cls-1" x="134.45" y="257.04" width="130.5" height="8.14" rx=".71" ry=".71"/><path class="cls-1" d="M185.3,140.57l-14.89,.29,10.84,10.84-37.08,37.08c-.73,.73-.73,1.91,0,2.64l4.86,4.86c.73,.73,1.91,.73,2.64,0l37.08-37.08,10.84,10.84,.29-14.89,.29-14.89-14.89,.29Z"/></svg>