<svg xmlns="http://www.w3.org/2000/svg" xmlns:xlink="http://www.w3.org/1999/xlink" width="40" zoomAndPan="magnify" viewBox="0 0 30 30.000001" height="40" preserveAspectRatio="xMidYMid meet" version="1.0"><defs><clipPath id="6f24aa3c5e"><path d="M 0.484375 0 L 29.515625 0 L 29.515625 29.03125 L 0.484375 29.03125 Z M 0.484375 0 " clip-rule="nonzero"/></clipPath><clipPath id="3ddedec0f3"><path d="M 4.53125 4.046875 L 25.578125 4.046875 L 25.578125 25.09375 L 4.53125 25.09375 Z M 4.53125 4.046875 " clip-rule="nonzero"/></clipPath></defs><g clip-path="url(#6f24aa3c5e)"><path fill="#ffffff" d="M 0.484375 0 L 29.515625 0 L 29.515625 65.324219 L 0.484375 65.324219 Z M 0.484375 0 " fill-opacity="1" fill-rule="nonzero"/><path fill="#ffffff" d="M 0.484375 0 L 29.515625 0 L 29.515625 29.03125 L 0.484375 29.03125 Z M 0.484375 0 " fill-opacity="1" fill-rule="nonzero"/><path fill="#000000" d="M 0.484375 0 L 29.515625 0 L 29.515625 29.03125 L 0.484375 29.03125 Z M 0.484375 0 " fill-opacity="1" fill-rule="nonzero"/></g><g clip-path="url(#3ddedec0f3)"><path fill="#ffffff" d="M 24.003906 14.597656 C 24.167969 14.597656 24.300781 14.460938 24.300781 14.296875 L 24.300781 13.320312 L 24.738281 13.320312 C 25.203125 13.320312 25.578125 12.941406 25.578125 12.480469 L 25.578125 11.425781 C 25.578125 10.964844 25.203125 10.589844 24.738281 10.589844 L 23.304688 10.589844 L 15.351562 7.144531 L 15.351562 6.527344 L 18.035156 6.527344 C 18.203125 6.527344 18.335938 6.394531 18.335938 6.226562 L 18.335938 4.34375 C 18.335938 4.179688 18.203125 4.046875 18.035156 4.046875 L 15.054688 4.046875 C 14.976562 4.046875 14.898438 4.078125 14.84375 4.132812 C 14.789062 4.191406 14.757812 4.265625 14.757812 4.34375 L 14.757812 7.144531 L 6.804688 10.589844 L 5.367188 10.589844 C 4.90625 10.589844 4.53125 10.964844 4.53125 11.425781 L 4.53125 12.480469 C 4.53125 12.941406 4.90625 13.320312 5.367188 13.320312 L 5.808594 13.320312 L 5.808594 14.296875 C 5.808594 14.460938 5.941406 14.597656 6.105469 14.597656 L 6.503906 14.597656 L 6.503906 21.074219 L 6.105469 21.074219 C 5.941406 21.074219 5.808594 21.207031 5.808594 21.371094 L 5.808594 22.351562 L 5.453125 22.351562 C 4.945312 22.351562 4.53125 22.765625 4.53125 23.273438 L 4.53125 24.171875 C 4.53125 24.679688 4.945312 25.09375 5.453125 25.09375 L 24.65625 25.09375 C 25.164062 25.09375 25.578125 24.679688 25.578125 24.171875 L 25.578125 23.273438 C 25.578125 22.765625 25.164062 22.351562 24.65625 22.351562 L 24.300781 22.351562 L 24.300781 21.371094 C 24.300781 21.207031 24.167969 21.074219 24.003906 21.074219 L 23.605469 21.074219 L 23.605469 14.597656 Z M 23.703125 14 L 21.296875 14 L 21.296875 13.320312 L 23.703125 13.320312 Z M 20.996094 21.074219 C 20.832031 21.074219 20.699219 21.207031 20.699219 21.371094 L 20.699219 22.351562 L 19.335938 22.351562 L 19.335938 21.371094 C 19.335938 21.207031 19.203125 21.074219 19.039062 21.074219 L 18.640625 21.074219 L 18.640625 14.597656 L 19.039062 14.597656 C 19.203125 14.597656 19.335938 14.460938 19.335938 14.296875 L 19.335938 13.320312 L 20.699219 13.320312 L 20.699219 14.296875 C 20.699219 14.460938 20.832031 14.597656 20.996094 14.597656 L 21.394531 14.597656 L 21.394531 21.074219 Z M 9.113281 21.074219 L 8.714844 21.074219 L 8.714844 14.597656 L 9.113281 14.597656 C 9.277344 14.597656 9.410156 14.460938 9.410156 14.296875 L 9.410156 13.320312 L 10.773438 13.320312 L 10.773438 14.296875 C 10.773438 14.460938 10.90625 14.597656 11.070312 14.597656 L 11.46875 14.597656 L 11.46875 21.074219 L 11.070312 21.074219 C 10.90625 21.074219 10.773438 21.207031 10.773438 21.371094 L 10.773438 22.351562 L 9.410156 22.351562 L 9.410156 21.371094 C 9.410156 21.207031 9.277344 21.074219 9.113281 21.074219 Z M 12.066406 21.074219 L 12.066406 14.597656 L 13.082031 14.597656 L 13.082031 21.074219 Z M 11.367188 14 L 11.367188 13.320312 L 13.777344 13.320312 L 13.777344 14 Z M 11.367188 21.667969 L 13.777344 21.667969 L 13.777344 22.351562 L 11.367188 22.351562 Z M 14.074219 21.074219 L 13.675781 21.074219 L 13.675781 14.597656 L 14.074219 14.597656 C 14.242188 14.597656 14.375 14.460938 14.375 14.296875 L 14.375 13.320312 L 15.734375 13.320312 L 15.734375 14.296875 C 15.734375 14.460938 15.867188 14.597656 16.035156 14.597656 L 16.433594 14.597656 L 16.433594 21.074219 L 16.035156 21.074219 C 15.867188 21.074219 15.734375 21.207031 15.734375 21.371094 L 15.734375 22.351562 L 14.375 22.351562 L 14.375 21.371094 C 14.375 21.207031 14.242188 21.074219 14.074219 21.074219 Z M 17.027344 21.074219 L 17.027344 14.597656 L 18.042969 14.597656 L 18.042969 21.074219 Z M 16.332031 14 L 16.332031 13.320312 L 18.742188 13.320312 L 18.742188 14 Z M 16.332031 21.667969 L 18.742188 21.667969 L 18.742188 22.351562 L 16.332031 22.351562 Z M 15.351562 4.644531 L 17.738281 4.644531 L 17.738281 5.929688 L 15.351562 5.929688 Z M 15.054688 7.664062 L 21.804688 10.589844 L 8.304688 10.589844 Z M 5.125 12.480469 L 5.125 11.425781 C 5.125 11.292969 5.234375 11.183594 5.367188 11.183594 L 24.738281 11.183594 C 24.875 11.183594 24.980469 11.292969 24.980469 11.425781 L 24.980469 12.480469 C 24.980469 12.613281 24.875 12.722656 24.738281 12.722656 L 5.367188 12.722656 C 5.234375 12.722656 5.125 12.613281 5.125 12.480469 Z M 6.40625 13.320312 L 8.8125 13.320312 L 8.8125 14 L 6.40625 14 Z M 7.101562 14.597656 L 8.117188 14.597656 L 8.117188 21.074219 L 7.101562 21.074219 Z M 6.40625 21.667969 L 8.8125 21.667969 L 8.8125 22.351562 L 6.40625 22.351562 Z M 24.980469 23.273438 L 24.980469 24.171875 C 24.980469 24.351562 24.835938 24.5 24.65625 24.5 L 5.453125 24.5 C 5.273438 24.5 5.125 24.351562 5.125 24.171875 L 5.125 23.273438 C 5.125 23.09375 5.273438 22.945312 5.453125 22.945312 L 24.65625 22.945312 C 24.835938 22.945312 24.980469 23.09375 24.980469 23.273438 Z M 23.703125 22.351562 L 21.296875 22.351562 L 21.296875 21.667969 L 23.703125 21.667969 Z M 23.007812 21.074219 L 21.992188 21.074219 L 21.992188 14.597656 L 23.007812 14.597656 Z M 23.007812 21.074219 " fill-opacity="1" fill-rule="nonzero"/></g></svg>