<svg xmlns="http://www.w3.org/2000/svg" xmlns:xlink="http://www.w3.org/1999/xlink" width="40" zoomAndPan="magnify" viewBox="0 0 30 30.000001" height="40" preserveAspectRatio="xMidYMid meet" version="1.0"><defs><clipPath id="2ab7f90ed9"><path d="M 0.484375 0 L 29.515625 0 L 29.515625 29.03125 L 0.484375 29.03125 Z M 0.484375 0 " clip-rule="nonzero"/></clipPath><clipPath id="d1810d7426"><path d="M 3.613281 8 L 26.835938 8 L 26.835938 26.351562 L 3.613281 26.351562 Z M 3.613281 8 " clip-rule="nonzero"/></clipPath><clipPath id="12062950fa"><path d="M 14 3.128906 L 20 3.128906 L 20 9 L 14 9 Z M 14 3.128906 " clip-rule="nonzero"/></clipPath></defs><g clip-path="url(#2ab7f90ed9)"><path fill="#ffffff" d="M 0.484375 0 L 29.515625 0 L 29.515625 29.03125 L 0.484375 29.03125 Z M 0.484375 0 " fill-opacity="1" fill-rule="nonzero"/><path fill="#000000" d="M 0.484375 0 L 29.515625 0 L 29.515625 29.03125 L 0.484375 29.03125 Z M 0.484375 0 " fill-opacity="1" fill-rule="nonzero"/></g><g clip-path="url(#d1810d7426)"><path fill="#ffffff" d="M 15.222656 26.351562 C 20.835938 26.351562 26.796875 25.136719 26.796875 22.882812 C 26.796875 22.050781 26.015625 21.332031 24.484375 20.738281 L 24.484375 19.648438 L 25.042969 19.367188 C 25.171875 19.304688 25.253906 19.167969 25.253906 19.023438 L 25.253906 17.09375 C 25.253906 16.324219 24.796875 15.660156 24.140625 15.351562 C 24.351562 15.085938 24.484375 14.757812 24.484375 14.394531 C 24.484375 13.664062 23.972656 13.054688 23.292969 12.894531 C 23.179688 12.269531 22.769531 11.753906 22.210938 11.492188 C 22.421875 11.230469 22.554688 10.898438 22.554688 10.535156 C 22.554688 9.683594 21.863281 8.992188 21.011719 8.992188 C 20.160156 8.992188 19.46875 9.683594 19.46875 10.535156 C 19.46875 10.898438 19.601562 11.230469 19.8125 11.492188 C 19.519531 11.628906 19.273438 11.835938 19.082031 12.089844 C 18.894531 11.835938 18.644531 11.628906 18.355469 11.492188 C 18.566406 11.230469 18.695312 10.898438 18.695312 10.535156 C 18.695312 9.683594 18.003906 8.992188 17.152344 8.992188 C 16.300781 8.992188 15.609375 9.683594 15.609375 10.535156 C 15.609375 10.898438 15.742188 11.230469 15.953125 11.492188 C 15.664062 11.628906 15.414062 11.835938 15.222656 12.089844 C 15.035156 11.835938 14.785156 11.628906 14.496094 11.492188 C 14.707031 11.230469 14.839844 10.898438 14.839844 10.535156 C 14.839844 9.683594 14.148438 8.992188 13.296875 8.992188 C 12.445312 8.992188 11.753906 9.683594 11.753906 10.535156 C 11.753906 10.898438 11.882812 11.230469 12.09375 11.492188 C 11.804688 11.628906 11.554688 11.835938 11.367188 12.089844 C 11.175781 11.835938 10.925781 11.628906 10.636719 11.492188 C 10.847656 11.230469 10.980469 10.898438 10.980469 10.535156 C 10.980469 9.683594 10.289062 8.992188 9.4375 8.992188 C 8.585938 8.992188 7.894531 9.683594 7.894531 10.535156 C 7.894531 10.898438 8.027344 11.230469 8.238281 11.492188 C 7.679688 11.753906 7.269531 12.269531 7.15625 12.894531 C 6.476562 13.054688 5.964844 13.664062 5.964844 14.394531 C 5.964844 14.757812 6.097656 15.085938 6.308594 15.351562 C 5.652344 15.660156 5.195312 16.324219 5.195312 17.09375 L 5.195312 19.023438 C 5.195312 19.167969 5.277344 19.304688 5.40625 19.367188 L 5.964844 19.648438 L 5.964844 20.738281 C 4.433594 21.332031 3.648438 22.050781 3.648438 22.882812 C 3.648438 25.136719 9.613281 26.351562 15.222656 26.351562 Z M 24.484375 17.09375 L 24.484375 18.785156 L 23.925781 19.0625 C 23.792969 19.128906 23.710938 19.261719 23.710938 19.410156 L 23.710938 22.109375 L 22.167969 22.109375 L 22.167969 19.410156 C 22.167969 19.261719 22.085938 19.128906 21.957031 19.0625 L 21.398438 18.785156 L 21.398438 17.09375 C 21.398438 16.457031 21.917969 15.9375 22.554688 15.9375 L 23.328125 15.9375 C 23.964844 15.9375 24.484375 16.457031 24.484375 17.09375 Z M 23.710938 14.394531 C 23.710938 14.820312 23.367188 15.164062 22.941406 15.164062 C 22.515625 15.164062 22.167969 14.820312 22.167969 14.394531 C 22.167969 13.96875 22.515625 13.621094 22.941406 13.621094 C 23.367188 13.621094 23.710938 13.96875 23.710938 14.394531 Z M 21.011719 9.761719 C 21.4375 9.761719 21.785156 10.109375 21.785156 10.535156 C 21.785156 10.960938 21.4375 11.308594 21.011719 11.308594 C 20.585938 11.308594 20.238281 10.960938 20.238281 10.535156 C 20.238281 10.109375 20.585938 9.761719 21.011719 9.761719 Z M 20.625 12.078125 L 21.398438 12.078125 C 21.925781 12.078125 22.367188 12.4375 22.503906 12.921875 C 21.867188 13.109375 21.398438 13.695312 21.398438 14.394531 C 21.398438 14.757812 21.53125 15.085938 21.742188 15.351562 C 21.449219 15.488281 21.199219 15.695312 21.011719 15.949219 C 20.820312 15.695312 20.574219 15.488281 20.28125 15.351562 C 20.496094 15.085938 20.625 14.757812 20.625 14.394531 C 20.625 13.695312 20.15625 13.109375 19.519531 12.921875 C 19.65625 12.4375 20.097656 12.078125 20.625 12.078125 Z M 20.625 18.785156 L 20.066406 19.0625 C 19.9375 19.128906 19.855469 19.261719 19.855469 19.410156 L 19.855469 22.109375 L 18.3125 22.109375 L 18.3125 19.410156 C 18.3125 19.261719 18.226562 19.128906 18.097656 19.0625 L 17.539062 18.785156 L 17.539062 17.09375 C 17.539062 16.457031 18.058594 15.9375 18.695312 15.9375 L 19.46875 15.9375 C 20.105469 15.9375 20.625 16.457031 20.625 17.09375 Z M 19.082031 13.621094 C 19.507812 13.621094 19.855469 13.96875 19.855469 14.394531 C 19.855469 14.820312 19.507812 15.164062 19.082031 15.164062 C 18.65625 15.164062 18.3125 14.820312 18.3125 14.394531 C 18.3125 13.96875 18.65625 13.621094 19.082031 13.621094 Z M 17.152344 9.761719 C 17.578125 9.761719 17.925781 10.109375 17.925781 10.535156 C 17.925781 10.960938 17.578125 11.308594 17.152344 11.308594 C 16.726562 11.308594 16.382812 10.960938 16.382812 10.535156 C 16.382812 10.109375 16.726562 9.761719 17.152344 9.761719 Z M 16.769531 12.078125 L 17.539062 12.078125 C 18.066406 12.078125 18.507812 12.4375 18.648438 12.921875 C 18.007812 13.109375 17.539062 13.695312 17.539062 14.394531 C 17.539062 14.757812 17.671875 15.085938 17.882812 15.351562 C 17.59375 15.488281 17.34375 15.695312 17.152344 15.949219 C 16.964844 15.695312 16.714844 15.488281 16.425781 15.351562 C 16.636719 15.085938 16.769531 14.757812 16.769531 14.394531 C 16.769531 13.695312 16.296875 13.109375 15.660156 12.921875 C 15.796875 12.4375 16.238281 12.078125 16.769531 12.078125 Z M 16.769531 18.785156 L 16.210938 19.0625 C 16.078125 19.128906 15.996094 19.261719 15.996094 19.410156 L 15.996094 22.109375 L 14.453125 22.109375 L 14.453125 19.410156 C 14.453125 19.261719 14.371094 19.128906 14.238281 19.0625 L 13.679688 18.785156 L 13.679688 17.09375 C 13.679688 16.457031 14.199219 15.9375 14.839844 15.9375 L 15.609375 15.9375 C 16.25 15.9375 16.769531 16.457031 16.769531 17.09375 Z M 15.222656 13.621094 C 15.648438 13.621094 15.996094 13.96875 15.996094 14.394531 C 15.996094 14.820312 15.648438 15.164062 15.222656 15.164062 C 14.800781 15.164062 14.453125 14.820312 14.453125 14.394531 C 14.453125 13.96875 14.800781 13.621094 15.222656 13.621094 Z M 13.296875 9.761719 C 13.722656 9.761719 14.066406 10.109375 14.066406 10.535156 C 14.066406 10.960938 13.722656 11.308594 13.296875 11.308594 C 12.871094 11.308594 12.523438 10.960938 12.523438 10.535156 C 12.523438 10.109375 12.871094 9.761719 13.296875 9.761719 Z M 12.910156 12.078125 L 13.679688 12.078125 C 14.210938 12.078125 14.652344 12.4375 14.789062 12.921875 C 14.152344 13.109375 13.679688 13.695312 13.679688 14.394531 C 13.679688 14.757812 13.8125 15.085938 14.023438 15.351562 C 13.734375 15.488281 13.484375 15.695312 13.296875 15.949219 C 13.105469 15.695312 12.855469 15.488281 12.566406 15.351562 C 12.777344 15.085938 12.910156 14.757812 12.910156 14.394531 C 12.910156 13.695312 12.441406 13.109375 11.800781 12.921875 C 11.941406 12.4375 12.382812 12.078125 12.910156 12.078125 Z M 12.910156 18.785156 L 12.351562 19.0625 C 12.21875 19.128906 12.136719 19.261719 12.136719 19.410156 L 12.136719 22.109375 L 10.59375 22.109375 L 10.59375 19.410156 C 10.59375 19.261719 10.511719 19.128906 10.382812 19.0625 L 9.824219 18.785156 L 9.824219 17.09375 C 9.824219 16.457031 10.34375 15.9375 10.980469 15.9375 L 11.753906 15.9375 C 12.390625 15.9375 12.910156 16.457031 12.910156 17.09375 Z M 11.367188 13.621094 C 11.792969 13.621094 12.136719 13.96875 12.136719 14.394531 C 12.136719 14.820312 11.792969 15.164062 11.367188 15.164062 C 10.941406 15.164062 10.59375 14.820312 10.59375 14.394531 C 10.59375 13.96875 10.941406 13.621094 11.367188 13.621094 Z M 9.4375 9.761719 C 9.863281 9.761719 10.207031 10.109375 10.207031 10.535156 C 10.207031 10.960938 9.863281 11.308594 9.4375 11.308594 C 9.011719 11.308594 8.664062 10.960938 8.664062 10.535156 C 8.664062 10.109375 9.011719 9.761719 9.4375 9.761719 Z M 9.050781 12.078125 L 9.824219 12.078125 C 10.351562 12.078125 10.792969 12.4375 10.929688 12.921875 C 10.292969 13.109375 9.824219 13.695312 9.824219 14.394531 C 9.824219 14.757812 9.953125 15.085938 10.167969 15.351562 C 9.875 15.488281 9.625 15.695312 9.4375 15.949219 C 9.246094 15.695312 9 15.488281 8.707031 15.351562 C 8.921875 15.085938 9.050781 14.757812 9.050781 14.394531 C 9.050781 13.695312 8.582031 13.109375 7.945312 12.921875 C 8.082031 12.4375 8.523438 12.078125 9.050781 12.078125 Z M 7.507812 13.621094 C 7.933594 13.621094 8.28125 13.96875 8.28125 14.394531 C 8.28125 14.820312 7.933594 15.164062 7.507812 15.164062 C 7.082031 15.164062 6.738281 14.820312 6.738281 14.394531 C 6.738281 13.96875 7.082031 13.621094 7.507812 13.621094 Z M 5.964844 17.09375 C 5.964844 16.457031 6.484375 15.9375 7.121094 15.9375 L 7.894531 15.9375 C 8.53125 15.9375 9.050781 16.457031 9.050781 17.09375 L 9.050781 18.785156 L 8.492188 19.0625 C 8.363281 19.128906 8.28125 19.261719 8.28125 19.410156 L 8.28125 22.109375 L 6.738281 22.109375 L 6.738281 19.410156 C 6.738281 19.261719 6.652344 19.128906 6.523438 19.0625 L 5.964844 18.785156 Z M 5.964844 21.566406 L 5.964844 22.496094 C 5.964844 22.707031 6.136719 22.882812 6.351562 22.882812 L 8.664062 22.882812 C 8.878906 22.882812 9.050781 22.707031 9.050781 22.496094 L 9.050781 19.648438 L 9.4375 19.453125 L 9.824219 19.648438 L 9.824219 22.496094 C 9.824219 22.707031 9.996094 22.882812 10.207031 22.882812 L 12.523438 22.882812 C 12.738281 22.882812 12.910156 22.707031 12.910156 22.496094 L 12.910156 19.648438 L 13.296875 19.453125 L 13.679688 19.648438 L 13.679688 22.496094 C 13.679688 22.707031 13.855469 22.882812 14.066406 22.882812 L 16.382812 22.882812 C 16.59375 22.882812 16.769531 22.707031 16.769531 22.496094 L 16.769531 19.648438 L 17.152344 19.453125 L 17.539062 19.648438 L 17.539062 22.496094 C 17.539062 22.707031 17.710938 22.882812 17.925781 22.882812 L 20.238281 22.882812 C 20.453125 22.882812 20.625 22.707031 20.625 22.496094 L 20.625 19.648438 L 21.011719 19.453125 L 21.398438 19.648438 L 21.398438 22.496094 C 21.398438 22.707031 21.570312 22.882812 21.785156 22.882812 L 24.097656 22.882812 C 24.3125 22.882812 24.484375 22.707031 24.484375 22.496094 L 24.484375 21.566406 C 25.457031 21.988281 26.027344 22.464844 26.027344 22.882812 C 26.027344 24.007812 21.917969 25.582031 15.222656 25.582031 C 8.53125 25.582031 4.421875 24.007812 4.421875 22.882812 C 4.421875 22.464844 4.992188 21.988281 5.964844 21.566406 Z M 5.964844 21.566406 " fill-opacity="1" fill-rule="nonzero"/></g><g clip-path="url(#12062950fa)"><path fill="#ffffff" d="M 15.609375 7.121094 L 16.25 6.800781 C 16.574219 6.636719 16.960938 6.636719 17.285156 6.800781 L 17.582031 6.945312 C 18.03125 7.171875 18.542969 7.214844 19.023438 7.0625 L 19.585938 6.886719 C 19.746094 6.835938 19.855469 6.6875 19.855469 6.515625 L 19.855469 3.792969 C 19.855469 3.671875 19.792969 3.554688 19.695312 3.480469 C 19.59375 3.410156 19.464844 3.390625 19.347656 3.429688 L 18.796875 3.613281 C 18.503906 3.710938 18.1875 3.6875 17.910156 3.550781 L 17.628906 3.410156 C 17.089844 3.136719 16.445312 3.136719 15.90625 3.410156 L 15.050781 3.835938 C 14.921875 3.902344 14.839844 4.035156 14.839844 4.179688 L 14.839844 8.992188 L 15.609375 8.992188 Z M 15.609375 4.417969 L 16.25 4.097656 C 16.574219 3.9375 16.960938 3.9375 17.285156 4.097656 L 17.566406 4.238281 C 18.027344 4.46875 18.550781 4.507812 19.039062 4.34375 L 19.082031 4.328125 L 19.082031 6.234375 L 18.789062 6.324219 C 18.503906 6.417969 18.195312 6.390625 17.925781 6.257812 L 17.628906 6.109375 C 17.359375 5.972656 17.0625 5.90625 16.769531 5.90625 C 16.472656 5.90625 16.175781 5.972656 15.90625 6.109375 L 15.609375 6.257812 Z M 15.609375 4.417969 " fill-opacity="1" fill-rule="nonzero"/></g></svg>