<svg xmlns="http://www.w3.org/2000/svg" xmlns:xlink="http://www.w3.org/1999/xlink" width="40" zoomAndPan="magnify" viewBox="0 0 30 30.000001" height="40" preserveAspectRatio="xMidYMid meet" version="1.0"><defs><clipPath id="67b5f0fdaf"><path d="M 0.484375 0 L 29.515625 0 L 29.515625 29.03125 L 0.484375 29.03125 Z M 0.484375 0 " clip-rule="nonzero"/></clipPath><clipPath id="1724fb1db1"><path d="M 7.484375 7.34375 L 22.726562 7.34375 L 22.726562 21.859375 L 7.484375 21.859375 Z M 7.484375 7.34375 " clip-rule="nonzero"/></clipPath><clipPath id="eb04ad27ab"><path d="M 7.746094 17.3125 L 22.453125 17.3125 L 22.453125 7.636719 L 7.746094 7.636719 Z M 15.085938 10.242188 C 15.015625 10.242188 14.960938 10.296875 14.960938 10.367188 C 14.960938 10.4375 15.015625 10.492188 15.085938 10.492188 C 15.15625 10.492188 15.210938 10.4375 15.210938 10.367188 C 15.210938 10.296875 15.15625 10.242188 15.085938 10.242188 Z M 15.085938 10.757812 C 14.867188 10.757812 14.691406 10.582031 14.691406 10.367188 C 14.691406 10.195312 14.800781 10.054688 14.949219 9.996094 L 14.949219 8.875 C 14.800781 8.820312 14.691406 8.675781 14.691406 8.503906 C 14.691406 8.289062 14.867188 8.113281 15.085938 8.113281 C 15.300781 8.113281 15.476562 8.289062 15.476562 8.503906 C 15.476562 8.675781 15.371094 8.820312 15.21875 8.875 L 15.21875 9.996094 C 15.371094 10.050781 15.480469 10.195312 15.480469 10.367188 C 15.480469 10.582031 15.300781 10.757812 15.085938 10.757812 Z M 15.085938 8.378906 C 15.015625 8.378906 14.957031 8.433594 14.957031 8.503906 C 14.957031 8.574219 15.015625 8.628906 15.085938 8.628906 C 15.152344 8.628906 15.210938 8.574219 15.210938 8.503906 C 15.210938 8.433594 15.152344 8.378906 15.085938 8.378906 Z M 15.085938 15.894531 C 15.015625 15.894531 14.960938 15.949219 14.960938 16.019531 C 14.960938 16.089844 15.015625 16.144531 15.085938 16.144531 C 15.15625 16.144531 15.210938 16.089844 15.210938 16.019531 C 15.210938 15.949219 15.15625 15.894531 15.085938 15.894531 Z M 15.085938 16.410156 C 14.867188 16.410156 14.691406 16.234375 14.691406 16.019531 C 14.691406 15.847656 14.800781 15.707031 14.949219 15.648438 L 14.949219 14.527344 C 14.800781 14.472656 14.691406 14.328125 14.691406 14.15625 C 14.691406 13.941406 14.867188 13.765625 15.085938 13.765625 C 15.300781 13.765625 15.476562 13.941406 15.476562 14.15625 C 15.476562 14.328125 15.371094 14.472656 15.21875 14.527344 L 15.21875 15.648438 C 15.371094 15.703125 15.480469 15.847656 15.480469 16.019531 C 15.480469 16.234375 15.300781 16.410156 15.085938 16.410156 Z M 15.085938 14.03125 C 15.015625 14.03125 14.957031 14.085938 14.957031 14.15625 C 14.957031 14.226562 15.015625 14.28125 15.085938 14.28125 C 15.152344 14.28125 15.210938 14.226562 15.210938 14.15625 C 15.210938 14.085938 15.152344 14.03125 15.085938 14.03125 Z M 18.078125 12.078125 C 18.007812 12.078125 17.949219 12.136719 17.949219 12.207031 C 17.949219 12.273438 18.007812 12.332031 18.078125 12.332031 C 18.144531 12.332031 18.199219 12.277344 18.203125 12.210938 C 18.203125 12.210938 18.203125 12.207031 18.203125 12.207031 C 18.203125 12.203125 18.203125 12.199219 18.203125 12.199219 C 18.199219 12.132812 18.144531 12.078125 18.078125 12.078125 Z M 18.078125 12.597656 C 17.859375 12.597656 17.683594 12.421875 17.683594 12.207031 C 17.683594 11.988281 17.859375 11.8125 18.078125 11.8125 C 18.246094 11.8125 18.390625 11.921875 18.445312 12.070312 L 20.867188 12.070312 C 20.921875 11.921875 21.066406 11.8125 21.234375 11.8125 C 21.453125 11.8125 21.628906 11.988281 21.628906 12.207031 C 21.628906 12.421875 21.453125 12.597656 21.234375 12.597656 C 21.066406 12.597656 20.921875 12.488281 20.867188 12.339844 L 18.445312 12.339844 C 18.390625 12.488281 18.246094 12.597656 18.078125 12.597656 Z M 21.234375 12.078125 C 21.164062 12.078125 21.109375 12.136719 21.109375 12.207031 C 21.109375 12.273438 21.164062 12.332031 21.234375 12.332031 C 21.304688 12.332031 21.359375 12.273438 21.359375 12.207031 C 21.359375 12.136719 21.304688 12.078125 21.234375 12.078125 Z M 8.851562 12.078125 C 8.78125 12.078125 8.726562 12.136719 8.726562 12.207031 C 8.726562 12.273438 8.78125 12.332031 8.851562 12.332031 C 8.917969 12.332031 8.972656 12.28125 8.976562 12.214844 C 8.976562 12.210938 8.976562 12.207031 8.976562 12.207031 C 8.976562 12.203125 8.976562 12.199219 8.976562 12.195312 C 8.972656 12.132812 8.917969 12.078125 8.851562 12.078125 Z M 8.851562 12.597656 C 8.632812 12.597656 8.457031 12.421875 8.457031 12.207031 C 8.457031 11.988281 8.632812 11.8125 8.851562 11.8125 C 9.023438 11.8125 9.167969 11.921875 9.222656 12.070312 L 11.640625 12.070312 C 11.695312 11.921875 11.839844 11.8125 12.007812 11.8125 C 12.226562 11.8125 12.402344 11.988281 12.402344 12.207031 C 12.402344 12.421875 12.226562 12.597656 12.007812 12.597656 C 11.839844 12.597656 11.695312 12.488281 11.640625 12.339844 L 9.222656 12.339844 C 9.167969 12.488281 9.023438 12.597656 8.851562 12.597656 Z M 12.007812 12.078125 C 11.941406 12.078125 11.882812 12.136719 11.882812 12.207031 C 11.882812 12.273438 11.941406 12.332031 12.007812 12.332031 C 12.078125 12.332031 12.136719 12.273438 12.136719 12.207031 C 12.136719 12.136719 12.078125 12.078125 12.007812 12.078125 Z M 17.3125 10.949219 C 17.242188 10.949219 17.1875 11.007812 17.1875 11.074219 C 17.1875 11.144531 17.242188 11.203125 17.3125 11.203125 C 17.382812 11.203125 17.4375 11.144531 17.4375 11.074219 C 17.4375 11.007812 17.382812 10.949219 17.3125 10.949219 Z M 17.3125 11.46875 C 17.097656 11.46875 16.921875 11.292969 16.921875 11.074219 C 16.921875 10.90625 17.027344 10.761719 17.179688 10.707031 L 17.179688 9.285156 C 17.179688 9.214844 17.238281 9.152344 17.3125 9.152344 L 19.386719 9.152344 C 19.445312 9.003906 19.589844 8.894531 19.757812 8.894531 C 19.976562 8.894531 20.152344 9.070312 20.152344 9.285156 C 20.152344 9.503906 19.976562 9.679688 19.757812 9.679688 C 19.589844 9.679688 19.445312 9.570312 19.386719 9.421875 L 17.445312 9.421875 L 17.445312 10.707031 C 17.597656 10.761719 17.707031 10.90625 17.707031 11.074219 C 17.707031 11.292969 17.53125 11.46875 17.3125 11.46875 Z M 19.757812 9.160156 C 19.6875 9.160156 19.632812 9.21875 19.632812 9.285156 C 19.632812 9.355469 19.6875 9.414062 19.757812 9.414062 C 19.828125 9.414062 19.886719 9.355469 19.886719 9.285156 C 19.886719 9.21875 19.828125 9.160156 19.757812 9.160156 Z M 16.96875 13.75 C 16.898438 13.75 16.839844 13.804688 16.839844 13.875 C 16.839844 13.945312 16.898438 14 16.964844 14 L 16.96875 14 C 17.039062 14 17.09375 13.945312 17.09375 13.875 C 17.09375 13.804688 17.039062 13.75 16.96875 13.75 Z M 16.835938 14.242188 C 16.683594 14.1875 16.574219 14.042969 16.574219 13.875 C 16.574219 13.660156 16.75 13.480469 16.96875 13.480469 C 17.183594 13.480469 17.363281 13.660156 17.363281 13.875 C 17.363281 14.042969 17.253906 14.1875 17.101562 14.242188 L 17.101562 15.53125 L 19.042969 15.53125 C 19.097656 15.378906 19.242188 15.269531 19.414062 15.269531 C 19.628906 15.269531 19.804688 15.449219 19.804688 15.664062 C 19.804688 15.878906 19.628906 16.054688 19.414062 16.054688 C 19.242188 16.054688 19.097656 15.949219 19.042969 15.796875 L 16.96875 15.796875 C 16.894531 15.796875 16.835938 15.738281 16.835938 15.664062 Z M 19.414062 15.539062 C 19.34375 15.539062 19.289062 15.59375 19.289062 15.664062 C 19.289062 15.734375 19.34375 15.789062 19.414062 15.789062 C 19.484375 15.789062 19.539062 15.734375 19.539062 15.664062 C 19.539062 15.59375 19.484375 15.539062 19.414062 15.539062 Z M 13.089844 13.664062 C 13.019531 13.664062 12.964844 13.722656 12.964844 13.792969 C 12.964844 13.859375 13.019531 13.914062 13.089844 13.917969 L 13.09375 13.917969 C 13.160156 13.914062 13.214844 13.859375 13.214844 13.792969 C 13.214844 13.722656 13.160156 13.664062 13.089844 13.664062 Z M 12.957031 14.160156 C 12.804688 14.105469 12.695312 13.960938 12.695312 13.792969 C 12.695312 13.574219 12.875 13.398438 13.089844 13.398438 C 13.308594 13.398438 13.484375 13.574219 13.484375 13.792969 C 13.484375 13.960938 13.375 14.105469 13.222656 14.160156 L 13.222656 15.582031 C 13.222656 15.652344 13.164062 15.714844 13.089844 15.714844 L 11.015625 15.714844 C 10.960938 15.863281 10.816406 15.972656 10.644531 15.972656 C 10.429688 15.972656 10.25 15.796875 10.25 15.582031 C 10.25 15.363281 10.429688 15.1875 10.644531 15.1875 C 10.816406 15.1875 10.960938 15.296875 11.015625 15.445312 L 12.957031 15.445312 Z M 10.644531 15.453125 C 10.574219 15.453125 10.519531 15.511719 10.519531 15.582031 C 10.519531 15.648438 10.574219 15.707031 10.644531 15.707031 C 10.714844 15.707031 10.769531 15.648438 10.769531 15.582031 C 10.769531 15.511719 10.714844 15.453125 10.644531 15.453125 Z M 13.601562 11.953125 C 13.261719 11.953125 12.984375 12.226562 12.984375 12.566406 C 12.984375 12.902344 13.261719 13.175781 13.601562 13.175781 L 16.570312 13.175781 C 16.910156 13.175781 17.183594 12.902344 17.183594 12.566406 C 17.183594 12.246094 16.9375 11.980469 16.621094 11.953125 C 16.550781 11.949219 16.5 11.894531 16.496094 11.824219 C 16.484375 11.492188 16.214844 11.234375 15.882812 11.234375 C 15.671875 11.234375 15.480469 11.339844 15.367188 11.515625 C 15.339844 11.550781 15.300781 11.574219 15.253906 11.574219 C 15.207031 11.574219 15.167969 11.550781 15.140625 11.515625 C 15.027344 11.339844 14.835938 11.234375 14.625 11.234375 C 14.285156 11.234375 14.011719 11.507812 14.011719 11.84375 C 14.011719 11.851562 14.011719 11.859375 14.011719 11.867188 C 14.011719 11.914062 13.992188 11.957031 13.957031 11.980469 C 13.917969 12.007812 13.871094 12.011719 13.828125 11.996094 C 13.753906 11.96875 13.679688 11.953125 13.601562 11.953125 Z M 16.570312 13.445312 L 13.601562 13.445312 C 13.113281 13.445312 12.71875 13.050781 12.71875 12.566406 C 12.71875 12.082031 13.113281 11.6875 13.601562 11.6875 C 13.652344 11.6875 13.703125 11.691406 13.757812 11.699219 C 13.824219 11.285156 14.1875 10.964844 14.625 10.964844 C 14.863281 10.964844 15.089844 11.0625 15.253906 11.230469 C 15.417969 11.0625 15.640625 10.964844 15.882812 10.964844 C 16.324219 10.964844 16.683594 11.28125 16.753906 11.703125 C 17.152344 11.789062 17.453125 12.148438 17.453125 12.566406 C 17.453125 13.050781 17.054688 13.445312 16.570312 13.445312 Z M 13.089844 10.949219 C 13.019531 10.949219 12.964844 11.007812 12.964844 11.074219 C 12.964844 11.144531 13.019531 11.203125 13.089844 11.203125 C 13.160156 11.203125 13.214844 11.144531 13.214844 11.074219 C 13.214844 11.007812 13.160156 10.949219 13.089844 10.949219 Z M 13.089844 11.46875 C 12.875 11.46875 12.695312 11.292969 12.695312 11.074219 C 12.695312 10.90625 12.804688 10.761719 12.957031 10.707031 L 12.957031 9.421875 L 11.015625 9.421875 C 10.960938 9.570312 10.816406 9.679688 10.644531 9.679688 C 10.429688 9.679688 10.25 9.503906 10.25 9.285156 C 10.25 9.070312 10.429688 8.894531 10.644531 8.894531 C 10.816406 8.894531 10.960938 9.003906 11.015625 9.152344 L 13.089844 9.152344 C 13.164062 9.152344 13.222656 9.214844 13.222656 9.285156 L 13.222656 10.707031 C 13.375 10.761719 13.484375 10.90625 13.484375 11.074219 C 13.484375 11.292969 13.308594 11.46875 13.089844 11.46875 Z M 10.644531 9.160156 C 10.574219 9.160156 10.519531 9.21875 10.519531 9.285156 C 10.519531 9.355469 10.574219 9.414062 10.644531 9.414062 C 10.714844 9.414062 10.769531 9.355469 10.769531 9.285156 C 10.769531 9.21875 10.714844 9.160156 10.644531 9.160156 Z M 15.101562 21.832031 C 13.265625 21.832031 11.828125 21.105469 11.828125 20.175781 C 11.828125 19.410156 12.828125 18.761719 14.273438 18.574219 L 14.273438 17.582031 L 7.613281 17.582031 C 7.539062 17.582031 7.480469 17.519531 7.480469 17.449219 L 7.480469 7.503906 C 7.480469 7.429688 7.539062 7.371094 7.613281 7.371094 L 22.585938 7.371094 C 22.660156 7.371094 22.71875 7.429688 22.71875 7.503906 L 22.71875 17.449219 C 22.71875 17.519531 22.660156 17.582031 22.585938 17.582031 L 15.929688 17.582031 L 15.929688 18.574219 C 17.371094 18.761719 18.371094 19.410156 18.371094 20.175781 C 18.371094 21.105469 16.933594 21.832031 15.101562 21.832031 Z M 14.273438 18.84375 C 13.003906 19.015625 12.097656 19.5625 12.097656 20.175781 C 12.097656 20.929688 13.472656 21.5625 15.101562 21.5625 C 16.730469 21.5625 18.105469 20.929688 18.105469 20.175781 C 18.105469 19.5625 17.199219 19.015625 15.929688 18.84375 L 15.929688 20.195312 C 15.929688 20.269531 15.867188 20.328125 15.792969 20.328125 L 14.40625 20.328125 C 14.332031 20.328125 14.273438 20.269531 14.273438 20.195312 Z M 15.660156 18.699219 C 15.660156 18.695312 15.660156 18.691406 15.660156 18.6875 L 15.660156 17.582031 L 14.539062 17.582031 L 14.539062 20.0625 L 15.660156 20.0625 Z M 15.660156 18.699219 " clip-rule="evenodd"/></clipPath></defs><g clip-path="url(#67b5f0fdaf)"><path fill="#ffffff" d="M 0.484375 0 L 29.515625 0 L 29.515625 29.03125 L 0.484375 29.03125 Z M 0.484375 0 " fill-opacity="1" fill-rule="nonzero"/><path fill="#000000" d="M 0.484375 0 L 29.515625 0 L 29.515625 29.03125 L 0.484375 29.03125 Z M 0.484375 0 " fill-opacity="1" fill-rule="nonzero"/></g><g clip-path="url(#1724fb1db1)"><g clip-path="url(#eb04ad27ab)"><path fill="#ffffff" d="M 7.484375 7.371094 L 7.484375 21.832031 L 22.71875 21.832031 L 22.71875 7.371094 Z M 7.484375 7.371094 " fill-opacity="1" fill-rule="nonzero"/></g></g></svg>