<svg xmlns="http://www.w3.org/2000/svg" xmlns:xlink="http://www.w3.org/1999/xlink" width="40" zoomAndPan="magnify" viewBox="0 0 30 30.000001" height="40" preserveAspectRatio="xMidYMid meet" version="1.0"><defs><clipPath id="953b82696e"><path d="M 0.484375 0 L 29.515625 0 L 29.515625 29.03125 L 0.484375 29.03125 Z M 0.484375 0 " clip-rule="nonzero"/></clipPath><clipPath id="1591b3fc89"><path d="M 1.5 1.859375 L 18.917969 1.859375 L 18.917969 13.472656 L 1.5 13.472656 Z M 1.5 1.859375 " clip-rule="nonzero"/></clipPath><clipPath id="ead83b8f96"><path d="M 11.71875 13.269531 L 24.785156 13.269531 L 24.785156 26.332031 L 11.71875 26.332031 Z M 11.71875 13.269531 " clip-rule="nonzero"/></clipPath><clipPath id="2f29ac4389"><path d="M 14 13.269531 L 17 13.269531 L 17 17 L 14 17 Z M 14 13.269531 " clip-rule="nonzero"/></clipPath><clipPath id="d46a3fa5a1"><path d="M 7.492188 4.660156 L 11.484375 4.660156 L 11.484375 10.46875 L 7.492188 10.46875 Z M 7.492188 4.660156 " clip-rule="nonzero"/></clipPath><clipPath id="92d357306c"><path d="M 9.292969 4.660156 L 13.285156 4.660156 L 13.285156 10.46875 L 9.292969 10.46875 Z M 9.292969 4.660156 " clip-rule="nonzero"/></clipPath></defs><g clip-path="url(#953b82696e)"><path fill="#ffffff" d="M 0.484375 0 L 29.515625 0 L 29.515625 29.03125 L 0.484375 29.03125 Z M 0.484375 0 " fill-opacity="1" fill-rule="nonzero"/><path fill="#000000" d="M 0.484375 0 L 29.515625 0 L 29.515625 29.03125 L 0.484375 29.03125 Z M 0.484375 0 " fill-opacity="1" fill-rule="nonzero"/></g><g clip-path="url(#1591b3fc89)"><path fill="#ffffff" d="M 15.953125 13.472656 L 4.464844 13.472656 C 2.835938 13.472656 1.511719 12.09375 1.511719 10.402344 C 1.511719 8.828125 2.65625 7.527344 4.125 7.351562 C 4.242188 5.078125 6.0625 3.265625 8.28125 3.265625 C 8.519531 3.265625 8.761719 3.289062 9.003906 3.332031 C 9.910156 2.394531 11.144531 1.859375 12.425781 1.859375 C 13.71875 1.859375 14.933594 2.382812 15.847656 3.332031 C 16.761719 4.285156 17.261719 5.546875 17.261719 6.890625 C 17.261719 7.136719 17.246094 7.382812 17.210938 7.625 C 18.238281 8.128906 18.910156 9.207031 18.910156 10.402344 C 18.910156 12.09375 17.582031 13.472656 15.953125 13.472656 Z M 4.457031 8.054688 C 3.214844 8.0625 2.207031 9.113281 2.207031 10.402344 C 2.207031 11.695312 3.21875 12.75 4.464844 12.75 L 15.953125 12.75 C 17.199219 12.75 18.210938 11.695312 18.210938 10.402344 C 18.210938 9.410156 17.605469 8.523438 16.703125 8.191406 C 16.539062 8.128906 16.441406 7.953125 16.480469 7.777344 C 16.539062 7.484375 16.566406 7.1875 16.566406 6.890625 C 16.566406 5.742188 16.136719 4.660156 15.355469 3.84375 C 14.570312 3.03125 13.53125 2.585938 12.425781 2.585938 C 11.273438 2.585938 10.160156 3.089844 9.378906 3.972656 C 9.292969 4.066406 9.167969 4.109375 9.046875 4.078125 C 8.789062 4.019531 8.53125 3.988281 8.28125 3.988281 C 6.367188 3.988281 4.8125 5.605469 4.8125 7.59375 C 4.8125 7.601562 4.8125 7.613281 4.816406 7.621094 C 4.816406 7.644531 4.816406 7.664062 4.816406 7.6875 C 4.820312 7.785156 4.785156 7.878906 4.71875 7.945312 C 4.652344 8.015625 4.5625 8.054688 4.46875 8.054688 C 4.464844 8.054688 4.460938 8.054688 4.457031 8.054688 Z M 4.457031 8.054688 " fill-opacity="1" fill-rule="nonzero"/></g><g clip-path="url(#ead83b8f96)"><path fill="#ffffff" d="M 24.730469 17.136719 C 24.699219 17.117188 24.65625 17.121094 24.625 17.140625 L 22.683594 18.359375 L 22.683594 13.390625 C 22.683594 13.332031 22.636719 13.285156 22.578125 13.285156 L 13.910156 13.269531 C 13.882812 13.269531 13.855469 13.277344 13.835938 13.296875 C 13.816406 13.316406 13.804688 13.34375 13.804688 13.371094 L 13.804688 18.347656 L 11.878906 17.140625 C 11.847656 17.121094 11.804688 17.117188 11.773438 17.136719 C 11.738281 17.15625 11.71875 17.191406 11.71875 17.226562 L 11.71875 21.703125 C 11.71875 21.742188 11.742188 21.777344 11.777344 21.792969 L 13.894531 22.855469 L 13.890625 25.066406 C 13.890625 25.097656 13.902344 25.121094 13.921875 25.140625 C 13.941406 25.160156 13.96875 25.171875 13.996094 25.171875 L 15.882812 25.171875 C 15.914062 25.253906 15.964844 25.332031 16.035156 25.386719 C 16.128906 25.464844 16.246094 25.507812 16.367188 25.507812 C 16.417969 25.507812 16.464844 25.5 16.511719 25.488281 C 16.519531 25.625 16.582031 25.757812 16.695312 25.847656 C 16.789062 25.925781 16.90625 25.96875 17.027344 25.96875 C 17.105469 25.96875 17.183594 25.949219 17.253906 25.917969 C 17.277344 26.03125 17.335938 26.136719 17.429688 26.210938 C 17.523438 26.289062 17.640625 26.332031 17.761719 26.332031 C 17.914062 26.332031 18.058594 26.265625 18.160156 26.148438 L 18.378906 25.886719 C 18.460938 25.953125 18.59375 26.027344 18.761719 26.027344 C 18.773438 26.027344 18.785156 26.027344 18.792969 26.027344 C 18.984375 26.015625 19.113281 25.917969 19.179688 25.859375 L 19.253906 25.785156 C 19.335938 25.699219 19.390625 25.589844 19.40625 25.472656 C 19.46875 25.496094 19.539062 25.511719 19.605469 25.511719 C 19.753906 25.511719 19.898438 25.453125 20.007812 25.34375 L 20.082031 25.265625 C 20.109375 25.238281 20.132812 25.207031 20.15625 25.171875 L 22.507812 25.171875 C 22.535156 25.171875 22.5625 25.160156 22.582031 25.140625 C 22.601562 25.121094 22.613281 25.09375 22.613281 25.066406 L 22.609375 22.855469 L 24.726562 21.792969 C 24.761719 21.777344 24.785156 21.742188 24.785156 21.703125 L 24.785156 17.226562 C 24.785156 17.191406 24.761719 17.15625 24.730469 17.136719 Z M 14.011719 13.476562 L 22.476562 13.492188 L 22.476562 18.488281 L 20.453125 19.757812 C 20.429688 19.773438 20.410156 19.796875 20.40625 19.824219 C 20.398438 19.851562 20.40625 19.882812 20.421875 19.90625 L 20.539062 20.078125 L 20.308594 20.246094 C 20.21875 20.140625 20.089844 20.066406 19.941406 20.039062 L 19.132812 19.894531 C 18.96875 19.867188 18.800781 19.863281 18.636719 19.890625 L 16.246094 20.28125 L 15.964844 20.078125 L 16.082031 19.90625 C 16.097656 19.882812 16.105469 19.851562 16.097656 19.824219 C 16.09375 19.796875 16.074219 19.773438 16.050781 19.757812 L 14.011719 18.480469 Z M 20.722656 23.992188 C 20.695312 23.875 20.628906 23.765625 20.527344 23.683594 C 20.246094 23.457031 19.929688 23.195312 19.613281 22.9375 C 19.382812 22.746094 19.148438 22.558594 18.933594 22.382812 C 18.96875 22.382812 19.003906 22.382812 19.039062 22.382812 C 19.179688 22.382812 19.316406 22.371094 19.457031 22.351562 C 19.785156 22.296875 20.097656 22.183594 20.382812 22.007812 C 20.429688 21.980469 20.445312 21.914062 20.417969 21.867188 C 20.386719 21.816406 20.324219 21.800781 20.273438 21.832031 C 20.011719 21.992188 19.726562 22.097656 19.421875 22.144531 C 19.125 22.195312 18.816406 22.183594 18.515625 22.121094 C 18.515625 22.121094 18.515625 22.121094 18.515625 22.117188 C 18.46875 22.105469 18.425781 22.09375 18.386719 22.085938 C 18.203125 22.054688 18.015625 22.082031 17.847656 22.160156 C 17.773438 22.195312 17.703125 22.226562 17.644531 22.25 L 17.621094 22.261719 C 17.117188 22.476562 16.957031 22.472656 16.886719 22.472656 C 16.617188 22.464844 16.464844 22.414062 16.425781 22.320312 C 16.402344 22.257812 16.421875 22.164062 16.488281 22.074219 C 16.53125 22.011719 16.597656 21.953125 16.683594 21.90625 L 18.265625 21.027344 L 18.769531 20.984375 C 19.410156 21.195312 19.917969 21.109375 20.179688 20.953125 C 20.28125 20.894531 20.355469 20.816406 20.394531 20.734375 L 21.824219 22.792969 C 21.683594 22.996094 21.53125 23.191406 21.363281 23.378906 C 21.164062 23.597656 20.949219 23.804688 20.722656 23.992188 Z M 14.527344 22.648438 L 14.324219 22.496094 L 15.847656 20.25 L 16.074219 20.414062 Z M 14.101562 22.824219 L 14.207031 22.667969 L 14.480469 22.867188 C 14.652344 23.089844 14.835938 23.308594 15.03125 23.519531 C 15.179688 23.675781 15.332031 23.832031 15.492188 23.980469 L 15.335938 24.164062 C 15.246094 24.273438 15.207031 24.40625 15.21875 24.542969 C 15.230469 24.679688 15.296875 24.804688 15.402344 24.894531 C 15.4375 24.921875 15.476562 24.945312 15.519531 24.964844 L 14.097656 24.964844 Z M 16.285156 24.304688 C 16.273438 24.332031 16.257812 24.355469 16.238281 24.378906 L 15.972656 24.695312 C 15.957031 24.714844 15.941406 24.730469 15.929688 24.738281 C 15.925781 24.742188 15.921875 24.746094 15.917969 24.746094 C 15.804688 24.828125 15.640625 24.824219 15.535156 24.734375 C 15.46875 24.679688 15.429688 24.605469 15.425781 24.523438 C 15.417969 24.441406 15.441406 24.363281 15.496094 24.300781 L 15.707031 24.046875 C 15.710938 24.042969 15.710938 24.042969 15.710938 24.042969 L 15.761719 23.980469 C 15.820312 23.910156 15.90625 23.871094 16 23.871094 C 16.070312 23.871094 16.144531 23.898438 16.199219 23.941406 C 16.304688 24.03125 16.339844 24.179688 16.285156 24.304688 Z M 16.167969 25.230469 C 16.113281 25.183594 16.074219 25.117188 16.0625 25.050781 C 16.050781 24.992188 16.058594 24.9375 16.078125 24.882812 C 16.09375 24.867188 16.113281 24.851562 16.132812 24.828125 L 16.398438 24.511719 C 16.421875 24.484375 16.4375 24.453125 16.457031 24.421875 C 16.566406 24.347656 16.726562 24.351562 16.832031 24.4375 C 16.9375 24.523438 16.972656 24.664062 16.921875 24.789062 C 16.910156 24.820312 16.894531 24.847656 16.871094 24.875 L 16.609375 25.1875 C 16.597656 25.203125 16.585938 25.214844 16.574219 25.226562 C 16.460938 25.324219 16.28125 25.324219 16.167969 25.230469 Z M 16.828125 25.691406 C 16.730469 25.609375 16.695312 25.476562 16.730469 25.359375 C 16.742188 25.347656 16.753906 25.335938 16.765625 25.324219 L 17.03125 25.007812 C 17.0625 24.972656 17.082031 24.933594 17.101562 24.894531 C 17.210938 24.808594 17.382812 24.808594 17.492188 24.898438 C 17.585938 24.976562 17.625 25.105469 17.589844 25.222656 C 17.589844 25.222656 17.589844 25.226562 17.589844 25.226562 C 17.578125 25.265625 17.558594 25.300781 17.53125 25.332031 L 17.285156 25.628906 C 17.285156 25.628906 17.285156 25.628906 17.28125 25.632812 L 17.265625 25.652344 C 17.160156 25.777344 16.957031 25.796875 16.828125 25.691406 Z M 18 26.011719 C 17.894531 26.140625 17.691406 26.160156 17.5625 26.050781 C 17.46875 25.976562 17.433594 25.855469 17.460938 25.742188 L 17.691406 25.464844 C 17.730469 25.421875 17.757812 25.367188 17.777344 25.3125 L 17.789062 25.300781 C 17.894531 25.175781 18.097656 25.15625 18.226562 25.261719 C 18.351562 25.363281 18.375 25.542969 18.277344 25.679688 C 18.277344 25.683594 18.273438 25.6875 18.265625 25.695312 Z M 19.859375 25.195312 C 19.726562 25.332031 19.507812 25.339844 19.359375 25.207031 C 19.359375 25.207031 19.355469 25.203125 19.351562 25.199219 L 17.84375 23.808594 C 17.800781 23.769531 17.734375 23.773438 17.699219 23.8125 C 17.660156 23.855469 17.660156 23.921875 17.703125 23.960938 L 19.195312 25.335938 C 19.21875 25.445312 19.183594 25.558594 19.105469 25.636719 L 19.035156 25.710938 C 19 25.742188 18.910156 25.8125 18.78125 25.820312 C 18.652344 25.824219 18.554688 25.765625 18.496094 25.714844 C 18.59375 25.507812 18.539062 25.25 18.359375 25.101562 C 18.265625 25.023438 18.148438 24.984375 18.027344 24.984375 C 17.949219 24.984375 17.871094 25 17.800781 25.035156 C 17.777344 24.921875 17.71875 24.816406 17.625 24.738281 C 17.492188 24.628906 17.3125 24.601562 17.148438 24.644531 C 17.140625 24.503906 17.078125 24.371094 16.964844 24.277344 C 16.84375 24.175781 16.671875 24.144531 16.515625 24.175781 C 16.515625 24.027344 16.453125 23.882812 16.332031 23.785156 C 16.238281 23.707031 16.121094 23.664062 16 23.664062 C 15.859375 23.664062 15.722656 23.722656 15.625 23.824219 C 15.472656 23.679688 15.324219 23.53125 15.183594 23.378906 C 15.007812 23.1875 14.839844 22.988281 14.683594 22.789062 L 16.277344 20.488281 L 18.667969 20.097656 C 18.8125 20.074219 18.957031 20.074219 19.097656 20.097656 L 19.90625 20.242188 C 20.035156 20.265625 20.136719 20.339844 20.191406 20.441406 C 20.195312 20.445312 20.199219 20.453125 20.203125 20.457031 C 20.199219 20.453125 20.199219 20.453125 20.199219 20.453125 C 20.222656 20.507812 20.234375 20.554688 20.226562 20.59375 C 20.214844 20.660156 20.160156 20.722656 20.074219 20.777344 C 19.859375 20.902344 19.402344 20.980469 18.816406 20.78125 C 18.804688 20.773438 18.789062 20.773438 18.773438 20.773438 L 18.226562 20.824219 C 18.210938 20.824219 18.199219 20.828125 18.1875 20.835938 L 16.582031 21.722656 C 16.464844 21.789062 16.375 21.867188 16.316406 21.957031 C 16.210938 22.109375 16.183594 22.269531 16.234375 22.394531 C 16.339844 22.667969 16.734375 22.675781 16.882812 22.679688 C 16.890625 22.679688 16.898438 22.679688 16.910156 22.679688 C 17.042969 22.679688 17.25 22.644531 17.703125 22.453125 L 17.726562 22.441406 C 17.789062 22.414062 17.859375 22.382812 17.9375 22.347656 C 18.066406 22.289062 18.207031 22.269531 18.351562 22.292969 C 18.382812 22.300781 18.421875 22.3125 18.464844 22.320312 C 18.539062 22.347656 18.605469 22.386719 18.664062 22.429688 C 18.921875 22.636719 19.199219 22.867188 19.484375 23.097656 C 19.796875 23.355469 20.113281 23.617188 20.398438 23.847656 C 20.503906 23.929688 20.546875 24.058594 20.519531 24.1875 C 20.503906 24.257812 20.464844 24.324219 20.398438 24.378906 C 20.324219 24.453125 20.199219 24.519531 20.113281 24.535156 C 20.097656 24.515625 20.078125 24.496094 20.0625 24.480469 L 18.621094 23.152344 C 18.578125 23.117188 18.515625 23.117188 18.476562 23.160156 C 18.4375 23.203125 18.4375 23.269531 18.480469 23.304688 L 19.921875 24.636719 C 19.941406 24.652344 19.960938 24.675781 19.976562 24.699219 C 20.039062 24.796875 20.050781 24.917969 20 25.027344 C 19.984375 25.0625 19.960938 25.09375 19.933594 25.121094 Z M 20.230469 24.964844 C 20.246094 24.882812 20.238281 24.804688 20.214844 24.726562 C 20.339844 24.6875 20.464844 24.605469 20.539062 24.53125 C 20.621094 24.460938 20.679688 24.371094 20.710938 24.269531 C 21 24.042969 21.269531 23.789062 21.515625 23.515625 C 21.703125 23.308594 21.875 23.089844 22.027344 22.867188 L 22.296875 22.667969 L 22.402344 22.824219 L 22.40625 24.964844 Z M 24.578125 21.636719 L 22.542969 22.660156 L 20.652344 19.878906 L 24.578125 17.414062 Z M 24.578125 21.636719 " fill-opacity="1" fill-rule="nonzero"/></g><path fill="#ffffff" d="M 17.757812 14.953125 L 20.476562 14.953125 C 20.535156 14.953125 20.582031 14.90625 20.582031 14.847656 C 20.582031 14.792969 20.535156 14.746094 20.476562 14.746094 L 17.757812 14.746094 C 17.699219 14.746094 17.652344 14.792969 17.652344 14.847656 C 17.652344 14.90625 17.699219 14.953125 17.757812 14.953125 Z M 17.757812 14.953125 " fill-opacity="1" fill-rule="nonzero"/><path fill="#ffffff" d="M 17.386719 15.8125 L 21.09375 15.8125 C 21.152344 15.8125 21.199219 15.769531 21.199219 15.710938 C 21.199219 15.652344 21.152344 15.605469 21.09375 15.605469 L 17.386719 15.605469 C 17.328125 15.605469 17.28125 15.652344 17.28125 15.710938 C 17.28125 15.769531 17.328125 15.8125 17.386719 15.8125 Z M 17.386719 15.8125 " fill-opacity="1" fill-rule="nonzero"/><path fill="#ffffff" d="M 15.53125 17.332031 C 15.472656 17.332031 15.429688 17.378906 15.429688 17.433594 C 15.429688 17.492188 15.472656 17.539062 15.53125 17.539062 L 20.972656 17.539062 C 21.027344 17.539062 21.074219 17.492188 21.074219 17.433594 C 21.074219 17.378906 21.027344 17.332031 20.972656 17.332031 Z M 15.53125 17.332031 " fill-opacity="1" fill-rule="nonzero"/><path fill="#ffffff" d="M 21.074219 18.421875 C 21.074219 18.363281 21.027344 18.316406 20.972656 18.316406 L 15.285156 18.316406 C 15.226562 18.316406 15.179688 18.363281 15.179688 18.421875 C 15.179688 18.476562 15.226562 18.523438 15.285156 18.523438 L 20.972656 18.523438 C 21.027344 18.523438 21.074219 18.476562 21.074219 18.421875 Z M 21.074219 18.421875 " fill-opacity="1" fill-rule="nonzero"/><path fill="#ffffff" d="M 19.980469 19.179688 L 17.015625 19.179688 C 16.957031 19.179688 16.910156 19.222656 16.910156 19.28125 C 16.910156 19.339844 16.957031 19.386719 17.015625 19.386719 L 19.980469 19.386719 C 20.039062 19.386719 20.085938 19.339844 20.085938 19.28125 C 20.085938 19.222656 20.039062 19.179688 19.980469 19.179688 Z M 19.980469 19.179688 " fill-opacity="1" fill-rule="nonzero"/><g clip-path="url(#2f29ac4389)"><path fill="#ffffff" d="M 15.292969 16.171875 L 15.429688 16.402344 C 15.480469 16.480469 15.5625 16.527344 15.65625 16.527344 C 15.75 16.527344 15.832031 16.480469 15.878906 16.402344 L 16.015625 16.171875 C 16.027344 16.152344 16.054688 16.140625 16.078125 16.148438 L 16.335938 16.210938 C 16.425781 16.234375 16.519531 16.210938 16.585938 16.144531 C 16.652344 16.078125 16.675781 15.984375 16.652344 15.894531 L 16.589844 15.636719 C 16.582031 15.617188 16.59375 15.589844 16.613281 15.578125 L 16.84375 15.441406 C 16.921875 15.394531 16.96875 15.3125 16.96875 15.21875 C 16.96875 15.125 16.921875 15.042969 16.84375 14.992188 L 16.613281 14.855469 C 16.59375 14.84375 16.582031 14.820312 16.589844 14.796875 L 16.652344 14.539062 C 16.675781 14.449219 16.652344 14.359375 16.585938 14.292969 C 16.519531 14.226562 16.425781 14.199219 16.335938 14.222656 L 16.078125 14.289062 C 16.054688 14.292969 16.027344 14.285156 16.015625 14.261719 L 15.878906 14.035156 C 15.832031 13.957031 15.75 13.910156 15.65625 13.910156 C 15.5625 13.910156 15.480469 13.957031 15.429688 14.035156 L 15.292969 14.261719 C 15.28125 14.285156 15.257812 14.292969 15.234375 14.289062 L 14.972656 14.222656 C 14.886719 14.199219 14.792969 14.226562 14.726562 14.292969 C 14.660156 14.359375 14.632812 14.449219 14.65625 14.539062 L 14.722656 14.796875 C 14.726562 14.820312 14.71875 14.84375 14.695312 14.859375 C 14.621094 14.902344 14.542969 14.949219 14.46875 14.996094 C 14.386719 15.042969 14.339844 15.125 14.339844 15.21875 C 14.339844 15.308594 14.386719 15.394531 14.46875 15.441406 C 14.542969 15.488281 14.621094 15.53125 14.695312 15.578125 C 14.71875 15.589844 14.726562 15.613281 14.722656 15.636719 L 14.65625 15.894531 C 14.632812 15.984375 14.660156 16.078125 14.726562 16.144531 C 14.792969 16.210938 14.882812 16.234375 14.972656 16.210938 L 15.234375 16.148438 C 15.257812 16.140625 15.28125 16.152344 15.292969 16.171875 Z M 14.925781 16.011719 C 14.898438 16.019531 14.878906 16.003906 14.871094 15.996094 C 14.863281 15.988281 14.851562 15.972656 14.859375 15.945312 L 14.921875 15.6875 C 14.949219 15.578125 14.902344 15.460938 14.804688 15.402344 C 14.726562 15.355469 14.652344 15.308594 14.574219 15.265625 C 14.550781 15.25 14.546875 15.226562 14.546875 15.21875 C 14.546875 15.210938 14.550781 15.1875 14.574219 15.171875 C 14.652344 15.125 14.726562 15.082031 14.800781 15.035156 C 14.902344 14.976562 14.953125 14.863281 14.921875 14.75 L 14.859375 14.488281 C 14.851562 14.464844 14.867188 14.445312 14.871094 14.441406 C 14.878906 14.433594 14.898438 14.417969 14.925781 14.425781 L 15.183594 14.488281 C 15.296875 14.515625 15.410156 14.46875 15.472656 14.371094 L 15.609375 14.144531 C 15.621094 14.121094 15.644531 14.117188 15.65625 14.117188 C 15.660156 14.117188 15.6875 14.117188 15.703125 14.144531 L 15.839844 14.371094 C 15.898438 14.46875 16.015625 14.515625 16.128906 14.488281 L 16.386719 14.425781 C 16.414062 14.417969 16.433594 14.433594 16.4375 14.441406 C 16.445312 14.445312 16.460938 14.464844 16.453125 14.488281 L 16.386719 14.75 C 16.359375 14.863281 16.40625 14.976562 16.507812 15.035156 L 16.738281 15.171875 C 16.757812 15.1875 16.761719 15.207031 16.761719 15.21875 C 16.761719 15.230469 16.757812 15.25 16.738281 15.265625 L 16.507812 15.402344 C 16.40625 15.460938 16.359375 15.578125 16.386719 15.6875 L 16.453125 15.945312 C 16.457031 15.972656 16.445312 15.988281 16.4375 15.996094 C 16.433594 16.003906 16.414062 16.019531 16.386719 16.011719 L 16.125 15.945312 C 16.015625 15.917969 15.898438 15.96875 15.839844 16.066406 L 15.703125 16.296875 C 15.6875 16.316406 15.664062 16.320312 15.65625 16.320312 C 15.648438 16.324219 15.621094 16.320312 15.609375 16.296875 L 15.472656 16.066406 C 15.421875 15.984375 15.335938 15.9375 15.246094 15.9375 C 15.226562 15.9375 15.203125 15.941406 15.183594 15.945312 Z M 14.925781 16.011719 " fill-opacity="1" fill-rule="nonzero"/></g><g clip-path="url(#d46a3fa5a1)"><path fill="#d9d9d9" d="M 8.074219 7.183594 C 8.097656 7.207031 8.128906 7.21875 8.167969 7.21875 C 8.207031 7.21875 8.238281 7.207031 8.261719 7.179688 L 8.976562 6.484375 L 8.976562 10.335938 C 8.976562 10.421875 9.019531 10.46875 9.109375 10.46875 L 9.851562 10.46875 C 9.941406 10.46875 9.984375 10.421875 9.984375 10.335938 L 9.984375 6.480469 L 10.710938 7.183594 C 10.734375 7.210938 10.765625 7.222656 10.804688 7.21875 C 10.84375 7.21875 10.875 7.207031 10.898438 7.179688 L 11.417969 6.671875 C 11.480469 6.609375 11.480469 6.546875 11.417969 6.488281 L 9.582031 4.710938 C 9.519531 4.652344 9.457031 4.652344 9.390625 4.710938 L 8.863281 5.210938 L 7.546875 6.488281 C 7.480469 6.550781 7.480469 6.609375 7.546875 6.671875 Z M 8.074219 7.183594 " fill-opacity="1" fill-rule="nonzero"/></g><g clip-path="url(#92d357306c)"><path fill="#a6a6a6" d="M 12.703125 7.945312 C 12.679688 7.921875 12.644531 7.910156 12.609375 7.910156 C 12.570312 7.910156 12.539062 7.921875 12.511719 7.945312 L 11.800781 8.644531 L 11.800781 4.792969 C 11.800781 4.703125 11.753906 4.660156 11.664062 4.660156 L 10.925781 4.660156 C 10.835938 4.660156 10.792969 4.703125 10.792969 4.792969 L 10.792969 8.648438 L 10.066406 7.945312 C 10.042969 7.917969 10.011719 7.90625 9.972656 7.910156 C 9.933594 7.910156 9.902344 7.921875 9.875 7.949219 L 9.359375 8.457031 C 9.296875 8.519531 9.296875 8.578125 9.359375 8.640625 L 11.195312 10.414062 C 11.257812 10.476562 11.320312 10.476562 11.386719 10.417969 L 11.914062 9.914062 L 13.230469 8.640625 C 13.292969 8.578125 13.292969 8.519531 13.230469 8.457031 Z M 12.703125 7.945312 " fill-opacity="1" fill-rule="nonzero"/></g></svg>