<svg xmlns="http://www.w3.org/2000/svg" xmlns:xlink="http://www.w3.org/1999/xlink" width="40" zoomAndPan="magnify" viewBox="0 0 30 30.000001" height="40" preserveAspectRatio="xMidYMid meet" version="1.0"><defs><clipPath id="beb3ee3053"><path d="M 0.484375 0 L 29.515625 0 L 29.515625 29.03125 L 0.484375 29.03125 Z M 0.484375 0 " clip-rule="nonzero"/></clipPath><clipPath id="edd00a4be8"><path d="M 4.59375 5.367188 L 27.015625 5.367188 L 27.015625 23.496094 L 4.59375 23.496094 Z M 4.59375 5.367188 " clip-rule="nonzero"/></clipPath></defs><g clip-path="url(#beb3ee3053)"><path fill="#ffffff" d="M 0.484375 0 L 29.515625 0 L 29.515625 29.03125 L 0.484375 29.03125 Z M 0.484375 0 " fill-opacity="1" fill-rule="nonzero"/><path fill="#000000" d="M 0.484375 0 L 29.515625 0 L 29.515625 29.03125 L 0.484375 29.03125 Z M 0.484375 0 " fill-opacity="1" fill-rule="nonzero"/></g><g clip-path="url(#edd00a4be8)"><path fill="#ffffff" d="M 25.054688 19.160156 C 25.296875 19.160156 25.492188 19.359375 25.492188 19.601562 C 25.492188 19.84375 25.296875 20.042969 25.050781 20.042969 C 24.808594 20.042969 24.613281 19.84375 24.613281 19.601562 C 24.613281 19.359375 24.808594 19.160156 25.054688 19.160156 Z M 19.257812 19.21875 C 19.5 19.21875 19.695312 19.417969 19.695312 19.660156 C 19.695312 19.90625 19.5 20.101562 19.257812 20.101562 C 19.015625 20.101562 18.816406 19.90625 18.816406 19.660156 C 18.816406 19.417969 19.015625 19.21875 19.257812 19.21875 Z M 26.246094 21.882812 C 26.488281 21.882812 26.683594 22.082031 26.683594 22.324219 C 26.683594 22.570312 26.488281 22.765625 26.246094 22.765625 C 26.003906 22.765625 25.804688 22.570312 25.804688 22.324219 C 25.804688 22.082031 26.003906 21.882812 26.246094 21.882812 Z M 13.765625 13.28125 L 8.132812 13.28125 L 8.132812 10.039062 C 8.132812 8.476562 9.394531 7.207031 10.949219 7.207031 C 12.5 7.207031 13.765625 8.476562 13.765625 10.039062 Z M 12.136719 21.769531 L 9.738281 21.769531 L 10.34375 17.59375 C 9.949219 17.382812 9.675781 16.960938 9.675781 16.480469 C 9.675781 15.78125 10.242188 15.214844 10.9375 15.214844 C 11.632812 15.214844 12.195312 15.78125 12.195312 16.480469 C 12.195312 16.960938 11.925781 17.382812 11.53125 17.59375 Z M 24.820312 6.097656 C 25.0625 6.097656 25.261719 6.292969 25.261719 6.539062 C 25.261719 6.78125 25.0625 6.980469 24.820312 6.980469 C 24.578125 6.980469 24.378906 6.78125 24.378906 6.539062 C 24.378906 6.292969 24.578125 6.097656 24.820312 6.097656 Z M 20.21875 9.773438 C 20.460938 9.773438 20.65625 9.972656 20.65625 10.21875 C 20.65625 10.460938 20.460938 10.660156 20.21875 10.660156 C 19.976562 10.660156 19.777344 10.460938 19.777344 10.21875 C 19.777344 9.972656 19.976562 9.773438 20.21875 9.773438 Z M 24.589844 11.125 C 24.832031 11.125 25.027344 11.324219 25.027344 11.566406 C 25.027344 11.808594 24.832031 12.007812 24.589844 12.007812 C 24.347656 12.007812 24.148438 11.808594 24.148438 11.566406 C 24.148438 11.324219 24.347656 11.125 24.589844 11.125 Z M 26.246094 13.863281 C 26.488281 13.863281 26.683594 14.0625 26.683594 14.304688 C 26.683594 14.546875 26.488281 14.746094 26.246094 14.746094 C 26.003906 14.746094 25.804688 14.546875 25.804688 14.304688 C 25.804688 14.0625 26.003906 13.863281 26.246094 13.863281 Z M 23.527344 15.179688 C 23.769531 15.179688 23.96875 15.375 23.96875 15.621094 C 23.96875 15.863281 23.769531 16.0625 23.527344 16.0625 C 23.289062 16.0625 23.089844 15.863281 23.089844 15.621094 C 23.089844 15.375 23.289062 15.179688 23.527344 15.179688 Z M 19.257812 15.179688 C 19.5 15.179688 19.695312 15.375 19.695312 15.621094 C 19.695312 15.863281 19.5 16.0625 19.257812 16.0625 C 19.015625 16.0625 18.816406 15.863281 18.816406 15.621094 C 18.816406 15.375 19.015625 15.179688 19.257812 15.179688 Z M 26.246094 16.519531 C 26.488281 16.519531 26.683594 16.71875 26.683594 16.960938 C 26.683594 17.207031 26.488281 17.402344 26.246094 17.402344 C 26.003906 17.402344 25.804688 17.207031 25.804688 16.960938 C 25.804688 16.71875 26.003906 16.519531 26.246094 16.519531 Z M 25.492188 17.128906 C 25.570312 17.476562 25.875 17.738281 26.246094 17.738281 C 26.671875 17.738281 27.015625 17.390625 27.015625 16.960938 C 27.015625 16.535156 26.671875 16.1875 26.246094 16.1875 C 25.875 16.1875 25.570312 16.449219 25.492188 16.796875 L 17.304688 16.796875 L 17.304688 15.78125 L 18.503906 15.78125 C 18.574219 16.128906 18.886719 16.394531 19.257812 16.394531 C 19.683594 16.394531 20.027344 16.046875 20.027344 15.621094 C 20.027344 15.195312 19.683594 14.847656 19.257812 14.847656 C 18.890625 14.847656 18.585938 15.105469 18.507812 15.449219 L 17.304688 15.449219 L 17.304688 14.429688 L 20.644531 14.429688 L 21.996094 15.785156 L 22.777344 15.785156 C 22.851562 16.132812 23.160156 16.394531 23.527344 16.394531 C 23.953125 16.394531 24.300781 16.046875 24.300781 15.621094 C 24.300781 15.195312 23.953125 14.847656 23.527344 14.847656 C 23.160156 14.847656 22.851562 15.105469 22.777344 15.453125 L 22.132812 15.453125 L 20.78125 14.097656 L 17.257812 14.097656 C 17.125 13.628906 16.691406 13.28125 16.179688 13.28125 L 15.597656 13.28125 L 15.597656 13.082031 L 22.234375 13.082031 L 23.621094 14.472656 L 25.492188 14.472656 C 25.570312 14.820312 25.875 15.078125 26.246094 15.078125 C 26.671875 15.078125 27.015625 14.730469 27.015625 14.304688 C 27.015625 13.878906 26.671875 13.53125 26.246094 13.53125 C 25.875 13.53125 25.570312 13.792969 25.492188 14.140625 L 23.757812 14.140625 L 22.371094 12.75 L 15.597656 12.75 L 15.597656 11.730469 L 23.835938 11.730469 C 23.914062 12.078125 24.21875 12.339844 24.589844 12.339844 C 25.015625 12.339844 25.359375 11.992188 25.359375 11.566406 C 25.359375 11.136719 25.015625 10.789062 24.589844 10.789062 C 24.21875 10.789062 23.914062 11.050781 23.835938 11.398438 L 15.597656 11.398438 L 15.597656 10.382812 L 19.464844 10.382812 C 19.539062 10.730469 19.851562 10.992188 20.21875 10.992188 C 20.644531 10.992188 20.988281 10.644531 20.988281 10.21875 C 20.988281 9.789062 20.644531 9.441406 20.21875 9.441406 C 19.851562 9.441406 19.539062 9.703125 19.464844 10.050781 L 15.597656 10.050781 L 15.597656 10.039062 C 15.597656 9.695312 15.558594 9.355469 15.488281 9.035156 L 20.285156 9.035156 L 22.605469 6.703125 L 24.070312 6.703125 C 24.144531 7.050781 24.453125 7.3125 24.820312 7.3125 C 25.246094 7.3125 25.589844 6.964844 25.589844 6.539062 C 25.589844 6.109375 25.246094 5.765625 24.820312 5.765625 C 24.453125 5.765625 24.144531 6.023438 24.070312 6.371094 L 22.46875 6.371094 L 20.148438 8.699219 L 15.402344 8.699219 C 14.828125 6.773438 13.050781 5.367188 10.949219 5.367188 C 8.386719 5.367188 6.300781 7.460938 6.300781 10.039062 L 6.300781 13.28125 L 5.71875 13.28125 C 5.097656 13.28125 4.59375 13.785156 4.59375 14.410156 L 4.59375 22.367188 C 4.59375 22.988281 5.097656 23.496094 5.71875 23.496094 L 16.179688 23.496094 C 16.800781 23.496094 17.304688 22.988281 17.304688 22.367188 L 17.304688 21.175781 L 23.230469 21.175781 L 24.539062 22.492188 L 25.492188 22.492188 C 25.570312 22.839844 25.875 23.101562 26.246094 23.101562 C 26.671875 23.101562 27.015625 22.753906 27.015625 22.324219 C 27.015625 21.898438 26.671875 21.550781 26.246094 21.550781 C 25.875 21.550781 25.570312 21.8125 25.492188 22.160156 L 24.675781 22.160156 L 23.367188 20.84375 L 17.304688 20.84375 L 17.304688 19.828125 L 18.503906 19.828125 C 18.582031 20.175781 18.890625 20.4375 19.257812 20.4375 C 19.683594 20.4375 20.027344 20.089844 20.027344 19.660156 C 20.027344 19.234375 19.683594 18.886719 19.257812 18.886719 C 18.890625 18.886719 18.582031 19.148438 18.503906 19.496094 L 17.304688 19.496094 L 17.304688 18.476562 L 20.148438 18.476562 L 21.433594 19.769531 L 24.300781 19.769531 C 24.375 20.117188 24.683594 20.378906 25.050781 20.378906 C 25.476562 20.378906 25.824219 20.03125 25.824219 19.601562 C 25.824219 19.175781 25.476562 18.828125 25.054688 18.828125 C 24.683594 18.828125 24.375 19.089844 24.300781 19.4375 L 21.570312 19.4375 L 20.285156 18.144531 L 17.304688 18.144531 L 17.304688 17.128906 L 25.492188 17.128906 " fill-opacity="1" fill-rule="nonzero"/></g></svg>