<?xml version="1.0" encoding="UTF-8"?><svg id="Layer_11" xmlns="http://www.w3.org/2000/svg" xmlns:xlink="http://www.w3.org/1999/xlink" viewBox="0 0 396 396"><defs><style>.cls-1{fill:#fff;}.cls-2{fill:#00001b;filter:url(#outer-glow-1);stroke:#fff;stroke-miterlimit:10;stroke-width:6px;}</style><filter id="outer-glow-1" filterUnits="userSpaceOnUse"><feOffset dx="0" dy="0"/><feGaussianBlur result="blur" stdDeviation="18"/><feFlood flood-color="#0f0ff7" flood-opacity=".75"/><feComposite in2="blur" operator="in"/><feComposite in="SourceGraphic"/></filter></defs><circle class="cls-2" cx="198.01" cy="198" r="140.77"/><path class="cls-1" d="M248.04,166.44l-19.09-17.06-16.94-15.14c-1.67-1.49-4.31-.31-4.31,1.93v13.84c-33.61,6.27-54.32,23.01-57.41,54.05-.17,1.72,1.87,2.83,3.28,1.76,17-12.93,34.44-23.67,54.14-18.74v13.49c0,2.23,2.64,3.42,4.31,1.93l16.94-15.14,19.09-17.06c1.15-1.03,1.15-2.83,0-3.86Z"/><path class="cls-1" d="M259.19,195.23c.17-1.72-1.87-2.83-3.28-1.76-17,12.93-34.44,23.67-54.14,18.74v-13.49c0-2.23-2.64-3.42-4.31-1.93l-16.94,15.14-19.09,17.06c-1.15,1.03-1.15,2.83,0,3.86l19.09,17.06,16.94,15.14c1.67,1.49,4.31,.31,4.31-1.93v-13.84c33.61-6.27,54.32-23.01,57.41-54.05Z"/></svg>