<?xml version="1.0" encoding="UTF-8"?><svg id="Layer_13" xmlns="http://www.w3.org/2000/svg" xmlns:xlink="http://www.w3.org/1999/xlink" viewBox="0 0 396.96 396.96"><defs><style>.cls-1{fill:#fff;}.cls-2{fill:#00001b;filter:url(#outer-glow-1);stroke:#fff;stroke-miterlimit:10;stroke-width:7px;}</style><filter id="outer-glow-1" filterUnits="userSpaceOnUse"><feOffset dx="0" dy="0"/><feGaussianBlur result="blur" stdDeviation="18"/><feFlood flood-color="#0f0ff7" flood-opacity=".75"/><feComposite in2="blur" operator="in"/><feComposite in="SourceGraphic"/></filter></defs><circle class="cls-2" cx="198.53" cy="198.5" r="140.85"/><path class="cls-1" d="M173.47,260.26h45.86v-28.66c8.54-6.31,16.7-14.41,19.85-25.93v-35.72c0-2.98-4.87-6.35-7.86-6.35h-29.39c-.92,.91,1.38,10.64,7.82,10.93h13.5s0,14.57,0,14.57c-6.65,2.82-11.24,7.92-14.03,15.02l-.4,13.05h-6.89v-16.21l14.88-20.07-17.35-.08c-1.42,6.07-4.53,10.62-10.58,11.84-5.78,1.35-9.5-1.79-13.05-5.34-3.85,4.47-8.45,5.96-13.64,5.14v24.71s11.07,19.77,11.07,19.77l.2,23.33Z"/><rect class="cls-1" x="160.13" y="143.86" width="13.35" height="39.72" rx="6.67" ry="6.67"/><rect class="cls-1" x="179.58" y="132.88" width="13.8" height="50.69" rx="6.9" ry="6.9"/><path class="cls-1" d="M233.48,155.15v-15.86c0-2.91-2.76-5.27-6.17-5.27h-1.32c-3.41,0-6.17,2.36-6.17,5.27v15.86h13.66Z"/><path class="cls-1" d="M213.37,155.15c.02-.15,.05-.29,.05-.44v-19.86c0-2.91-2.81-5.27-6.27-5.27h-1.34c-3.46,0-6.27,2.36-6.27,5.27v19.86c0,.15,.04,.3,.05,.44h13.78Z"/></svg>