<?xml version="1.0" encoding="UTF-8"?><svg id="Layer_1" xmlns="http://www.w3.org/2000/svg" xmlns:xlink="http://www.w3.org/1999/xlink" viewBox="0 0 394.8 394.8"><defs><style>.cls-1{fill:#fff;}.cls-2{fill:#005eff;filter:url(#outer-glow-1);}</style><filter id="outer-glow-1" filterUnits="userSpaceOnUse"><feOffset dx="0" dy="0"/><feGaussianBlur result="blur" stdDeviation="18"/><feFlood flood-color="#0043ff" flood-opacity=".75"/><feComposite in2="blur" operator="in"/><feComposite in="SourceGraphic"/></filter></defs><circle class="cls-2" cx="197.95" cy="198.26" r="142.45"/><path class="cls-1" d="M178.54,235.65h60.24l31.68-31.68c5.19-5.97-11.43-9.08-15.58-5.71-4.15,3.37-22.33,19.78-22.33,19.78h-31.31v-9.4h23.76c6.73-5.48,5.61-11.64-.34-16.58h-23.09c-7.73-7.48-16.61-11.45-28.22-6.79l-21.81,21.29,27,29.08Z"/><rect class="cls-1" x="137.11" y="212.9" width="25.1" height="49.91" transform="translate(-124.36 175.49) rotate(-45)"/><rect class="cls-1" x="257.03" y="149.24" width="6.2" height="25.1"/><rect class="cls-1" x="239.26" y="149.24" width="6.2" height="16.14"/><rect class="cls-1" x="230.78" y="123.98" width="6.2" height="56.73" transform="translate(386.22 -81.54) rotate(90)"/><circle class="cls-1" cx="189.13" cy="152.34" r="22.37"/></svg>