<?xml version="1.0" encoding="UTF-8"?><svg id="Layer_2" xmlns="http://www.w3.org/2000/svg" xmlns:xlink="http://www.w3.org/1999/xlink" viewBox="0 0 394.8 394.8"><defs><style>.cls-1{fill:#fff;}.cls-2{fill:#1b6ffe;}.cls-3{fill:#005eff;filter:url(#outer-glow-1);}</style><filter id="outer-glow-1" filterUnits="userSpaceOnUse"><feOffset dx="0" dy="0"/><feGaussianBlur result="blur" stdDeviation="18"/><feFlood flood-color="#0043ff" flood-opacity=".75"/><feComposite in2="blur" operator="in"/><feComposite in="SourceGraphic"/></filter></defs><circle class="cls-3" cx="197.98" cy="198.26" r="142.45"/><path class="cls-1" d="M197.99,236.64c-6.75-1.38-18.23,3.18-19.61-2.9-3.88-17.03-20.9-27.86-19.64-47.05,1.44-21.84,18.26-38.58,40.38-38.1,22.25,.49,39.22,19.4,38.36,41.81-.66,17.25-15.72,27.63-19.79,43.59-1.49,5.82-12.91,1.3-19.7,2.65Z"/><path class="cls-1" d="M198.46,244.3c5.37,.69,11.52-.3,15.63,.96,1.02,1.08,.28,3.19,.3,6.07,.05,9.56-8.25,11.36-16.52,11.3-8.41-.06-16.8-2.54-15.83-11.95,.3-2.87-.32-4.82,.7-5.91,4.25-.78,10.2-.01,15.73-.47Z"/><path class="cls-2" d="M199.15,173.44c-7.51,1.73-13.17,7.53-18.68,13.78-1.56,1.77-4.1-.64-4.49-2.78-.98-5.32,2.2-9.04,5.8-12.26,4.46-3.99,9.51-7.09,15.78-5.29,1.84,.53,3.09,2.86,1.6,6.55Z"/><rect class="cls-1" x="186.2" y="122.2" width="23.57" height="7.85" rx=".5" ry=".5" transform="translate(71.85 324.11) rotate(-90)"/><rect class="cls-1" x="229.95" y="140.81" width="23.57" height="7.85" rx=".5" ry=".5" transform="translate(-31.54 213.32) rotate(-45)"/><rect class="cls-1" x="142.69" y="140.81" width="23.57" height="7.85" rx=".5" ry=".5" transform="translate(161.36 356.3) rotate(-135)"/><rect class="cls-1" x="124.78" y="183.91" width="23.57" height="7.85" rx=".5" ry=".5" transform="translate(273.12 375.68) rotate(180)"/><rect class="cls-1" x="248.88" y="183.91" width="23.57" height="7.85" rx=".5" ry=".5" transform="translate(521.33 375.68) rotate(180)"/></svg>