<?xml version="1.0" encoding="UTF-8"?><svg id="Layer_4" xmlns="http://www.w3.org/2000/svg" xmlns:xlink="http://www.w3.org/1999/xlink" viewBox="0 0 394.8 394.8"><defs><style>.cls-1{fill:#fff;}.cls-2{fill:#005eff;filter:url(#outer-glow-1);}</style><filter id="outer-glow-1" filterUnits="userSpaceOnUse"><feOffset dx="0" dy="0"/><feGaussianBlur result="blur" stdDeviation="18"/><feFlood flood-color="#0043ff" flood-opacity=".75"/><feComposite in2="blur" operator="in"/><feComposite in="SourceGraphic"/></filter></defs><circle class="cls-2" cx="197.79" cy="197.97" r="142.74"/><rect class="cls-1" x="142.09" y="146.74" width="16.19" height="30.92" rx="8.09" ry="8.09"/><rect class="cls-1" x="222.43" y="146.74" width="16.19" height="30.92" rx="8.09" ry="8.09"/><rect class="cls-1" x="186.25" y="193.25" width="16.19" height="32.58" rx="8.09" ry="8.09" transform="translate(403.88 15.19) rotate(90)"/><path class="cls-1" d="M252.5,217.63c-4.47,0-8.09-3.62-8.09-8.09s3.62-8.09,8.09-8.09h14.49v-31.78h-71.19v24.09h7.04c7.79,0,15.76,5.61,15.76,15.38h0c0,9.77-7.97,16.17-15.76,16.17h-7.04v24.1h71.19v-31.78h-14.49Z"/><path class="cls-1" d="M186.15,169.67H115.11v79.74h26.98v-14.49c0-4.47,3.62-8.09,8.09-8.09s8.09,3.62,8.09,8.09v14.49h27.87v-79.74Z"/></svg>