<?xml version="1.0" encoding="UTF-8"?><svg id="Layer_6" xmlns="http://www.w3.org/2000/svg" xmlns:xlink="http://www.w3.org/1999/xlink" viewBox="0 0 394.8 394.8"><defs><style>.cls-1{fill:#fff;}.cls-2{fill:#005eff;filter:url(#outer-glow-1);}</style><filter id="outer-glow-1" filterUnits="userSpaceOnUse"><feOffset dx="0" dy="0"/><feGaussianBlur result="blur" stdDeviation="18"/><feFlood flood-color="#0043ff" flood-opacity=".75"/><feComposite in2="blur" operator="in"/><feComposite in="SourceGraphic"/></filter></defs><circle class="cls-2" cx="197.37" cy="197.36" r="143.35"/><path class="cls-1" d="M157.85,264.07h74.48c9.45-4.31,14.11-10.38,18.97-17.92l20.18-29.49c2.32-3.39,2.47-8.08-.25-11.17-1.44-1.64-3.35-2.5-5.71-2.62-3.58-.18-6.96,1.72-9.16,4.56l-23.69,30.64h-37.24c-4.35-3.06-4.4-6.11,0-9.13h29.32c5.44,0,10.02-4.76,9.11-10.12-.01-.06-.02-.12-.03-.18-.86-4.57-5.27-7.61-9.92-7.61h-25.98c-11.57-9.37-25.05-10.76-40.1-5.62v58.67Z"/><path class="cls-1" d="M121.94,269.86v-65.64s.12-.11,.32-.29c2.23-1.9,5.13-2.78,8.05-2.58,2.72,.18,6.31,.61,9.19,2.48,3.1,2.02,5.27,4.73,6.75,7.77,1.28,2.63,1.84,5.55,1.84,8.48v37.33c0,6.84-4.36,12.92-10.83,15.12l-.36,.12c-2.86,.97-5.96,1.33-8.88,.56-2.3-.61-4.34-1.71-6.08-3.36Z"/><path class="cls-1" d="M197.94,122.1c-27.2,0-49.25,22.05-49.25,49.25,0,8.9,2.38,17.23,6.52,24.42,1.13-.63,2.63-1.28,2.63-1.28,15.05-5.14,28.53-3.75,40.1,5.62h25.98c3.93,0,7.66,2.19,9.25,5.62,8.66-8.88,14.02-20.99,14.02-34.38,0-27.2-22.05-49.25-49.25-49.25Zm10.99,59.01c-1.98,2.66-4.85,4.23-8.59,4.7v6.84h-4.77v-6.8c-6.24-.77-10.11-5.12-11.6-13.05l7.38-2.3c.68,4.98,2.94,7.47,6.79,7.47,1.8,0,3.12-.53,3.97-1.6,.85-1.07,1.27-2.35,1.27-3.87s-.42-2.74-1.27-3.55c-.85-.8-2.73-1.83-5.64-3.07-2.63-1.09-4.68-2.17-6.16-3.23-1.48-1.06-2.67-2.56-3.6-4.48-.92-1.92-1.38-4.16-1.38-6.71,0-3.34,.82-6.35,2.46-9.03,1.64-2.67,4.24-4.31,7.77-4.9v-5.28h4.77v5.28c5.33,.77,8.78,4.38,10.36,10.85l-6.58,3.23c-1.28-4.43-3.27-6.65-5.95-6.65-1.34,0-2.43,.5-3.24,1.49-.82,.99-1.22,2.19-1.22,3.6s.39,2.54,1.18,3.31c.78,.77,2.47,1.72,5.05,2.87,2.83,1.24,5.05,2.41,6.66,3.51,1.61,1.1,2.9,2.62,3.86,4.57,.96,1.95,1.44,4.22,1.44,6.82,0,3.99-.99,7.31-2.98,9.98Z"/></svg>