<?xml version="1.0" encoding="UTF-8"?><svg id="Layer_9" xmlns="http://www.w3.org/2000/svg" xmlns:xlink="http://www.w3.org/1999/xlink" viewBox="0 0 394.8 394.8"><defs><style>.cls-1{fill:#fff;}.cls-2{fill:#005eff;filter:url(#outer-glow-1);}</style><filter id="outer-glow-1" filterUnits="userSpaceOnUse"><feOffset dx="0" dy="0"/><feGaussianBlur result="blur" stdDeviation="18"/><feFlood flood-color="#0043ff" flood-opacity=".75"/><feComposite in2="blur" operator="in"/><feComposite in="SourceGraphic"/></filter></defs><circle class="cls-2" cx="197.8" cy="198.03" r="142.61"/><g><path class="cls-1" d="M223.54,156.94c1.56,3.52,2.77,7.23,3.55,11.1,15.59,7.95,26.31,24.13,26.31,42.79,0,26.49-21.56,48.05-48.05,48.05-18.87,0-35.19-10.97-43.05-26.84-3.87-.83-7.58-2.1-11.09-3.71,7.4,22.85,28.86,39.43,54.14,39.43,31.39,0,56.92-25.53,56.92-56.92,0-25.02-16.25-46.28-38.74-53.89Z"/><path class="cls-1" d="M157.32,210.83c0,7.62,1.83,14.8,5,21.21,3.7,.79,7.53,1.24,11.47,1.24,30.04,0,54.4-24.35,54.4-54.4,0-3.71-.38-7.33-1.09-10.83-6.54-3.33-13.91-5.25-21.74-5.25-26.49,0-48.04,21.55-48.04,48.04Z"/><path class="cls-1" d="M205.36,153.91c6.36,0,12.46,1.1,18.18,3.03-8.44-19.11-27.52-32.47-49.76-32.47-30.04,0-54.4,24.35-54.4,54.4,0,21.98,13.07,40.87,31.83,49.45-1.79-5.52-2.78-11.39-2.78-17.5,0-31.38,25.53-56.92,56.92-56.92Z"/></g></svg>