<?xml version="1.0" encoding="UTF-8"?><svg id="Layer_16" xmlns="http://www.w3.org/2000/svg" xmlns:xlink="http://www.w3.org/1999/xlink" viewBox="0 0 396.96 397.2"><defs><style>.cls-1,.cls-2{fill:#00001b;}.cls-3{fill:#fff;}.cls-2{filter:url(#outer-glow-1);stroke:#fff;stroke-miterlimit:10;stroke-width:7px;}</style><filter id="outer-glow-1" filterUnits="userSpaceOnUse"><feOffset dx="0" dy="0"/><feGaussianBlur result="blur" stdDeviation="18"/><feFlood flood-color="#0f0ff7" flood-opacity=".75"/><feComposite in2="blur" operator="in"/><feComposite in="SourceGraphic"/></filter></defs><circle class="cls-2" cx="198.48" cy="198.66" r="140.93"/><g><path class="cls-3" d="M155.63,256.23l31.82-31.82c-2.6-5.44-4.09-11.51-4.09-17.95,0-23.09,18.72-41.81,41.81-41.81,5.46,0,10.66,1.08,15.45,2.98v-21.71h-94.61v110.82h9.28c.11-.17,.19-.36,.34-.51Z"/><path class="cls-3" d="M225.17,248.27c-5.81,0-11.35-1.19-16.38-3.34l-11.8,11.8h43.63v-11.45c-4.78,1.9-9.99,2.98-15.45,2.98Z"/></g><rect class="cls-1" x="154.6" y="160.03" width="41.01" height="9.24"/><rect class="cls-3" x="172.52" y="233.52" width="41.01" height="12.97" rx=".99" ry=".99" transform="translate(-113.18 206.79) rotate(-45)"/><rect class="cls-1" x="154.6" y="178.73" width="25.46" height="9.24"/><path class="cls-3" d="M226.48,172.91c-18.12,0-32.81,14.69-32.81,32.81s14.69,32.81,32.81,32.81,32.81-14.69,32.81-32.81-14.69-32.81-32.81-32.81Zm-11.38,47.06h-9.35v-17.35h9.35v17.35Zm15.1,0h-9.35v-25.56h9.35v25.56Zm15.1,0h-9.35v-31.16h9.35v31.16Z"/></svg>